M48
METRIC,LZ,000.000
;FILE_FORMAT=3:3
;TYPE=NON_PLATED
;Layer: NPTH_Through
;EasyEDA v6.5.20, 2023-10-05 13:37:33
;4654ec591aaf40839b9ddd4dd84afded,10
;Gerber Generator version 0.2
;Holesize 1 = 0.551 mm
T01C0.551
%
G05
G90
T01
X036458Y-001882
X037308Y-001882
X038158Y-001882
X039009Y-001882
X039859Y-001882
X040709Y-001882
X041559Y-001882
X042409Y-001882
X036458Y-000066
X037308Y-000066
X038158Y-000066
X039009Y-000066
X039859Y-000066
X040709Y-000066
X041559Y-000066
X042409Y-000066
X036458Y-008884
X037308Y-008884
X038158Y-008884
X039009Y-008884
X039859Y-008884
X040709Y-008884
X041559Y-008884
X042409Y-008884
X036458Y-007067
X037308Y-007067
X038158Y-007067
X039009Y-007067
X039859Y-007067
X040709Y-007067
X041559Y-007067
X042409Y-007067
X036458Y-015885
X037308Y-015885
X038158Y-015885
X039009Y-015885
X039859Y-015885
X040709Y-015885
X041559Y-015885
X042409Y-015885
X036458Y-014068
X037308Y-014068
X038158Y-014068
X039009Y-014068
X039859Y-014068
X040709Y-014068
X041559Y-014068
X042409Y-014068
X036458Y-022886
X037308Y-022886
X038158Y-022886
X039009Y-022886
X039859Y-022886
X040709Y-022886
X041559Y-022886
X042409Y-022886
X036458Y-021070
X037308Y-021070
X038158Y-021070
X039009Y-021070
X039859Y-021070
X040709Y-021070
X041559Y-021070
X042409Y-021070
X036458Y-029887
X037308Y-029887
X038158Y-029887
X039009Y-029887
X039859Y-029887
X040709Y-029887
X041559Y-029887
X042409Y-029887
X036458Y-028071
X037308Y-028071
X038158Y-028071
X039009Y-028071
X039859Y-028071
X040709Y-028071
X041559Y-028071
X042409Y-028071
X036458Y-036889
X037308Y-036889
X038158Y-036889
X039009Y-036889
X039859Y-036889
X040709Y-036889
X041559Y-036889
X042409Y-036889
X036458Y-035072
X037308Y-035072
X038158Y-035072
X039009Y-035072
X039859Y-035072
X040709Y-035072
X041559Y-035072
X042409Y-035072
X036458Y-043890
X037308Y-043890
X038158Y-043890
X039009Y-043890
X039859Y-043890
X040709Y-043890
X041559Y-043890
X042409Y-043890
X036458Y-042073
X037308Y-042073
X038158Y-042073
X039009Y-042073
X039859Y-042073
X040709Y-042073
X041559Y-042073
X042409Y-042073
X036458Y-050891
X037308Y-050891
X038158Y-050891
X039009Y-050891
X039859Y-050891
X040709Y-050891
X041559Y-050891
X042409Y-050891
X036458Y-049075
X037308Y-049075
X038158Y-049075
X039009Y-049075
X039859Y-049075
X040709Y-049075
X041559Y-049075
X042409Y-049075
X036458Y-057892
X037308Y-057892
X038158Y-057892
X039009Y-057892
X039859Y-057892
X040709Y-057892
X041559Y-057892
X042409Y-057892
X036458Y-056076
X037308Y-056076
X038158Y-056076
X039009Y-056076
X039859Y-056076
X040709Y-056076
X041559Y-056076
X042409Y-056076
X036458Y-064894
X037308Y-064894
X038158Y-064894
X039009Y-064894
X039859Y-064894
X040709Y-064894
X041559Y-064894
X042409Y-064894
X036458Y-063077
X037308Y-063077
X038158Y-063077
X039009Y-063077
X039859Y-063077
X040709Y-063077
X041559Y-063077
X042409Y-063077
X036458Y-071895
X037308Y-071895
X038158Y-071895
X039009Y-071895
X039859Y-071895
X040709Y-071895
X041559Y-071895
X042409Y-071895
X036458Y-070078
X037308Y-070078
X038158Y-070078
X039009Y-070078
X039859Y-070078
X040709Y-070078
X041559Y-070078
X042409Y-070078
X036458Y-078896
X037308Y-078896
X038158Y-078896
X039009Y-078896
X039859Y-078896
X040709Y-078896
X041559Y-078896
X042409Y-078896
X036458Y-077079
X037308Y-077079
X038158Y-077079
X039009Y-077079
X039859Y-077079
X040709Y-077079
X041559Y-077079
X042409Y-077079
X036458Y-085897
X037308Y-085897
X038158Y-085897
X039009Y-085897
X039859Y-085897
X040709Y-085897
X041559Y-085897
X042409Y-085897
X036458Y-084081
X037308Y-084081
X038158Y-084081
X039009Y-084081
X039859Y-084081
X040709Y-084081
X041559Y-084081
X042409Y-084081
M30
