M48
METRIC,LZ,000.000
;FILE_FORMAT=3:3
;TYPE=PLATED
;Layer: PTH_Through_Via
;EasyEDA v6.5.20, 2025-08-31 18:04:55
;4654ec591aaf40839b9ddd4dd84afded,10
;Gerber Generator version 0.2
;Holesize 1 = 0.400 mm
T01C0.400
%
G05
G90
T01
X049530Y074295
X052451Y071120
X050800Y071158
X049530Y075222
X049911Y068707
X049530Y060579
X052324Y057531
X050673Y057569
X049403Y061633
X049784Y055118
X049530Y046990
X052324Y043942
X050673Y043980
X049403Y048044
X049784Y041529
X049403Y033655
X052197Y030480
X050546Y030518
X049276Y034582
X049657Y028067
X049276Y019977
X052197Y016891
X050546Y016929
X049276Y020993
X049784Y014478
X049276Y006477
X052197Y003429
X050546Y003467
X049276Y007531
X049657Y001016
X049657Y087884
X052578Y084709
X050927Y084836
X049657Y088900
X050038Y082385
X015621Y011557
X015494Y024257
X015494Y038481
X015621Y066040
X015494Y079502
X015621Y092837
X015494Y052070
X002540Y011557
X002667Y024257
X003048Y038481
X003048Y052197
X003302Y066167
X003302Y079502
X003302Y092837
M30
