M48
METRIC,LZ,000.000
;FILE_FORMAT=3:3
;TYPE=PLATED
;Layer: PTH_Through
;EasyEDA v6.5.20, 2025-08-31 18:04:55
;4654ec591aaf40839b9ddd4dd84afded,10
;Gerber Generator version 0.2
;Holesize 1 = 0.889 mm
T01C0.889
;Holesize 2 = 0.915 mm
T02C0.915
;Holesize 3 = 1.000 mm
T03C1.000
;Holesize 4 = 1.101 mm
T04C1.101
;Holesize 5 = 1.400 mm
T05C1.400
;Holesize 6 = 1.600 mm
T06C1.600
%
G05
G90
T01
X043815Y069850
X041275Y069850
X038735Y069850
X036195Y069850
X033655Y069850
X043815Y064770
X041275Y064770
X038735Y064770
X036195Y064770
X033655Y064770
X043815Y072390
X041275Y072390
X038735Y072390
X036195Y072390
X033655Y072390
X043815Y067310
X041275Y067310
X038735Y067310
X036195Y067310
X033655Y067310
X043815Y062230
X041275Y062230
X038735Y062230
X036195Y062230
X033655Y062230
X031115Y069850
X028575Y069850
X026035Y069850
X023495Y069850
X020955Y069850
X031115Y072390
X028575Y072390
X026035Y072390
X023495Y072390
X020955Y072390
X031115Y067310
X028575Y067310
X026035Y067310
X023495Y067310
X020955Y067310
X031115Y062230
X028575Y062230
X026035Y062230
X023495Y062230
X020955Y062230
X031115Y064770
X028575Y064770
X026035Y064770
X023495Y064770
X020955Y064770
X043434Y056769
X043434Y054229
X043434Y051689
X043434Y049149
X043434Y046609
X043434Y044069
X043434Y041529
X043434Y038989
X043434Y036449
X043434Y033909
X043434Y031369
X043434Y028829
X043434Y026289
X043434Y023749
X043434Y021209
X021082Y056769
X021082Y054229
X021082Y051689
X021082Y049149
X021082Y046609
X021082Y044069
X021082Y041529
X021082Y038989
X021082Y036449
X021082Y033909
X021082Y031369
X021082Y028829
X021082Y026289
X021082Y023749
X021082Y021209
T02
X039878Y021209
X039878Y023749
X039878Y026289
X039878Y028829
X039878Y031369
X039878Y033909
X039878Y036449
X039878Y038989
X039878Y041529
X039878Y044069
X039878Y046609
X039878Y049149
X039878Y051689
X039878Y054229
X039878Y056769
X024638Y056769
X024638Y054229
X024638Y051689
X024638Y049149
X024638Y046609
X024638Y044069
X024638Y041529
X024638Y038989
X024638Y036449
X024638Y033909
X024638Y031369
X024638Y028829
X024638Y026289
X024638Y023749
X024638Y021209
T03
X037856Y082550
X045456Y082550
X010160Y076623
X010160Y074083
X010160Y071543
X010160Y062823
X010160Y060283
X010160Y057743
X010160Y049022
X010160Y046482
X010160Y043942
X010160Y035221
X010160Y032681
X010160Y030141
X010160Y021421
X010160Y018881
X010160Y016341
X010287Y008763
X010287Y006223
X010287Y003683
X010160Y090424
X010160Y087884
X010160Y085344
T04
X001270Y075184
X001270Y077724
X001270Y060706
X001270Y063246
X001270Y047752
X001270Y050292
X001270Y033401
X001270Y035941
X001270Y019558
X001270Y022098
X001270Y007239
X001270Y009779
X001270Y087884
X001270Y090424
X036917Y007239
X031917Y007239
X023383Y013795G85X020883Y013795
X020883Y007795G85X023383Y007795
X027143Y009495G85X027143Y011995
T05
X027646Y093345
X022646Y093345
X039457Y093345
X034457Y093345
X074041Y085638
X074041Y090638
X073914Y071960
X073914Y076960
X073787Y058371
X073787Y063371
X073787Y044782
X073787Y049782
X073660Y031320
X073660Y036320
X073660Y017731
X073660Y022731
X073660Y004269
X073660Y009269
T06
X067691Y082757
X067691Y092757
X057490Y092757
X057490Y082757
X054991Y087756
X067564Y069079
X067564Y079079
X057363Y079079
X057363Y069079
X054864Y074078
X067437Y055490
X067437Y065490
X057236Y065490
X057236Y055490
X054737Y060489
X067437Y041901
X067437Y051901
X057236Y051901
X057236Y041901
X054737Y046900
X067310Y028439
X067310Y038439
X057109Y038439
X057109Y028439
X054610Y033438
X067310Y014850
X067310Y024850
X057109Y024850
X057109Y014850
X054610Y019849
X067310Y001388
X067310Y011388
X057109Y011388
X057109Y001388
X054610Y006387
M30
