G04 Layer: TopSolderMaskLayer*
G04 EasyEDA v6.5.20, 2025-08-31 18:04:55*
G04 4654ec591aaf40839b9ddd4dd84afded,10*
G04 Gerber Generator version 0.2*
G04 Scale: 100 percent, Rotated: No, Reflected: No *
G04 Dimensions in millimeters *
G04 leading zeros omitted , absolute positions ,4 integer and 5 decimal *
%FSLAX45Y45*%
%MOMM*%

%AMMACRO1*1,1,$1,$2,$3*1,1,$1,$4,$5*1,1,$1,0-$2,0-$3*1,1,$1,0-$4,0-$5*20,1,$1,$2,$3,$4,$5,0*20,1,$1,$4,$5,0-$2,0-$3,0*20,1,$1,0-$2,0-$3,0-$4,0-$5,0*20,1,$1,0-$4,0-$5,$2,$3,0*4,1,4,$2,$3,$4,$5,0-$2,0-$3,0-$4,0-$5,$2,$3,0*%
%ADD10MACRO1,0.1016X0.4X-0.45X-0.4X-0.45*%
%ADD11MACRO1,0.1016X0.4032X0.432X0.4032X-0.432*%
%ADD12MACRO1,0.1016X-0.4032X0.432X-0.4032X-0.432*%
%ADD13MACRO1,0.1016X0.432X-0.4032X-0.432X-0.4032*%
%ADD14MACRO1,0.1016X0.432X0.4032X-0.432X0.4032*%
%ADD15C,1.9016*%
%ADD16C,2.3016*%
%ADD17MACRO1,0.1016X-0.9X-0.9X-0.9X0.9*%
%ADD18MACRO1,0.1016X-0.45X-0.4X-0.45X0.4*%
%ADD19MACRO1,0.1016X-0.4X0.45X0.4X0.45*%
%ADD20MACRO1,0.1016X-0.6X-0.5X-0.6X0.5*%
%ADD21MACRO1,0.1016X-0.432X0.4032X0.432X0.4032*%
%ADD22MACRO1,0.1016X-0.432X-0.4032X0.432X-0.4032*%
%ADD23MACRO1,0.1016X-0.4032X-0.432X-0.4032X0.432*%
%ADD24MACRO1,0.1016X0.4032X-0.432X0.4032X0.432*%
%ADD25O,2.101596X1.0015981999999999*%
%ADD26MACRO1,0.1016X-0.2828X-0.27X-0.2828X0.27*%
%ADD27MACRO1,0.1016X0.2828X-0.27X0.2828X0.27*%
%ADD28MACRO1,0.1016X0.625X-0.35X-0.625X-0.35*%
%ADD29MACRO1,0.1016X0.4X-0.4X-0.4X-0.4*%
%ADD30C,2.6016*%
%ADD31MACRO1,0.1016X0.6X0.5X0.6X-0.5*%
%ADD32MACRO1,0.1016X-0.4X-0.4X-0.4X0.4*%
%ADD33C,2.3000*%
%ADD34C,1.6764*%
%ADD35MACRO1,0.1016X-0.7874X0.7874X0.7874X0.7874*%
%ADD36MACRO1,0.1016X0.336X0.7875X-0.336X0.7875*%
%ADD37MACRO1,0.1016X0.45X0.4X0.45X-0.4*%
%ADD38O,4.3015916X1.7015968000000001*%
%ADD39O,1.7015968000000001X4.3015916*%
%ADD40R,1.6764X1.6764*%
%ADD41C,1.6256*%
%ADD42C,0.0114*%

%LPD*%
D10*
G01*
X2851000Y4648200D03*
G01*
X2990999Y4648200D03*
D11*
G01*
X1512175Y8610600D03*
D12*
G01*
X1662824Y8610600D03*
D10*
G01*
X2851000Y4406900D03*
G01*
X2990999Y4406900D03*
G01*
X2851000Y4152900D03*
G01*
X2990999Y4152900D03*
G01*
X2851000Y3886200D03*
G01*
X2990999Y3886200D03*
G01*
X2851000Y3644900D03*
G01*
X2990999Y3644900D03*
G01*
X2851000Y3378200D03*
G01*
X2990999Y3378200D03*
G01*
X2851000Y3124200D03*
G01*
X2990999Y3124200D03*
D11*
G01*
X1486775Y7162800D03*
D12*
G01*
X1637424Y7162800D03*
D11*
G01*
X1499475Y5816600D03*
D12*
G01*
X1650124Y5816600D03*
D11*
G01*
X1461375Y4394200D03*
D12*
G01*
X1612024Y4394200D03*
D11*
G01*
X1512175Y2997200D03*
D12*
G01*
X1662824Y2997200D03*
D11*
G01*
X1550275Y1676400D03*
D12*
G01*
X1700924Y1676400D03*
D13*
G01*
X1498600Y570624D03*
D14*
G01*
X1498600Y419975D03*
D15*
G01*
X3785615Y8255000D03*
G01*
X4545609Y8255000D03*
D16*
G01*
X2764586Y9334500D03*
G01*
X2264613Y9334500D03*
G01*
X3945686Y9334500D03*
G01*
X3445713Y9334500D03*
D15*
G01*
X127000Y7518400D03*
G01*
X127000Y7772400D03*
G01*
X127000Y6070600D03*
G01*
X127000Y6324600D03*
G01*
X127000Y4775200D03*
G01*
X127000Y5029200D03*
G01*
X127000Y3340100D03*
G01*
X127000Y3594100D03*
G01*
X127000Y1955800D03*
G01*
X127000Y2209800D03*
G01*
X127000Y723900D03*
G01*
X127000Y977900D03*
G01*
X127000Y8788400D03*
G01*
X127000Y9042400D03*
D17*
G01*
X1016002Y7662329D03*
D15*
G01*
X1016000Y7408316D03*
G01*
X1016000Y7154316D03*
D17*
G01*
X1016002Y6282265D03*
D15*
G01*
X1016000Y6028258D03*
G01*
X1016000Y5774258D03*
D17*
G01*
X1016002Y4902200D03*
D15*
G01*
X1016000Y4648200D03*
G01*
X1016000Y4394200D03*
D18*
G01*
X469900Y7245499D03*
G01*
X469900Y7105500D03*
G01*
X482600Y5823099D03*
G01*
X482600Y5683100D03*
G01*
X495300Y4464199D03*
G01*
X495300Y4324200D03*
G01*
X444500Y3092599D03*
G01*
X444500Y2952600D03*
G01*
X444500Y1733699D03*
G01*
X444500Y1593700D03*
D19*
G01*
X844699Y88900D03*
G01*
X704700Y88900D03*
D17*
G01*
X1016002Y3522134D03*
D15*
G01*
X1016000Y3268141D03*
G01*
X1016000Y3014141D03*
D20*
G01*
X558800Y7762290D03*
G01*
X558800Y7452309D03*
G01*
X571500Y6314490D03*
G01*
X571500Y6004509D03*
G01*
X584200Y4930190D03*
G01*
X584200Y4620209D03*
G01*
X571500Y3596690D03*
G01*
X571500Y3286709D03*
G01*
X533400Y2237790D03*
G01*
X533400Y1927809D03*
G01*
X584200Y980490D03*
G01*
X584200Y670509D03*
D17*
G01*
X1016002Y2142065D03*
D15*
G01*
X1016000Y1888058D03*
G01*
X1016000Y1634058D03*
D17*
G01*
X1028700Y876300D03*
D15*
G01*
X1028700Y622300D03*
G01*
X1028700Y368300D03*
D21*
G01*
X647700Y7100175D03*
D22*
G01*
X647700Y7250824D03*
D21*
G01*
X660400Y5665075D03*
D22*
G01*
X660400Y5815724D03*
D21*
G01*
X660400Y4318875D03*
D22*
G01*
X660400Y4469524D03*
D21*
G01*
X622300Y2934575D03*
D22*
G01*
X622300Y3085224D03*
D21*
G01*
X622300Y1588375D03*
D22*
G01*
X622300Y1739024D03*
D23*
G01*
X1180224Y88900D03*
D24*
G01*
X1029575Y88900D03*
D25*
G01*
X666013Y8077200D03*
G01*
X666013Y7950200D03*
G01*
X1366012Y7950200D03*
G01*
X1366012Y8077200D03*
G01*
X678713Y6731000D03*
G01*
X678713Y6604000D03*
G01*
X1378712Y6604000D03*
G01*
X1378712Y6731000D03*
G01*
X704113Y5334000D03*
G01*
X704113Y5207000D03*
G01*
X1404112Y5207000D03*
G01*
X1404112Y5334000D03*
G01*
X704113Y3975100D03*
G01*
X704113Y3848100D03*
G01*
X1404112Y3848100D03*
G01*
X1404112Y3975100D03*
G01*
X653313Y2552700D03*
G01*
X653313Y2425700D03*
G01*
X1353312Y2425700D03*
G01*
X1353312Y2552700D03*
G01*
X640613Y1346200D03*
G01*
X640613Y1219200D03*
G01*
X1340612Y1219200D03*
G01*
X1340612Y1346200D03*
D18*
G01*
X482600Y8578999D03*
G01*
X482600Y8439000D03*
D20*
G01*
X520700Y9095790D03*
G01*
X520700Y8785809D03*
D21*
G01*
X647700Y8433675D03*
D22*
G01*
X647700Y8584324D03*
D25*
G01*
X716813Y9410700D03*
G01*
X716813Y9283700D03*
G01*
X1416812Y9283700D03*
G01*
X1416812Y9410700D03*
D17*
G01*
X1016000Y9042400D03*
D15*
G01*
X1016000Y8788400D03*
G01*
X1016000Y8534400D03*
D26*
G01*
X7117182Y9512300D03*
D27*
G01*
X7030617Y9512300D03*
D13*
G01*
X5257800Y8393824D03*
D14*
G01*
X5257800Y8243175D03*
D28*
G01*
X5068900Y8794496D03*
G01*
X5068900Y8604505D03*
G01*
X5268899Y8699501D03*
D29*
G01*
X5016500Y8949700D03*
G01*
X5016500Y9109699D03*
D30*
G01*
X6769100Y8275701D03*
G01*
X6769100Y9275699D03*
G01*
X5749036Y9275699D03*
G01*
X5749036Y8275701D03*
G01*
X5499100Y8775572D03*
D31*
G01*
X5219700Y9014409D03*
G01*
X5219700Y9324390D03*
D16*
G01*
X7404100Y8563787D03*
G01*
X7404100Y9063786D03*
D21*
G01*
X5092700Y8243175D03*
D22*
G01*
X5092700Y8393824D03*
D23*
G01*
X1650124Y9055100D03*
D24*
G01*
X1499475Y9055100D03*
D32*
G01*
X1680143Y8801110D03*
G01*
X1520243Y8801094D03*
D33*
G01*
X3691686Y723900D03*
G01*
X3191713Y723900D03*
D34*
G01*
X4381500Y6985000D03*
G01*
X4127500Y6985000D03*
G01*
X3873500Y6985000D03*
G01*
X3619500Y6985000D03*
D35*
G01*
X3365500Y6985000D03*
D34*
G01*
X4381500Y6477000D03*
G01*
X4127500Y6477000D03*
G01*
X3873500Y6477000D03*
G01*
X3619500Y6477000D03*
D35*
G01*
X3365500Y6477000D03*
D34*
G01*
X4381500Y7239000D03*
G01*
X4127500Y7239000D03*
G01*
X3873500Y7239000D03*
G01*
X3619500Y7239000D03*
D35*
G01*
X3365500Y7239000D03*
D34*
G01*
X4381500Y6731000D03*
G01*
X4127500Y6731000D03*
G01*
X3873500Y6731000D03*
G01*
X3619500Y6731000D03*
D35*
G01*
X3365500Y6731000D03*
D34*
G01*
X4381500Y6223000D03*
G01*
X4127500Y6223000D03*
G01*
X3873500Y6223000D03*
G01*
X3619500Y6223000D03*
D35*
G01*
X3365500Y6223000D03*
D34*
G01*
X3111500Y6985000D03*
G01*
X2857500Y6985000D03*
G01*
X2603500Y6985000D03*
G01*
X2349500Y6985000D03*
D35*
G01*
X2095500Y6985000D03*
D34*
G01*
X3111500Y7239000D03*
G01*
X2857500Y7239000D03*
G01*
X2603500Y7239000D03*
G01*
X2349500Y7239000D03*
D35*
G01*
X2095500Y7239000D03*
D34*
G01*
X3111500Y6731000D03*
G01*
X2857500Y6731000D03*
G01*
X2603500Y6731000D03*
G01*
X2349500Y6731000D03*
D35*
G01*
X2095500Y6731000D03*
D34*
G01*
X3111500Y6223000D03*
G01*
X2857500Y6223000D03*
G01*
X2603500Y6223000D03*
G01*
X2349500Y6223000D03*
D35*
G01*
X2095500Y6223000D03*
D34*
G01*
X3111500Y6477000D03*
G01*
X2857500Y6477000D03*
G01*
X2603500Y6477000D03*
G01*
X2349500Y6477000D03*
D35*
G01*
X2095500Y6477000D03*
D23*
G01*
X1650124Y7645400D03*
D24*
G01*
X1499475Y7645400D03*
D32*
G01*
X1667443Y7391410D03*
G01*
X1507543Y7391394D03*
D23*
G01*
X1637424Y6299200D03*
D24*
G01*
X1486775Y6299200D03*
D32*
G01*
X1654743Y6045210D03*
G01*
X1494843Y6045194D03*
D23*
G01*
X1612024Y4902200D03*
D24*
G01*
X1461375Y4902200D03*
D32*
G01*
X1616643Y4622810D03*
G01*
X1456743Y4622794D03*
D23*
G01*
X1675524Y3517900D03*
D24*
G01*
X1524875Y3517900D03*
D32*
G01*
X1667443Y3238510D03*
G01*
X1507543Y3238494D03*
D23*
G01*
X1637424Y2120900D03*
D24*
G01*
X1486775Y2120900D03*
D32*
G01*
X1654743Y1879610D03*
G01*
X1494843Y1879594D03*
D23*
G01*
X1612024Y952500D03*
D24*
G01*
X1461375Y952500D03*
D32*
G01*
X1616643Y774710D03*
G01*
X1456743Y774694D03*
D36*
G01*
X4531486Y1126230D03*
G01*
X4231487Y1126230D03*
G36*
X4379213Y662178D02*
G01*
X4374388Y662431D01*
X4369815Y662939D01*
X4360672Y664463D01*
X4356100Y665479D01*
X4351527Y667004D01*
X4346956Y668273D01*
X4342638Y670052D01*
X4338320Y672084D01*
X4334256Y674115D01*
X4330191Y676402D01*
X4326127Y678942D01*
X4322318Y681736D01*
X4318761Y684529D01*
X4314952Y687578D01*
X4311650Y690626D01*
X4308347Y694181D01*
X4305300Y697484D01*
X4302252Y701294D01*
X4299458Y705104D01*
X4296918Y708913D01*
X4292345Y717042D01*
X4290313Y721360D01*
X4286758Y729995D01*
X4284218Y739139D01*
X4283202Y743712D01*
X4282440Y748284D01*
X4281931Y752855D01*
X4281677Y757681D01*
X4281424Y762254D01*
X4281424Y947673D01*
X4281677Y952500D01*
X4281931Y957071D01*
X4282440Y961644D01*
X4283202Y966470D01*
X4284218Y971042D01*
X4285488Y975360D01*
X4286758Y979931D01*
X4290313Y988568D01*
X4292345Y992886D01*
X4296918Y1001013D01*
X4299458Y1005078D01*
X4302252Y1008634D01*
X4305300Y1012444D01*
X4308347Y1016000D01*
X4311650Y1019302D01*
X4314952Y1022350D01*
X4318761Y1025397D01*
X4322318Y1028445D01*
X4326127Y1030986D01*
X4330191Y1033526D01*
X4334256Y1035812D01*
X4338827Y1038097D01*
X4343400Y1039113D01*
X4343400Y1210055D01*
X4419600Y1210055D01*
X4419600Y1039113D01*
X4424172Y1038097D01*
X4428743Y1035812D01*
X4432808Y1033526D01*
X4436872Y1030986D01*
X4440681Y1028445D01*
X4444491Y1025397D01*
X4448047Y1022350D01*
X4451350Y1019302D01*
X4454652Y1016000D01*
X4457700Y1012444D01*
X4460747Y1008634D01*
X4463541Y1005078D01*
X4468622Y996950D01*
X4470654Y992886D01*
X4472686Y988568D01*
X4476241Y979931D01*
X4477511Y975360D01*
X4478781Y971042D01*
X4479797Y966470D01*
X4480559Y961644D01*
X4481068Y957071D01*
X4481322Y952500D01*
X4481575Y947673D01*
X4481575Y762254D01*
X4481322Y757681D01*
X4481068Y752855D01*
X4480559Y748284D01*
X4479797Y743712D01*
X4478781Y739139D01*
X4476241Y729995D01*
X4472686Y721360D01*
X4470654Y717042D01*
X4468622Y712978D01*
X4466081Y708913D01*
X4463541Y705104D01*
X4460747Y701294D01*
X4457700Y697484D01*
X4454652Y694181D01*
X4451350Y690626D01*
X4448047Y687578D01*
X4444491Y684529D01*
X4436872Y678942D01*
X4432808Y676402D01*
X4428743Y674115D01*
X4424679Y672084D01*
X4420361Y670052D01*
X4416043Y668273D01*
X4411472Y667004D01*
X4406900Y665479D01*
X4402581Y664463D01*
X4397756Y663702D01*
X4393184Y662939D01*
X4388611Y662431D01*
X4383786Y662178D01*
G37*
D37*
G01*
X4546600Y1365100D03*
G01*
X4546600Y1505099D03*
G01*
X4203700Y1365100D03*
G01*
X4203700Y1505099D03*
D26*
G01*
X7447382Y8102600D03*
D27*
G01*
X7360817Y8102600D03*
D13*
G01*
X5245100Y7026034D03*
D14*
G01*
X5245100Y6875385D03*
D28*
G01*
X5056200Y7426706D03*
G01*
X5056200Y7236715D03*
G01*
X5256199Y7331711D03*
D29*
G01*
X5003800Y7581910D03*
G01*
X5003800Y7741909D03*
D30*
G01*
X6756400Y6907911D03*
G01*
X6756400Y7907909D03*
G01*
X5736336Y7907909D03*
G01*
X5736336Y6907911D03*
G01*
X5486400Y7407783D03*
D31*
G01*
X5207000Y7646619D03*
G01*
X5207000Y7956600D03*
D16*
G01*
X7391400Y7195997D03*
G01*
X7391400Y7695996D03*
D21*
G01*
X5080000Y6875385D03*
D22*
G01*
X5080000Y7026034D03*
D26*
G01*
X7447382Y6769100D03*
D27*
G01*
X7360817Y6769100D03*
D13*
G01*
X5232400Y5667134D03*
D14*
G01*
X5232400Y5516485D03*
D28*
G01*
X5043500Y6067806D03*
G01*
X5043500Y5877815D03*
G01*
X5243499Y5972811D03*
D29*
G01*
X4991100Y6223010D03*
G01*
X4991100Y6383009D03*
D30*
G01*
X6743700Y5549011D03*
G01*
X6743700Y6549009D03*
G01*
X5723636Y6549009D03*
G01*
X5723636Y5549011D03*
G01*
X5473700Y6048882D03*
D31*
G01*
X5194300Y6287719D03*
G01*
X5194300Y6597700D03*
D16*
G01*
X7378700Y5837097D03*
G01*
X7378700Y6337096D03*
D21*
G01*
X5067300Y5516485D03*
D22*
G01*
X5067300Y5667134D03*
D26*
G01*
X7409282Y5422900D03*
D27*
G01*
X7322717Y5422900D03*
D13*
G01*
X5232400Y4308234D03*
D14*
G01*
X5232400Y4157585D03*
D28*
G01*
X5043500Y4708906D03*
G01*
X5043500Y4518915D03*
G01*
X5243499Y4613911D03*
D29*
G01*
X4991100Y4864110D03*
G01*
X4991100Y5024109D03*
D30*
G01*
X6743700Y4190111D03*
G01*
X6743700Y5190109D03*
G01*
X5723636Y5190109D03*
G01*
X5723636Y4190111D03*
G01*
X5473700Y4689982D03*
D31*
G01*
X5194300Y4928819D03*
G01*
X5194300Y5238800D03*
D16*
G01*
X7378700Y4478197D03*
G01*
X7378700Y4978196D03*
D21*
G01*
X5067300Y4157585D03*
D22*
G01*
X5067300Y4308234D03*
D26*
G01*
X7421982Y4064000D03*
D27*
G01*
X7335417Y4064000D03*
D13*
G01*
X5219700Y2962034D03*
D14*
G01*
X5219700Y2811385D03*
D28*
G01*
X5030800Y3362706D03*
G01*
X5030800Y3172715D03*
G01*
X5230799Y3267711D03*
D29*
G01*
X4978400Y3517910D03*
G01*
X4978400Y3677909D03*
D30*
G01*
X6731000Y2843911D03*
G01*
X6731000Y3843909D03*
G01*
X5710936Y3843909D03*
G01*
X5710936Y2843911D03*
G01*
X5461000Y3343782D03*
D31*
G01*
X5181600Y3582619D03*
G01*
X5181600Y3892600D03*
D16*
G01*
X7366000Y3131997D03*
G01*
X7366000Y3631996D03*
D21*
G01*
X5054600Y2811385D03*
D22*
G01*
X5054600Y2962034D03*
D26*
G01*
X7409282Y2692400D03*
D27*
G01*
X7322717Y2692400D03*
D13*
G01*
X5219700Y1603134D03*
D14*
G01*
X5219700Y1452485D03*
D28*
G01*
X5030800Y2003806D03*
G01*
X5030800Y1813815D03*
G01*
X5230799Y1908811D03*
D29*
G01*
X4978400Y2159010D03*
G01*
X4978400Y2319009D03*
D30*
G01*
X6731000Y1485011D03*
G01*
X6731000Y2485009D03*
G01*
X5710936Y2485009D03*
G01*
X5710936Y1485011D03*
G01*
X5461000Y1984882D03*
D31*
G01*
X5181600Y2223719D03*
G01*
X5181600Y2533700D03*
D16*
G01*
X7366000Y1773097D03*
G01*
X7366000Y2273096D03*
D21*
G01*
X5054600Y1452485D03*
D22*
G01*
X5054600Y1603134D03*
D26*
G01*
X7396582Y1371600D03*
D27*
G01*
X7310017Y1371600D03*
D13*
G01*
X5219700Y256934D03*
D14*
G01*
X5219700Y106285D03*
D28*
G01*
X5030800Y657606D03*
G01*
X5030800Y467615D03*
G01*
X5230799Y562611D03*
D29*
G01*
X4978400Y812810D03*
G01*
X4978400Y972809D03*
D30*
G01*
X6731000Y138811D03*
G01*
X6731000Y1138809D03*
G01*
X5710936Y1138809D03*
G01*
X5710936Y138811D03*
G01*
X5461000Y638682D03*
D31*
G01*
X5181600Y877519D03*
G01*
X5181600Y1187500D03*
D16*
G01*
X7366000Y426897D03*
G01*
X7366000Y926896D03*
D21*
G01*
X5054600Y106285D03*
D22*
G01*
X5054600Y256934D03*
D38*
G01*
X2213305Y1379499D03*
G01*
X2213305Y779500D03*
D39*
G01*
X2714294Y1074496D03*
D34*
G01*
X4343400Y5676900D03*
G01*
X4343400Y5422900D03*
G01*
X4343400Y5168900D03*
G01*
X4343400Y4914900D03*
G01*
X4343400Y4660900D03*
G01*
X4343400Y4406900D03*
G01*
X4343400Y4152900D03*
G01*
X4343400Y3898900D03*
G01*
X4343400Y3644900D03*
G01*
X4343400Y3390900D03*
G01*
X4343400Y3136900D03*
G01*
X4343400Y2882900D03*
G01*
X4343400Y2628900D03*
G01*
X4343400Y2374900D03*
D40*
G01*
X4343400Y2120900D03*
D34*
G01*
X2108200Y5676900D03*
G01*
X2108200Y5422900D03*
G01*
X2108200Y5168900D03*
G01*
X2108200Y4914900D03*
G01*
X2108200Y4660900D03*
G01*
X2108200Y4406900D03*
G01*
X2108200Y4152900D03*
G01*
X2108200Y3898900D03*
G01*
X2108200Y3644900D03*
G01*
X2108200Y3390900D03*
G01*
X2108200Y3136900D03*
G01*
X2108200Y2882900D03*
G01*
X2108200Y2628900D03*
G01*
X2108200Y2374900D03*
D40*
G01*
X2108200Y2120900D03*
D41*
G01*
X3987800Y2120900D03*
G01*
X3987800Y2374900D03*
G01*
X3987800Y2628900D03*
G01*
X3987800Y2882900D03*
G01*
X3987800Y3136900D03*
G01*
X3987800Y3390900D03*
G01*
X3987800Y3644900D03*
G01*
X3987800Y3898900D03*
G01*
X3987800Y4152900D03*
G01*
X3987800Y4406900D03*
G01*
X3987800Y4660900D03*
G01*
X3987800Y4914900D03*
G01*
X3987800Y5168900D03*
G01*
X3987800Y5422900D03*
G01*
X3987800Y5676900D03*
G01*
X2463800Y5676900D03*
G01*
X2463800Y5422900D03*
G01*
X2463800Y5168900D03*
G01*
X2463800Y4914900D03*
G01*
X2463800Y4660900D03*
G01*
X2463800Y4406900D03*
G01*
X2463800Y4152900D03*
G01*
X2463800Y3898900D03*
G01*
X2463800Y3644900D03*
G01*
X2463800Y3390900D03*
G01*
X2463800Y3136900D03*
G01*
X2463800Y2882900D03*
G01*
X2463800Y2628900D03*
G01*
X2463800Y2374900D03*
G01*
X2463800Y2120900D03*
M02*
