M48
METRIC,LZ,000.000
;FILE_FORMAT=3:3
;TYPE=PLATED
;Layer: PTH_Through
;EasyEDA v6.5.22, 2025-01-04 22:24:20
;4654ec591aaf40839b9ddd4dd84afded,10
;Gerber Generator version 0.2
;Holesize 1 = 0.915 mm
T01C0.915
;Holesize 2 = 1.000 mm
T02C1.000
;Holesize 3 = 1.016 mm
T03C1.016
;Holesize 4 = 1.050 mm
T04C1.050
;Holesize 5 = 1.101 mm
T05C1.101
;Holesize 6 = 1.200 mm
T06C1.200
%
G05
G90
T01
X036195Y035306
X036195Y048006
X033655Y035306
X031115Y035306
X028575Y035306
X026035Y035306
X023495Y035306
X020955Y035306
X018415Y035306
X033655Y048006
X031115Y048006
X028575Y048006
X026035Y048006
X023495Y048006
X020955Y048006
X018415Y048006
T02
X003048Y038693
X003048Y036153
X003048Y033613
X007521Y053721
X011021Y053721
X003048Y012531
X003048Y009991
X003048Y007451
X003048Y021251
X003048Y018711
X003048Y016171
X003048Y029972
X003048Y027432
X003048Y024892
T03
X035560Y004318
X035560Y006858
X035560Y009398
X035560Y011938
X035560Y014478
X035560Y017018
X035560Y019558
X035560Y022098
X035560Y024638
X035560Y027178
X035560Y029718
X035560Y032258
X020320Y032258
X020320Y029718
X020320Y027178
X020320Y024638
X020320Y022098
X020320Y019558
X020320Y017018
X020320Y014478
X020320Y011938
X020320Y009398
X020320Y006858
X020320Y004318
T04
X038354Y032258
X038354Y029718
X038354Y027178
X038354Y024638
X038354Y022098
X038354Y019558
X038354Y017018
X038354Y014478
X038354Y011938
X038354Y009398
X038354Y006858
X038354Y004318
X017653Y032258
X017653Y029718
X017653Y027178
X017653Y024638
X017653Y022098
X017653Y019558
X017653Y017018
X017653Y014478
X017653Y011938
X017653Y009398
X017653Y006858
X017653Y004318
T05
X023555Y050546
X026057Y050546
X028556Y050546
X031055Y050546
X045085Y017225
X045085Y014685
X044958Y032766
X044958Y030226
X045847Y051435
X048387Y051435
X040005Y051816
X042545Y051816
T06
X013641Y044153G85X013641Y046653
X007441Y046653G85X007441Y044153
X009391Y040703G85X011891Y040703
X007545Y036413
X014045Y036413
X007545Y031913
X014045Y031913
X007672Y029174
X014172Y029174
X007672Y024674
X014172Y024674
X007672Y011775
X014172Y011775
X007672Y007275
X014172Y007275
X007545Y020284
X014045Y020284
X007545Y015784
X014045Y015784
M30
