G04 Layer: TopSilkscreenLayer*
G04 EasyEDA v6.5.22, 2025-01-04 22:24:20*
G04 4654ec591aaf40839b9ddd4dd84afded,10*
G04 Gerber Generator version 0.2*
G04 Scale: 100 percent, Rotated: No, Reflected: No *
G04 Dimensions in millimeters *
G04 leading zeros omitted , absolute positions ,4 integer and 5 decimal *
%FSLAX45Y45*%
%MOMM*%

%ADD10C,0.1524*%
%ADD11C,0.2032*%
%ADD12C,0.2540*%
%ADD13C,0.1520*%
%ADD14C,0.2030*%
%ADD15C,0.1500*%
%ADD16C,0.0129*%

%LPD*%
G36*
X579628Y634492D02*
G01*
X545338Y625094D01*
X545338Y618490D01*
X563880Y616712D01*
X563880Y563880D01*
X556920Y570839D01*
X549757Y575310D01*
X542340Y577646D01*
X534670Y578358D01*
X529640Y578104D01*
X524764Y577342D01*
X520090Y576072D01*
X515670Y574344D01*
X511505Y572160D01*
X507593Y569569D01*
X503935Y566470D01*
X500634Y562965D01*
X497636Y559104D01*
X494944Y554837D01*
X492658Y550164D01*
X490728Y545134D01*
X489204Y539750D01*
X488086Y534060D01*
X487426Y528066D01*
X487192Y522224D01*
X506730Y522224D01*
X507034Y529844D01*
X507898Y536651D01*
X509270Y542747D01*
X511098Y548081D01*
X513435Y552754D01*
X516128Y556717D01*
X519176Y560019D01*
X522579Y562660D01*
X526237Y564642D01*
X530148Y566064D01*
X534212Y566928D01*
X538480Y567182D01*
X544118Y566623D01*
X550113Y564692D01*
X556564Y561086D01*
X563626Y555498D01*
X563626Y490982D01*
X557377Y485089D01*
X551281Y481228D01*
X545033Y479145D01*
X538226Y478535D01*
X533806Y478790D01*
X529640Y479653D01*
X525678Y481025D01*
X522020Y483057D01*
X518718Y485648D01*
X515721Y488848D01*
X513080Y492709D01*
X510895Y497230D01*
X509117Y502412D01*
X507796Y508304D01*
X506984Y514908D01*
X506730Y522224D01*
X487192Y522224D01*
X487527Y513791D01*
X488696Y506374D01*
X490474Y499465D01*
X492963Y493115D01*
X496112Y487324D01*
X499821Y482193D01*
X504139Y477774D01*
X508965Y474014D01*
X514299Y471068D01*
X520090Y468884D01*
X526288Y467563D01*
X532892Y467106D01*
X542442Y468172D01*
X550722Y471271D01*
X557834Y476199D01*
X564134Y482854D01*
X565404Y467614D01*
X599948Y469900D01*
X599948Y476758D01*
X581914Y478790D01*
X581914Y601218D01*
X582422Y632968D01*
G37*
G36*
X277114Y622300D02*
G01*
X270510Y622046D01*
X264109Y621334D01*
X257962Y620166D01*
X252069Y618540D01*
X246379Y616458D01*
X240995Y614019D01*
X235864Y611124D01*
X231089Y607872D01*
X226567Y604266D01*
X222402Y600303D01*
X218541Y595985D01*
X215036Y591362D01*
X211886Y586435D01*
X209143Y581202D01*
X206756Y575665D01*
X204774Y569925D01*
X203200Y563930D01*
X202082Y557682D01*
X201422Y551230D01*
X201168Y544576D01*
X201371Y537819D01*
X202082Y531266D01*
X203149Y524967D01*
X204673Y518922D01*
X206654Y513080D01*
X208940Y507593D01*
X211683Y502310D01*
X214782Y497382D01*
X218186Y492759D01*
X221996Y488442D01*
X226110Y484479D01*
X230581Y480872D01*
X235356Y477621D01*
X240385Y474776D01*
X245770Y472338D01*
X251358Y470306D01*
X257251Y468731D01*
X263398Y467563D01*
X269748Y466851D01*
X276352Y466598D01*
X283057Y466801D01*
X289458Y467461D01*
X295656Y468528D01*
X301650Y470052D01*
X307543Y471881D01*
X313334Y474116D01*
X319074Y476656D01*
X324866Y479551D01*
X325018Y511098D01*
X325374Y531876D01*
X338836Y533146D01*
X338836Y540766D01*
X280924Y540766D01*
X280924Y533146D01*
X304546Y531368D01*
X304800Y480822D01*
X298754Y478840D01*
X292658Y477520D01*
X286410Y476758D01*
X279908Y476504D01*
X273659Y476808D01*
X267766Y477672D01*
X262128Y479145D01*
X256844Y481126D01*
X251917Y483717D01*
X247345Y486765D01*
X243128Y490423D01*
X239318Y494538D01*
X235915Y499160D01*
X232917Y504291D01*
X230327Y509879D01*
X228193Y515924D01*
X226517Y522427D01*
X225298Y529386D01*
X224536Y536803D01*
X224282Y544576D01*
X224536Y552450D01*
X225348Y559917D01*
X226618Y566877D01*
X228396Y573430D01*
X230632Y579475D01*
X233273Y585114D01*
X236372Y590194D01*
X239826Y594817D01*
X243687Y598932D01*
X247904Y602488D01*
X252425Y605536D01*
X257302Y608076D01*
X262432Y610057D01*
X267868Y611479D01*
X273507Y612343D01*
X279400Y612648D01*
X286054Y612241D01*
X292455Y611073D01*
X298602Y608990D01*
X304546Y606044D01*
X309880Y578358D01*
X322072Y578358D01*
X321564Y611378D01*
X316890Y613968D01*
X312064Y616204D01*
X307035Y618083D01*
X301701Y619607D01*
X296113Y620776D01*
X290169Y621639D01*
X283870Y622147D01*
G37*
G36*
X425958Y578358D02*
G01*
X420776Y578002D01*
X415493Y576935D01*
X410260Y575208D01*
X405079Y572820D01*
X399999Y569874D01*
X395071Y566369D01*
X390448Y562305D01*
X386080Y557784D01*
X384048Y576072D01*
X381000Y578104D01*
X349758Y565912D01*
X349758Y559308D01*
X367538Y557530D01*
X368046Y528320D01*
X367792Y479298D01*
X351282Y476758D01*
X351282Y469900D01*
X402336Y469900D01*
X402336Y476758D01*
X387096Y479298D01*
X386588Y516635D01*
X386588Y549656D01*
X394970Y556361D01*
X402742Y560933D01*
X410209Y563575D01*
X417576Y564388D01*
X422148Y564032D01*
X426059Y563016D01*
X429259Y561136D01*
X431800Y558444D01*
X433730Y554786D01*
X435101Y550113D01*
X435864Y544372D01*
X436118Y537464D01*
X435864Y479298D01*
X419354Y476758D01*
X419354Y469900D01*
X470408Y469900D01*
X470408Y476758D01*
X454914Y479298D01*
X454406Y516635D01*
X454406Y537972D01*
X453948Y547928D01*
X452628Y556412D01*
X450443Y563372D01*
X447344Y568909D01*
X443331Y573125D01*
X438454Y576072D01*
X432663Y577799D01*
G37*
G36*
X4248912Y1400962D02*
G01*
X4243425Y1400708D01*
X4238091Y1400048D01*
X4233011Y1398879D01*
X4228134Y1397254D01*
X4223613Y1395120D01*
X4219397Y1392580D01*
X4215587Y1389532D01*
X4212234Y1386078D01*
X4209338Y1382115D01*
X4207002Y1377696D01*
X4205274Y1372768D01*
X4204208Y1367434D01*
X4206189Y1364640D01*
X4208678Y1362456D01*
X4211675Y1361084D01*
X4215130Y1360576D01*
X4218990Y1361338D01*
X4222242Y1363726D01*
X4224985Y1368094D01*
X4227322Y1374546D01*
X4231640Y1390802D01*
X4238244Y1391920D01*
X4243578Y1392326D01*
X4249521Y1391767D01*
X4254906Y1390040D01*
X4259580Y1387297D01*
X4263542Y1383588D01*
X4266742Y1379016D01*
X4269079Y1373581D01*
X4270502Y1367434D01*
X4271010Y1360576D01*
X4270756Y1356156D01*
X4270146Y1351686D01*
X4269079Y1347266D01*
X4267555Y1342745D01*
X4265574Y1338122D01*
X4263186Y1333449D01*
X4260291Y1328572D01*
X4256989Y1323543D01*
X4248962Y1312875D01*
X4231335Y1292352D01*
X4205224Y1262786D01*
X4205224Y1249070D01*
X4296664Y1249070D01*
X4296664Y1266342D01*
X4219448Y1266342D01*
X4245610Y1293266D01*
X4260545Y1309065D01*
X4272076Y1322171D01*
X4276648Y1327912D01*
X4280509Y1333246D01*
X4283659Y1338275D01*
X4286148Y1343050D01*
X4288028Y1347673D01*
X4289298Y1352245D01*
X4290060Y1356868D01*
X4290314Y1361592D01*
X4290009Y1367231D01*
X4289196Y1372514D01*
X4287875Y1377492D01*
X4285945Y1382064D01*
X4283456Y1386230D01*
X4280357Y1389938D01*
X4276648Y1393190D01*
X4272381Y1395882D01*
X4267454Y1398066D01*
X4261916Y1399641D01*
X4255719Y1400606D01*
G37*
G36*
X4147565Y1400200D02*
G01*
X4101846Y1388262D01*
X4101846Y1380642D01*
X4131564Y1383436D01*
X4131513Y1287119D01*
X4131056Y1260500D01*
X4099306Y1255928D01*
X4099306Y1249070D01*
X4181601Y1249070D01*
X4181601Y1255928D01*
X4150106Y1260500D01*
X4149851Y1365910D01*
X4150614Y1397914D01*
G37*
G36*
X4308602Y1397914D02*
G01*
X4308602Y1390294D01*
X4325620Y1388516D01*
X4377690Y1247546D01*
X4386834Y1247546D01*
X4433570Y1387754D01*
X4452874Y1390548D01*
X4452874Y1397914D01*
X4402074Y1397914D01*
X4402074Y1389532D01*
X4422394Y1387500D01*
X4386326Y1275740D01*
X4347210Y1387754D01*
X4369054Y1389532D01*
X4369054Y1397914D01*
G37*
G36*
X4018026Y1377340D02*
G01*
X4018026Y1327810D01*
X3971290Y1327810D01*
X3971290Y1317142D01*
X4018026Y1317142D01*
X4018026Y1266850D01*
X4029710Y1266850D01*
X4029710Y1317142D01*
X4076192Y1317142D01*
X4076192Y1327810D01*
X4029710Y1327810D01*
X4029710Y1377340D01*
G37*
G36*
X4031183Y3095294D02*
G01*
X4031183Y3044494D01*
X4039565Y3044494D01*
X4041597Y3064814D01*
X4153306Y3028746D01*
X4041292Y2989630D01*
X4039565Y3011474D01*
X4031183Y3011474D01*
X4031183Y2951022D01*
X4038752Y2951022D01*
X4040581Y2968040D01*
X4181551Y3020110D01*
X4181551Y3029254D01*
X4041292Y3075990D01*
X4038549Y3095294D01*
G37*
G36*
X4162704Y2939084D02*
G01*
X4162704Y2861868D01*
X4135831Y2888030D01*
X4119981Y2903016D01*
X4106926Y2914548D01*
X4101185Y2919120D01*
X4095851Y2922981D01*
X4090822Y2926130D01*
X4086047Y2928620D01*
X4081424Y2930499D01*
X4076852Y2931769D01*
X4072229Y2932531D01*
X4067454Y2932734D01*
X4061866Y2932480D01*
X4056532Y2931668D01*
X4051554Y2930296D01*
X4046982Y2928416D01*
X4042816Y2925876D01*
X4039108Y2922828D01*
X4035907Y2919120D01*
X4033164Y2914853D01*
X4031030Y2909925D01*
X4029405Y2904388D01*
X4028440Y2898190D01*
X4028135Y2891332D01*
X4028338Y2885897D01*
X4029049Y2880563D01*
X4030218Y2875483D01*
X4031843Y2870606D01*
X4033926Y2866085D01*
X4036517Y2861868D01*
X4039514Y2858058D01*
X4043019Y2854655D01*
X4046982Y2851810D01*
X4051401Y2849473D01*
X4056278Y2847746D01*
X4061663Y2846628D01*
X4064406Y2848660D01*
X4066590Y2851150D01*
X4068013Y2854147D01*
X4068470Y2857550D01*
X4067759Y2861462D01*
X4065320Y2864713D01*
X4061002Y2867456D01*
X4054551Y2869742D01*
X4038295Y2874060D01*
X4037126Y2880715D01*
X4036720Y2885998D01*
X4037329Y2891993D01*
X4039006Y2897378D01*
X4041749Y2902051D01*
X4045458Y2906014D01*
X4050080Y2909214D01*
X4055516Y2911500D01*
X4061663Y2912973D01*
X4068470Y2913430D01*
X4072940Y2913227D01*
X4077360Y2912618D01*
X4081830Y2911500D01*
X4086351Y2910027D01*
X4090924Y2908046D01*
X4095648Y2905658D01*
X4105503Y2899460D01*
X4116222Y2891383D01*
X4136694Y2873806D01*
X4166311Y2847644D01*
X4180027Y2847644D01*
X4180027Y2939084D01*
G37*
G36*
X4173118Y2824022D02*
G01*
X4168597Y2792526D01*
X4141978Y2792323D01*
X4063136Y2792272D01*
X4031183Y2793034D01*
X4028897Y2789986D01*
X4040835Y2744266D01*
X4048404Y2744266D01*
X4045661Y2773984D01*
X4141978Y2773934D01*
X4168597Y2773476D01*
X4173118Y2741726D01*
X4180027Y2741726D01*
X4180027Y2824022D01*
G37*
G36*
X4101236Y2718612D02*
G01*
X4101236Y2672130D01*
X4051706Y2672130D01*
X4051706Y2660446D01*
X4101236Y2660446D01*
X4101236Y2613710D01*
X4111904Y2613710D01*
X4111904Y2660446D01*
X4162247Y2660446D01*
X4162247Y2672130D01*
X4111904Y2672130D01*
X4111904Y2718612D01*
G37*
G36*
X4128770Y3640582D02*
G01*
X4122623Y3640480D01*
X4110634Y3639565D01*
X4104843Y3638804D01*
X4099153Y3637787D01*
X4088028Y3635044D01*
X4082592Y3633317D01*
X4072077Y3629151D01*
X4066946Y3626764D01*
X4056887Y3621176D01*
X4047185Y3614674D01*
X4042460Y3611067D01*
X4033164Y3603091D01*
X4024122Y3594100D01*
X4027932Y3589528D01*
X4034840Y3594252D01*
X4041546Y3598519D01*
X4054449Y3605885D01*
X4060647Y3609035D01*
X4066794Y3611829D01*
X4072839Y3614267D01*
X4084828Y3618179D01*
X4090822Y3619703D01*
X4096867Y3620973D01*
X4109212Y3622700D01*
X4115562Y3623208D01*
X4128770Y3623564D01*
X4141876Y3623208D01*
X4154373Y3621989D01*
X4160469Y3621024D01*
X4172458Y3618280D01*
X4178452Y3616451D01*
X4184396Y3614369D01*
X4190492Y3611930D01*
X4196588Y3609136D01*
X4209237Y3602482D01*
X4222597Y3594303D01*
X4229608Y3589528D01*
X4233164Y3594100D01*
X4224172Y3603091D01*
X4214926Y3611067D01*
X4205325Y3618026D01*
X4200448Y3621176D01*
X4190390Y3626764D01*
X4180027Y3631336D01*
X4174693Y3633317D01*
X4169308Y3635044D01*
X4158183Y3637787D01*
X4152493Y3638804D01*
X4140809Y3640124D01*
X4134865Y3640480D01*
G37*
G36*
X4128008Y3583178D02*
G01*
X4128008Y3531362D01*
X4141215Y3531362D01*
X4141215Y3583178D01*
G37*
G36*
X4027932Y3525265D02*
G01*
X4024122Y3520694D01*
X4033164Y3511753D01*
X4042460Y3503777D01*
X4052011Y3496767D01*
X4056887Y3493617D01*
X4061866Y3490722D01*
X4072077Y3485642D01*
X4077309Y3483457D01*
X4088028Y3479800D01*
X4099153Y3477056D01*
X4110634Y3475228D01*
X4116578Y3474669D01*
X4128770Y3474212D01*
X4140809Y3474669D01*
X4146702Y3475228D01*
X4158183Y3477056D01*
X4169308Y3479800D01*
X4180027Y3483457D01*
X4185259Y3485642D01*
X4195470Y3490722D01*
X4200448Y3493617D01*
X4210151Y3500170D01*
X4214926Y3503777D01*
X4219600Y3507638D01*
X4228693Y3516122D01*
X4233164Y3520694D01*
X4229608Y3525265D01*
X4222699Y3520541D01*
X4209440Y3512312D01*
X4203039Y3508756D01*
X4196842Y3505606D01*
X4190695Y3502812D01*
X4184650Y3500374D01*
X4178604Y3498240D01*
X4172610Y3496411D01*
X4166615Y3494887D01*
X4160570Y3493617D01*
X4148226Y3491890D01*
X4135424Y3491077D01*
X4122064Y3491077D01*
X4109212Y3491890D01*
X4103014Y3492601D01*
X4096918Y3493566D01*
X4090873Y3494786D01*
X4084878Y3496310D01*
X4078935Y3498138D01*
X4072940Y3500272D01*
X4066895Y3502710D01*
X4060748Y3505504D01*
X4054551Y3508654D01*
X4041648Y3516172D01*
X4034891Y3520490D01*
G37*
G36*
X4181856Y3454908D02*
G01*
X4176776Y3450590D01*
X4179570Y3446526D01*
X4181551Y3442817D01*
X4182719Y3439160D01*
X4183126Y3435350D01*
X4182211Y3430015D01*
X4179265Y3425951D01*
X4174134Y3423310D01*
X4166615Y3422396D01*
X4094734Y3422396D01*
X4094734Y3452622D01*
X4085082Y3452622D01*
X4085082Y3422650D01*
X4054348Y3423920D01*
X4054348Y3411220D01*
X4084320Y3405124D01*
X4086860Y3385312D01*
X4094734Y3385312D01*
X4094734Y3404108D01*
X4167378Y3403854D01*
X4173575Y3404311D01*
X4178909Y3405581D01*
X4183379Y3407664D01*
X4186986Y3410559D01*
X4189780Y3414217D01*
X4191762Y3418535D01*
X4192879Y3423564D01*
X4193286Y3429254D01*
X4192524Y3437331D01*
X4190237Y3444290D01*
X4186631Y3450183D01*
G37*
G36*
X4183887Y3375151D02*
G01*
X4181348Y3359912D01*
X4117086Y3359912D01*
X4085590Y3360420D01*
X4083304Y3358387D01*
X4086860Y3326384D01*
X4093464Y3326384D01*
X4096512Y3342132D01*
X4164329Y3341624D01*
X4170679Y3334105D01*
X4175201Y3326384D01*
X4177893Y3318510D01*
X4178808Y3310382D01*
X4178452Y3306165D01*
X4177436Y3302508D01*
X4175607Y3299358D01*
X4172915Y3296767D01*
X4169308Y3294735D01*
X4164685Y3293313D01*
X4158996Y3292398D01*
X4152137Y3292094D01*
X4117086Y3292094D01*
X4085590Y3293110D01*
X4083304Y3290824D01*
X4086606Y3258058D01*
X4093210Y3258058D01*
X4096512Y3274060D01*
X4153154Y3273552D01*
X4163415Y3274009D01*
X4171950Y3275431D01*
X4178909Y3277870D01*
X4184345Y3281172D01*
X4188409Y3285388D01*
X4191203Y3290366D01*
X4192778Y3296107D01*
X4193286Y3302508D01*
X4192930Y3307842D01*
X4191965Y3313125D01*
X4190288Y3318306D01*
X4188002Y3323386D01*
X4185005Y3328314D01*
X4181398Y3333140D01*
X4177131Y3337763D01*
X4172204Y3342132D01*
X4192270Y3344164D01*
X4190492Y3375151D01*
G37*
G36*
X4115815Y3241802D02*
G01*
X4108500Y3241598D01*
X4101490Y3240836D01*
X4094835Y3239719D01*
X4088536Y3238093D01*
X4082542Y3236112D01*
X4076954Y3233775D01*
X4071721Y3231032D01*
X4066844Y3227984D01*
X4062323Y3224631D01*
X4058208Y3220974D01*
X4054449Y3217113D01*
X4051046Y3212947D01*
X4048048Y3208629D01*
X4045407Y3204057D01*
X4043222Y3199384D01*
X4041394Y3194558D01*
X4039920Y3189579D01*
X4038904Y3184550D01*
X4038295Y3179419D01*
X4038092Y3174238D01*
X4047744Y3174238D01*
X4048150Y3179826D01*
X4049217Y3185007D01*
X4051046Y3189782D01*
X4053484Y3194151D01*
X4056532Y3198164D01*
X4060088Y3201822D01*
X4064203Y3205073D01*
X4068724Y3208020D01*
X4073702Y3210560D01*
X4078986Y3212744D01*
X4084624Y3214573D01*
X4090517Y3216097D01*
X4096613Y3217214D01*
X4102912Y3218078D01*
X4109313Y3218535D01*
X4115815Y3218688D01*
X4122420Y3218535D01*
X4128871Y3218078D01*
X4135221Y3217214D01*
X4141368Y3216097D01*
X4147312Y3214573D01*
X4152950Y3212744D01*
X4158284Y3210560D01*
X4163212Y3208020D01*
X4167733Y3205073D01*
X4171848Y3201822D01*
X4175404Y3198164D01*
X4178452Y3194151D01*
X4180840Y3189782D01*
X4182668Y3185007D01*
X4183786Y3179826D01*
X4184142Y3174238D01*
X4183786Y3168599D01*
X4182668Y3163316D01*
X4180840Y3158490D01*
X4178452Y3154019D01*
X4175404Y3149904D01*
X4171848Y3146196D01*
X4167733Y3142894D01*
X4163212Y3139948D01*
X4158284Y3137357D01*
X4152950Y3135122D01*
X4147312Y3133242D01*
X4141368Y3131718D01*
X4135221Y3130550D01*
X4128871Y3129686D01*
X4122420Y3129229D01*
X4115815Y3129026D01*
X4109313Y3129229D01*
X4102912Y3129686D01*
X4096613Y3130550D01*
X4090517Y3131718D01*
X4084624Y3133242D01*
X4078986Y3135122D01*
X4073702Y3137357D01*
X4068724Y3139948D01*
X4064203Y3142894D01*
X4060088Y3146196D01*
X4056532Y3149904D01*
X4053484Y3154019D01*
X4051046Y3158490D01*
X4049217Y3163316D01*
X4048150Y3168599D01*
X4047744Y3174238D01*
X4038092Y3174238D01*
X4038295Y3169005D01*
X4038955Y3163824D01*
X4040022Y3158744D01*
X4041495Y3153714D01*
X4043375Y3148838D01*
X4045661Y3144113D01*
X4048353Y3139541D01*
X4051401Y3135172D01*
X4054856Y3131007D01*
X4058665Y3127095D01*
X4062831Y3123438D01*
X4067403Y3120034D01*
X4072280Y3116986D01*
X4077512Y3114243D01*
X4083100Y3111906D01*
X4088993Y3109874D01*
X4095242Y3108299D01*
X4101795Y3107131D01*
X4108653Y3106420D01*
X4115815Y3106166D01*
X4123283Y3106420D01*
X4130344Y3107131D01*
X4137050Y3108299D01*
X4143451Y3109874D01*
X4149445Y3111855D01*
X4155084Y3114192D01*
X4160316Y3116935D01*
X4165193Y3119983D01*
X4169714Y3123336D01*
X4173829Y3126994D01*
X4177588Y3130905D01*
X4180992Y3135020D01*
X4183938Y3139389D01*
X4186529Y3143961D01*
X4188764Y3148736D01*
X4190542Y3153613D01*
X4191965Y3158642D01*
X4192981Y3163773D01*
X4193590Y3168954D01*
X4193794Y3174238D01*
X4193590Y3179470D01*
X4192930Y3184601D01*
X4191863Y3189681D01*
X4190390Y3194659D01*
X4188510Y3199485D01*
X4186224Y3204210D01*
X4183532Y3208731D01*
X4180484Y3213049D01*
X4177029Y3217214D01*
X4173169Y3221075D01*
X4169003Y3224733D01*
X4164431Y3228035D01*
X4159554Y3231083D01*
X4154271Y3233775D01*
X4148683Y3236163D01*
X4142740Y3238144D01*
X4136491Y3239719D01*
X4129887Y3240887D01*
X4123029Y3241598D01*
G37*
G36*
X4133240Y1921916D02*
G01*
X4124299Y1912874D01*
X4116324Y1903577D01*
X4109313Y1894027D01*
X4103319Y1884121D01*
X4100626Y1879092D01*
X4098188Y1873961D01*
X4096004Y1868728D01*
X4092346Y1858010D01*
X4089603Y1846884D01*
X4087774Y1835353D01*
X4087215Y1829409D01*
X4086758Y1817268D01*
X4087215Y1805178D01*
X4087774Y1799285D01*
X4089603Y1787804D01*
X4092346Y1776730D01*
X4096004Y1766011D01*
X4100626Y1755597D01*
X4106214Y1745589D01*
X4109313Y1740662D01*
X4116324Y1731111D01*
X4124299Y1721815D01*
X4133240Y1712874D01*
X4137812Y1716430D01*
X4128770Y1730044D01*
X4121353Y1742948D01*
X4118152Y1749196D01*
X4115358Y1755343D01*
X4112920Y1761388D01*
X4110786Y1767382D01*
X4108958Y1773377D01*
X4106164Y1785467D01*
X4104436Y1797761D01*
X4103624Y1810562D01*
X4103624Y1823923D01*
X4104436Y1836775D01*
X4105148Y1843024D01*
X4106113Y1849120D01*
X4108856Y1861108D01*
X4110685Y1867103D01*
X4112818Y1873097D01*
X4115257Y1879142D01*
X4118051Y1885238D01*
X4121200Y1891487D01*
X4128719Y1904390D01*
X4137812Y1918106D01*
G37*
G36*
X4206646Y1921916D02*
G01*
X4202074Y1918106D01*
X4211066Y1904441D01*
X4214977Y1897938D01*
X4221581Y1885340D01*
X4224375Y1879244D01*
X4226814Y1873199D01*
X4228947Y1867204D01*
X4232249Y1855216D01*
X4233519Y1849170D01*
X4235246Y1836826D01*
X4236059Y1823974D01*
X4236059Y1810562D01*
X4235246Y1797812D01*
X4234535Y1791614D01*
X4232351Y1779524D01*
X4230827Y1773580D01*
X4226915Y1761591D01*
X4224477Y1755546D01*
X4218584Y1743151D01*
X4211167Y1730197D01*
X4202074Y1716430D01*
X4206646Y1712874D01*
X4215638Y1721815D01*
X4223613Y1731111D01*
X4230624Y1740662D01*
X4236618Y1750568D01*
X4239310Y1755597D01*
X4243933Y1766011D01*
X4247591Y1776730D01*
X4250334Y1787804D01*
X4251350Y1793493D01*
X4252722Y1805178D01*
X4253128Y1817268D01*
X4252722Y1829409D01*
X4251350Y1841195D01*
X4250334Y1846884D01*
X4247591Y1858010D01*
X4243933Y1868728D01*
X4239310Y1879092D01*
X4233722Y1889099D01*
X4230624Y1894027D01*
X4223613Y1903577D01*
X4215638Y1912874D01*
G37*
G36*
X3786784Y1907946D02*
G01*
X3781551Y1907692D01*
X3776370Y1907082D01*
X3771290Y1906016D01*
X3766261Y1904542D01*
X3761384Y1902612D01*
X3756660Y1900377D01*
X3752087Y1897684D01*
X3747719Y1894586D01*
X3743553Y1891182D01*
X3739642Y1887372D01*
X3735984Y1883156D01*
X3732580Y1878634D01*
X3729532Y1873757D01*
X3726789Y1868474D01*
X3724452Y1862937D01*
X3722471Y1856993D01*
X3720846Y1850796D01*
X3719677Y1844243D01*
X3718966Y1837385D01*
X3718712Y1830222D01*
X3741572Y1830222D01*
X3742232Y1843125D01*
X3743096Y1849424D01*
X3744264Y1855520D01*
X3745788Y1861413D01*
X3747668Y1867052D01*
X3749903Y1872335D01*
X3752494Y1877263D01*
X3755440Y1881835D01*
X3758793Y1885899D01*
X3762501Y1889506D01*
X3766565Y1892554D01*
X3771036Y1894992D01*
X3775913Y1896770D01*
X3781145Y1897888D01*
X3786784Y1898294D01*
X3792372Y1897888D01*
X3797554Y1896770D01*
X3802329Y1894992D01*
X3806698Y1892554D01*
X3810711Y1889506D01*
X3814368Y1885899D01*
X3817670Y1881835D01*
X3820566Y1877263D01*
X3823106Y1872335D01*
X3825290Y1867052D01*
X3827119Y1861413D01*
X3828643Y1855520D01*
X3829812Y1849424D01*
X3830624Y1843125D01*
X3831082Y1836674D01*
X3831234Y1830222D01*
X3831082Y1823618D01*
X3830624Y1817116D01*
X3829812Y1810766D01*
X3828643Y1804619D01*
X3827119Y1798726D01*
X3825290Y1793087D01*
X3823106Y1787753D01*
X3820566Y1782775D01*
X3817670Y1778254D01*
X3814368Y1774189D01*
X3810711Y1770634D01*
X3806698Y1767586D01*
X3802329Y1765147D01*
X3797554Y1763369D01*
X3792372Y1762252D01*
X3786784Y1761896D01*
X3781145Y1762252D01*
X3775913Y1763369D01*
X3771036Y1765147D01*
X3766565Y1767586D01*
X3762501Y1770634D01*
X3758793Y1774189D01*
X3755440Y1778254D01*
X3752494Y1782775D01*
X3749903Y1787753D01*
X3747668Y1793087D01*
X3745788Y1798726D01*
X3744264Y1804619D01*
X3743096Y1810766D01*
X3742232Y1817116D01*
X3741775Y1823618D01*
X3741572Y1830222D01*
X3718712Y1830222D01*
X3718966Y1822754D01*
X3719677Y1815693D01*
X3720846Y1808937D01*
X3722420Y1802587D01*
X3724401Y1796592D01*
X3726789Y1790954D01*
X3729482Y1785670D01*
X3732529Y1780793D01*
X3735882Y1776272D01*
X3739540Y1772157D01*
X3743451Y1768398D01*
X3747617Y1765046D01*
X3751986Y1762048D01*
X3756558Y1759457D01*
X3761282Y1757273D01*
X3766159Y1755444D01*
X3771188Y1754022D01*
X3776319Y1753057D01*
X3781551Y1752447D01*
X3786784Y1752244D01*
X3792016Y1752447D01*
X3797147Y1753057D01*
X3802227Y1754124D01*
X3807206Y1755648D01*
X3812032Y1757527D01*
X3816756Y1759813D01*
X3821277Y1762506D01*
X3825646Y1765554D01*
X3829761Y1769008D01*
X3833622Y1772818D01*
X3837279Y1777034D01*
X3840632Y1781556D01*
X3843629Y1786483D01*
X3846372Y1791716D01*
X3848709Y1797354D01*
X3850690Y1803247D01*
X3852265Y1809546D01*
X3853434Y1816100D01*
X3854145Y1823008D01*
X3854348Y1830222D01*
X3854145Y1837537D01*
X3853434Y1844548D01*
X3852265Y1851202D01*
X3850640Y1857502D01*
X3848658Y1863445D01*
X3846322Y1869033D01*
X3843578Y1874316D01*
X3840530Y1879193D01*
X3837178Y1883664D01*
X3833520Y1887829D01*
X3829659Y1891588D01*
X3825494Y1894992D01*
X3821176Y1897989D01*
X3816654Y1900580D01*
X3811930Y1902815D01*
X3807104Y1904644D01*
X3802126Y1906066D01*
X3797096Y1907082D01*
X3791965Y1907692D01*
G37*
G36*
X4023766Y1891690D02*
G01*
X4017670Y1861718D01*
X3997858Y1859178D01*
X3997858Y1851304D01*
X4016654Y1851304D01*
X4016400Y1778660D01*
X4016857Y1772412D01*
X4018127Y1767078D01*
X4020261Y1762607D01*
X4023106Y1759000D01*
X4026763Y1756257D01*
X4031081Y1754276D01*
X4036161Y1753107D01*
X4041800Y1752752D01*
X4049877Y1753514D01*
X4056837Y1755800D01*
X4062729Y1759356D01*
X4067454Y1764182D01*
X4063136Y1769262D01*
X4059072Y1766417D01*
X4055364Y1764436D01*
X4051706Y1763268D01*
X4047896Y1762912D01*
X4042562Y1763826D01*
X4038498Y1766773D01*
X4035856Y1771904D01*
X4034942Y1779422D01*
X4034942Y1851304D01*
X4065168Y1851304D01*
X4065168Y1860956D01*
X4035196Y1860956D01*
X4036466Y1891690D01*
G37*
G36*
X3903370Y1862734D02*
G01*
X3870604Y1859432D01*
X3870604Y1852828D01*
X3886606Y1849526D01*
X3886098Y1792884D01*
X3886555Y1782622D01*
X3887978Y1774037D01*
X3890416Y1767128D01*
X3893718Y1761642D01*
X3897934Y1757578D01*
X3902913Y1754835D01*
X3908653Y1753260D01*
X3915054Y1752752D01*
X3920388Y1753057D01*
X3925671Y1754073D01*
X3930853Y1755698D01*
X3935933Y1758035D01*
X3940911Y1760982D01*
X3945686Y1764639D01*
X3950309Y1768906D01*
X3954678Y1773834D01*
X3956710Y1753768D01*
X3987698Y1755546D01*
X3987698Y1762150D01*
X3972458Y1764690D01*
X3972458Y1828952D01*
X3972966Y1860448D01*
X3970934Y1862734D01*
X3938930Y1859178D01*
X3938930Y1852574D01*
X3954678Y1849526D01*
X3954170Y1781708D01*
X3946651Y1775358D01*
X3938930Y1770837D01*
X3931056Y1768093D01*
X3922928Y1767230D01*
X3918762Y1767535D01*
X3915054Y1768602D01*
X3911904Y1770430D01*
X3909314Y1773123D01*
X3907282Y1776730D01*
X3905859Y1781352D01*
X3904945Y1787042D01*
X3904640Y1793900D01*
X3904640Y1828952D01*
X3905656Y1860448D01*
G37*
G36*
X4143908Y1818030D02*
G01*
X4143908Y1804822D01*
X4195724Y1804822D01*
X4195724Y1818030D01*
G37*
G36*
X3747770Y5503367D02*
G01*
X3741623Y5503265D01*
X3729634Y5502351D01*
X3723843Y5501589D01*
X3718153Y5500573D01*
X3707028Y5497830D01*
X3701592Y5496102D01*
X3691077Y5491937D01*
X3685946Y5489549D01*
X3675887Y5483961D01*
X3666185Y5477459D01*
X3661460Y5473852D01*
X3652164Y5465876D01*
X3643122Y5456885D01*
X3646932Y5452313D01*
X3653840Y5457037D01*
X3660546Y5461304D01*
X3673449Y5468670D01*
X3679647Y5471820D01*
X3685794Y5474614D01*
X3691839Y5477052D01*
X3703828Y5480964D01*
X3709822Y5482488D01*
X3715867Y5483758D01*
X3728212Y5485485D01*
X3734562Y5485993D01*
X3747770Y5486349D01*
X3760876Y5485993D01*
X3773373Y5484774D01*
X3779469Y5483809D01*
X3791458Y5481066D01*
X3797452Y5479237D01*
X3803396Y5477154D01*
X3809492Y5474716D01*
X3815587Y5471922D01*
X3828237Y5465267D01*
X3841597Y5457088D01*
X3848608Y5452313D01*
X3852164Y5456885D01*
X3843172Y5465876D01*
X3833926Y5473852D01*
X3824325Y5480812D01*
X3819448Y5483961D01*
X3809390Y5489549D01*
X3799027Y5494121D01*
X3793693Y5496102D01*
X3788308Y5497830D01*
X3777183Y5500573D01*
X3771493Y5501589D01*
X3759809Y5502910D01*
X3753865Y5503265D01*
G37*
G36*
X3747008Y5445963D02*
G01*
X3747008Y5394147D01*
X3760215Y5394147D01*
X3760215Y5445963D01*
G37*
G36*
X3646932Y5388051D02*
G01*
X3643122Y5383479D01*
X3652164Y5374538D01*
X3661460Y5366562D01*
X3671011Y5359552D01*
X3675887Y5356402D01*
X3680866Y5353507D01*
X3691077Y5348427D01*
X3696309Y5346242D01*
X3707028Y5342585D01*
X3718153Y5339842D01*
X3729634Y5338013D01*
X3735578Y5337454D01*
X3747770Y5336997D01*
X3759809Y5337454D01*
X3765702Y5338013D01*
X3777183Y5339842D01*
X3788308Y5342585D01*
X3799027Y5346242D01*
X3804259Y5348427D01*
X3814470Y5353507D01*
X3819448Y5356402D01*
X3829151Y5362956D01*
X3833926Y5366562D01*
X3838600Y5370423D01*
X3847693Y5378907D01*
X3852164Y5383479D01*
X3848608Y5388051D01*
X3841699Y5383326D01*
X3828440Y5375097D01*
X3822039Y5371541D01*
X3815842Y5368391D01*
X3809695Y5365597D01*
X3803650Y5363159D01*
X3797604Y5361025D01*
X3791610Y5359196D01*
X3785615Y5357672D01*
X3779570Y5356402D01*
X3767226Y5354675D01*
X3754424Y5353862D01*
X3741064Y5353862D01*
X3728212Y5354675D01*
X3722014Y5355386D01*
X3715918Y5356352D01*
X3709873Y5357571D01*
X3703878Y5359095D01*
X3697935Y5360924D01*
X3691940Y5363057D01*
X3685895Y5365496D01*
X3679748Y5368290D01*
X3673551Y5371439D01*
X3660648Y5378958D01*
X3653891Y5383276D01*
G37*
G36*
X3800856Y5317693D02*
G01*
X3795776Y5313375D01*
X3798570Y5309311D01*
X3800551Y5305602D01*
X3801719Y5301945D01*
X3802126Y5298135D01*
X3801211Y5292801D01*
X3798265Y5288737D01*
X3793134Y5286095D01*
X3785615Y5285181D01*
X3713734Y5285181D01*
X3713734Y5315407D01*
X3704082Y5315407D01*
X3704082Y5285435D01*
X3673348Y5286705D01*
X3673348Y5274005D01*
X3703320Y5267909D01*
X3705860Y5248097D01*
X3713734Y5248097D01*
X3713734Y5266893D01*
X3786378Y5266639D01*
X3792575Y5267096D01*
X3797909Y5268366D01*
X3802379Y5270449D01*
X3805986Y5273344D01*
X3808780Y5277002D01*
X3810762Y5281320D01*
X3811879Y5286349D01*
X3812286Y5292039D01*
X3811524Y5300116D01*
X3809237Y5307076D01*
X3805631Y5312968D01*
G37*
G36*
X3802887Y5237937D02*
G01*
X3800348Y5222697D01*
X3736086Y5222697D01*
X3704590Y5223205D01*
X3702304Y5221173D01*
X3705860Y5189169D01*
X3712464Y5189169D01*
X3715512Y5204917D01*
X3783329Y5204409D01*
X3789679Y5196890D01*
X3794201Y5189169D01*
X3796893Y5181295D01*
X3797808Y5173167D01*
X3797452Y5168950D01*
X3796436Y5165293D01*
X3794607Y5162143D01*
X3791915Y5159552D01*
X3788308Y5157520D01*
X3783685Y5156098D01*
X3777996Y5155184D01*
X3771137Y5154879D01*
X3736086Y5154879D01*
X3704590Y5155895D01*
X3702304Y5153609D01*
X3705606Y5120843D01*
X3712210Y5120843D01*
X3715512Y5136845D01*
X3772154Y5136337D01*
X3782415Y5136794D01*
X3790950Y5138216D01*
X3797909Y5140655D01*
X3803345Y5143957D01*
X3807409Y5148173D01*
X3810203Y5153152D01*
X3811778Y5158892D01*
X3812286Y5165293D01*
X3811930Y5170627D01*
X3810965Y5175910D01*
X3809288Y5181092D01*
X3807002Y5186172D01*
X3804005Y5191099D01*
X3800398Y5195925D01*
X3796131Y5200548D01*
X3791204Y5204917D01*
X3811270Y5206949D01*
X3809492Y5237937D01*
G37*
G36*
X3734815Y5104587D02*
G01*
X3727500Y5104384D01*
X3720490Y5103622D01*
X3713835Y5102504D01*
X3707536Y5100878D01*
X3701542Y5098897D01*
X3695954Y5096560D01*
X3690721Y5093817D01*
X3685844Y5090769D01*
X3681323Y5087416D01*
X3677208Y5083759D01*
X3673449Y5079898D01*
X3670046Y5075732D01*
X3667048Y5071414D01*
X3664407Y5066842D01*
X3662222Y5062169D01*
X3660394Y5057343D01*
X3658920Y5052364D01*
X3657904Y5047335D01*
X3657295Y5042204D01*
X3657092Y5037023D01*
X3666744Y5037023D01*
X3667150Y5042611D01*
X3668217Y5047792D01*
X3670046Y5052568D01*
X3672484Y5056936D01*
X3675532Y5060950D01*
X3679088Y5064607D01*
X3683203Y5067858D01*
X3687724Y5070805D01*
X3692702Y5073345D01*
X3697986Y5075529D01*
X3703624Y5077358D01*
X3709517Y5078882D01*
X3715613Y5080000D01*
X3721912Y5080863D01*
X3728313Y5081320D01*
X3734815Y5081473D01*
X3741420Y5081320D01*
X3747871Y5080863D01*
X3754221Y5080000D01*
X3760368Y5078882D01*
X3766312Y5077358D01*
X3771950Y5075529D01*
X3777284Y5073345D01*
X3782212Y5070805D01*
X3786733Y5067858D01*
X3790848Y5064607D01*
X3794404Y5060950D01*
X3797452Y5056936D01*
X3799840Y5052568D01*
X3801668Y5047792D01*
X3802786Y5042611D01*
X3803142Y5037023D01*
X3802786Y5031384D01*
X3801668Y5026101D01*
X3799840Y5021275D01*
X3797452Y5016804D01*
X3794404Y5012690D01*
X3790848Y5008981D01*
X3786733Y5005679D01*
X3782212Y5002733D01*
X3777284Y5000142D01*
X3771950Y4997907D01*
X3766312Y4996027D01*
X3760368Y4994503D01*
X3754221Y4993335D01*
X3747871Y4992471D01*
X3741420Y4992014D01*
X3734815Y4991811D01*
X3728313Y4992014D01*
X3721912Y4992471D01*
X3715613Y4993335D01*
X3709517Y4994503D01*
X3703624Y4996027D01*
X3697986Y4997907D01*
X3692702Y5000142D01*
X3687724Y5002733D01*
X3683203Y5005679D01*
X3679088Y5008981D01*
X3675532Y5012690D01*
X3672484Y5016804D01*
X3670046Y5021275D01*
X3668217Y5026101D01*
X3667150Y5031384D01*
X3666744Y5037023D01*
X3657092Y5037023D01*
X3657295Y5031790D01*
X3657955Y5026609D01*
X3659022Y5021529D01*
X3660495Y5016500D01*
X3662375Y5011623D01*
X3664661Y5006898D01*
X3667353Y5002326D01*
X3670401Y4997958D01*
X3673856Y4993792D01*
X3677665Y4989880D01*
X3681831Y4986223D01*
X3686403Y4982819D01*
X3691280Y4979771D01*
X3696512Y4977028D01*
X3702100Y4974691D01*
X3707993Y4972659D01*
X3714242Y4971084D01*
X3720795Y4969916D01*
X3727653Y4969205D01*
X3734815Y4968951D01*
X3742283Y4969205D01*
X3749344Y4969916D01*
X3756050Y4971084D01*
X3762451Y4972659D01*
X3768445Y4974640D01*
X3774084Y4976977D01*
X3779316Y4979720D01*
X3784193Y4982768D01*
X3788714Y4986121D01*
X3792829Y4989779D01*
X3796588Y4993690D01*
X3799992Y4997805D01*
X3802938Y5002174D01*
X3805529Y5006746D01*
X3807764Y5011521D01*
X3809542Y5016398D01*
X3810965Y5021427D01*
X3811981Y5026558D01*
X3812590Y5031740D01*
X3812794Y5037023D01*
X3812590Y5042255D01*
X3811930Y5047386D01*
X3810863Y5052466D01*
X3809390Y5057444D01*
X3807510Y5062270D01*
X3805224Y5066995D01*
X3802532Y5071516D01*
X3799484Y5075834D01*
X3796029Y5080000D01*
X3792169Y5083860D01*
X3788003Y5087518D01*
X3783431Y5090820D01*
X3778554Y5093868D01*
X3773271Y5096560D01*
X3767683Y5098948D01*
X3761740Y5100929D01*
X3755491Y5102504D01*
X3748887Y5103672D01*
X3742029Y5104384D01*
G37*
D10*
X2286002Y5500115D02*
G01*
X2286002Y5391150D01*
X2286002Y5500115D02*
G01*
X2327658Y5391150D01*
X2369060Y5500115D02*
G01*
X2327658Y5391150D01*
X2369060Y5500115D02*
G01*
X2369060Y5391150D01*
X2434592Y5500115D02*
G01*
X2424178Y5495036D01*
X2413764Y5484621D01*
X2408684Y5474207D01*
X2403350Y5458460D01*
X2403350Y5432552D01*
X2408684Y5417057D01*
X2413764Y5406644D01*
X2424178Y5396229D01*
X2434592Y5391150D01*
X2455420Y5391150D01*
X2465834Y5396229D01*
X2476248Y5406644D01*
X2481328Y5417057D01*
X2486662Y5432552D01*
X2486662Y5458460D01*
X2481328Y5474207D01*
X2476248Y5484621D01*
X2465834Y5495036D01*
X2455420Y5500115D01*
X2434592Y5500115D01*
X2557274Y5500115D02*
G01*
X2557274Y5391150D01*
X2520952Y5500115D02*
G01*
X2593596Y5500115D01*
X2659128Y5500115D02*
G01*
X2648714Y5495036D01*
X2638300Y5484621D01*
X2632966Y5474207D01*
X2627886Y5458460D01*
X2627886Y5432552D01*
X2632966Y5417057D01*
X2638300Y5406644D01*
X2648714Y5396229D01*
X2659128Y5391150D01*
X2679702Y5391150D01*
X2690116Y5396229D01*
X2700530Y5406644D01*
X2705864Y5417057D01*
X2710944Y5432552D01*
X2710944Y5458460D01*
X2705864Y5474207D01*
X2700530Y5484621D01*
X2690116Y5495036D01*
X2679702Y5500115D01*
X2659128Y5500115D01*
X2745234Y5500115D02*
G01*
X2745234Y5391150D01*
X2745234Y5500115D02*
G01*
X2791970Y5500115D01*
X2807718Y5495036D01*
X2812798Y5489702D01*
X2818132Y5479287D01*
X2818132Y5468873D01*
X2812798Y5458460D01*
X2807718Y5453379D01*
X2791970Y5448300D01*
X2745234Y5448300D01*
X2781556Y5448300D02*
G01*
X2818132Y5391150D01*
X2852422Y5354573D02*
G01*
X2945894Y5354573D01*
X2980184Y5500115D02*
G01*
X3052828Y5391150D01*
X3052828Y5500115D02*
G01*
X2980184Y5391150D01*
X3087118Y5479287D02*
G01*
X3097532Y5484621D01*
X3113026Y5500115D01*
X3113026Y5391150D01*
X2743200Y420115D02*
G01*
X2743200Y342137D01*
X2748279Y326644D01*
X2758693Y316229D01*
X2774441Y311150D01*
X2784856Y311150D01*
X2800350Y316229D01*
X2810763Y326644D01*
X2815843Y342137D01*
X2815843Y420115D01*
X2850134Y399287D02*
G01*
X2860547Y404621D01*
X2876295Y420115D01*
X2876295Y311150D01*
D11*
X3282950Y486410D02*
G01*
X3282950Y390905D01*
X3251200Y486410D02*
G01*
X3314954Y486410D01*
X3344925Y454405D02*
G01*
X3394709Y390905D01*
X3394709Y454405D02*
G01*
X3344925Y390905D01*
X3263900Y740410D02*
G01*
X3263900Y644905D01*
X3263900Y740410D02*
G01*
X3304793Y740410D01*
X3318509Y735837D01*
X3323081Y731265D01*
X3327654Y722121D01*
X3327654Y712978D01*
X3323081Y704087D01*
X3318509Y699515D01*
X3304793Y694944D01*
X3263900Y694944D01*
X3295650Y694944D02*
G01*
X3327654Y644905D01*
X3357625Y708405D02*
G01*
X3407409Y644905D01*
X3407409Y708405D02*
G01*
X3357625Y644905D01*
X3230372Y971550D02*
G01*
X3226054Y980694D01*
X3216909Y989837D01*
X3207765Y994410D01*
X3189477Y994410D01*
X3180588Y989837D01*
X3171443Y980694D01*
X3166872Y971550D01*
X3162300Y958087D01*
X3162300Y935228D01*
X3166872Y921512D01*
X3171443Y912621D01*
X3180588Y903478D01*
X3189477Y898905D01*
X3207765Y898905D01*
X3216909Y903478D01*
X3226054Y912621D01*
X3230372Y921512D01*
X3230372Y935228D01*
X3207765Y935228D02*
G01*
X3230372Y935228D01*
X3260597Y962405D02*
G01*
X3260597Y898905D01*
X3260597Y944371D02*
G01*
X3274059Y958087D01*
X3283204Y962405D01*
X3296920Y962405D01*
X3305809Y958087D01*
X3310381Y944371D01*
X3310381Y898905D01*
X3394963Y994410D02*
G01*
X3394963Y898905D01*
X3394963Y948944D02*
G01*
X3385820Y958087D01*
X3376929Y962405D01*
X3363213Y962405D01*
X3354070Y958087D01*
X3344925Y948944D01*
X3340608Y935228D01*
X3340608Y926084D01*
X3344925Y912621D01*
X3354070Y903478D01*
X3363213Y898905D01*
X3376929Y898905D01*
X3385820Y903478D01*
X3394963Y912621D01*
X3243072Y1212850D02*
G01*
X3238754Y1221994D01*
X3229609Y1231137D01*
X3220465Y1235710D01*
X3202177Y1235710D01*
X3193288Y1231137D01*
X3184143Y1221994D01*
X3179572Y1212850D01*
X3175000Y1199387D01*
X3175000Y1176528D01*
X3179572Y1162812D01*
X3184143Y1153921D01*
X3193288Y1144778D01*
X3202177Y1140205D01*
X3220465Y1140205D01*
X3229609Y1144778D01*
X3238754Y1153921D01*
X3243072Y1162812D01*
X3243072Y1176528D01*
X3220465Y1176528D02*
G01*
X3243072Y1176528D01*
X3273297Y1203705D02*
G01*
X3273297Y1140205D01*
X3273297Y1185671D02*
G01*
X3286759Y1199387D01*
X3295904Y1203705D01*
X3309620Y1203705D01*
X3318509Y1199387D01*
X3323081Y1185671D01*
X3323081Y1140205D01*
X3407663Y1235710D02*
G01*
X3407663Y1140205D01*
X3407663Y1190244D02*
G01*
X3398520Y1199387D01*
X3389629Y1203705D01*
X3375913Y1203705D01*
X3366770Y1199387D01*
X3357625Y1190244D01*
X3353308Y1176528D01*
X3353308Y1167384D01*
X3357625Y1153921D01*
X3366770Y1144778D01*
X3375913Y1140205D01*
X3389629Y1140205D01*
X3398520Y1144778D01*
X3407663Y1153921D01*
X3179572Y1466850D02*
G01*
X3179572Y1471421D01*
X3184143Y1480565D01*
X3188715Y1485137D01*
X3197606Y1489710D01*
X3215893Y1489710D01*
X3225038Y1485137D01*
X3229609Y1480565D01*
X3234181Y1471421D01*
X3234181Y1462278D01*
X3229609Y1453387D01*
X3220465Y1439671D01*
X3175000Y1394205D01*
X3238754Y1394205D01*
X3300475Y1507744D02*
G01*
X3291331Y1498854D01*
X3282188Y1485137D01*
X3273297Y1466850D01*
X3268725Y1444244D01*
X3268725Y1425955D01*
X3273297Y1403350D01*
X3282188Y1385062D01*
X3291331Y1371345D01*
X3300475Y1362455D01*
X3330447Y1489710D02*
G01*
X3335020Y1485137D01*
X3339591Y1489710D01*
X3335020Y1494281D01*
X3330447Y1489710D01*
X3335020Y1457705D02*
G01*
X3335020Y1394205D01*
X3369563Y1507744D02*
G01*
X3378708Y1498854D01*
X3387852Y1485137D01*
X3396741Y1466850D01*
X3401313Y1444244D01*
X3401313Y1425955D01*
X3396741Y1403350D01*
X3387852Y1385062D01*
X3378708Y1371345D01*
X3369563Y1362455D01*
X2993643Y1769110D02*
G01*
X3043681Y1769110D01*
X3016250Y1732787D01*
X3029965Y1732787D01*
X3039109Y1728215D01*
X3043681Y1723644D01*
X3048254Y1709928D01*
X3048254Y1700784D01*
X3043681Y1687321D01*
X3034538Y1678178D01*
X3020822Y1673605D01*
X3007106Y1673605D01*
X2993643Y1678178D01*
X2989072Y1682750D01*
X2984500Y1691894D01*
X3109975Y1787144D02*
G01*
X3100831Y1778254D01*
X3091688Y1764537D01*
X3082797Y1746250D01*
X3078225Y1723644D01*
X3078225Y1705355D01*
X3082797Y1682750D01*
X3091688Y1664462D01*
X3100831Y1650745D01*
X3109975Y1641855D01*
X3139947Y1737105D02*
G01*
X3139947Y1641855D01*
X3139947Y1723644D02*
G01*
X3149091Y1732787D01*
X3158236Y1737105D01*
X3171697Y1737105D01*
X3180841Y1732787D01*
X3189986Y1723644D01*
X3194558Y1709928D01*
X3194558Y1700784D01*
X3189986Y1687321D01*
X3180841Y1678178D01*
X3171697Y1673605D01*
X3158236Y1673605D01*
X3149091Y1678178D01*
X3139947Y1687321D01*
X3306318Y1787144D02*
G01*
X3224529Y1641855D01*
X3336290Y1769110D02*
G01*
X3340861Y1764537D01*
X3345434Y1769110D01*
X3340861Y1773681D01*
X3336290Y1769110D01*
X3340861Y1737105D02*
G01*
X3340861Y1673605D01*
X3375406Y1787144D02*
G01*
X3384550Y1778254D01*
X3393693Y1764537D01*
X3402584Y1746250D01*
X3407156Y1723644D01*
X3407156Y1705355D01*
X3402584Y1682750D01*
X3393693Y1664462D01*
X3384550Y1650745D01*
X3375406Y1641855D01*
X3233165Y1997710D02*
G01*
X3187700Y1933955D01*
X3255772Y1933955D01*
X3233165Y1997710D02*
G01*
X3233165Y1902205D01*
X3317747Y2015744D02*
G01*
X3308604Y2006854D01*
X3299459Y1993137D01*
X3290315Y1974850D01*
X3285997Y1952244D01*
X3285997Y1933955D01*
X3290315Y1911350D01*
X3299459Y1893062D01*
X3308604Y1879345D01*
X3317747Y1870455D01*
X3347720Y1997710D02*
G01*
X3352291Y1993137D01*
X3356863Y1997710D01*
X3352291Y2002281D01*
X3347720Y1997710D01*
X3352291Y1965705D02*
G01*
X3352291Y1902205D01*
X3386836Y2015744D02*
G01*
X3395979Y2006854D01*
X3404870Y1993137D01*
X3414013Y1974850D01*
X3418586Y1952244D01*
X3418586Y1933955D01*
X3414013Y1911350D01*
X3404870Y1893062D01*
X3395979Y1879345D01*
X3386836Y1870455D01*
X3191509Y2251710D02*
G01*
X3146043Y2251710D01*
X3141472Y2210815D01*
X3146043Y2215387D01*
X3159506Y2219705D01*
X3173222Y2219705D01*
X3186938Y2215387D01*
X3196081Y2206244D01*
X3200654Y2192528D01*
X3200654Y2183384D01*
X3196081Y2169921D01*
X3186938Y2160778D01*
X3173222Y2156205D01*
X3159506Y2156205D01*
X3146043Y2160778D01*
X3141472Y2165350D01*
X3136900Y2174494D01*
X3262375Y2269744D02*
G01*
X3253231Y2260854D01*
X3244088Y2247137D01*
X3235197Y2228850D01*
X3230625Y2206244D01*
X3230625Y2187955D01*
X3235197Y2165350D01*
X3244088Y2147062D01*
X3253231Y2133345D01*
X3262375Y2124455D01*
X3292347Y2219705D02*
G01*
X3292347Y2124455D01*
X3292347Y2206244D02*
G01*
X3301491Y2215387D01*
X3310636Y2219705D01*
X3324097Y2219705D01*
X3333241Y2215387D01*
X3342386Y2206244D01*
X3346958Y2192528D01*
X3346958Y2183384D01*
X3342386Y2169921D01*
X3333241Y2160778D01*
X3324097Y2156205D01*
X3310636Y2156205D01*
X3301491Y2160778D01*
X3292347Y2169921D01*
X3376929Y2269744D02*
G01*
X3386074Y2260854D01*
X3394963Y2247137D01*
X3404108Y2228850D01*
X3408679Y2206244D01*
X3408679Y2187955D01*
X3404108Y2165350D01*
X3394963Y2147062D01*
X3386074Y2133345D01*
X3376929Y2124455D01*
X3204209Y2517394D02*
G01*
X3199638Y2526537D01*
X3185922Y2531110D01*
X3176777Y2531110D01*
X3163315Y2526537D01*
X3154172Y2512821D01*
X3149600Y2490215D01*
X3149600Y2467355D01*
X3154172Y2449321D01*
X3163315Y2440178D01*
X3176777Y2435605D01*
X3181350Y2435605D01*
X3195065Y2440178D01*
X3204209Y2449321D01*
X3208781Y2462784D01*
X3208781Y2467355D01*
X3204209Y2481071D01*
X3195065Y2490215D01*
X3181350Y2494787D01*
X3176777Y2494787D01*
X3163315Y2490215D01*
X3154172Y2481071D01*
X3149600Y2467355D01*
X3270504Y2549144D02*
G01*
X3261359Y2540254D01*
X3252215Y2526537D01*
X3243325Y2508250D01*
X3238754Y2485644D01*
X3238754Y2467355D01*
X3243325Y2444750D01*
X3252215Y2426462D01*
X3261359Y2412745D01*
X3270504Y2403855D01*
X3300475Y2499105D02*
G01*
X3300475Y2403855D01*
X3300475Y2485644D02*
G01*
X3309620Y2494787D01*
X3318763Y2499105D01*
X3332225Y2499105D01*
X3341370Y2494787D01*
X3350513Y2485644D01*
X3355086Y2471928D01*
X3355086Y2462784D01*
X3350513Y2449321D01*
X3341370Y2440178D01*
X3332225Y2435605D01*
X3318763Y2435605D01*
X3309620Y2440178D01*
X3300475Y2449321D01*
X3385058Y2549144D02*
G01*
X3394202Y2540254D01*
X3403345Y2526537D01*
X3412236Y2508250D01*
X3416808Y2485644D01*
X3416808Y2467355D01*
X3412236Y2444750D01*
X3403345Y2426462D01*
X3394202Y2412745D01*
X3385058Y2403855D01*
X3251454Y2772410D02*
G01*
X3205988Y2676905D01*
X3187700Y2772410D02*
G01*
X3251454Y2772410D01*
X3313175Y2790444D02*
G01*
X3304031Y2781554D01*
X3294888Y2767837D01*
X3285997Y2749550D01*
X3281425Y2726944D01*
X3281425Y2708655D01*
X3285997Y2686050D01*
X3294888Y2667762D01*
X3304031Y2654045D01*
X3313175Y2645155D01*
X3343147Y2772410D02*
G01*
X3347720Y2767837D01*
X3352291Y2772410D01*
X3347720Y2776981D01*
X3343147Y2772410D01*
X3347720Y2740405D02*
G01*
X3347720Y2676905D01*
X3382263Y2790444D02*
G01*
X3391408Y2781554D01*
X3400552Y2767837D01*
X3409441Y2749550D01*
X3414013Y2726944D01*
X3414013Y2708655D01*
X3409441Y2686050D01*
X3400552Y2667762D01*
X3391408Y2654045D01*
X3382263Y2645155D01*
X3337306Y3013710D02*
G01*
X3323843Y3009137D01*
X3319272Y2999994D01*
X3319272Y2990850D01*
X3323843Y2981705D01*
X3332988Y2977387D01*
X3351022Y2972815D01*
X3364738Y2968244D01*
X3373881Y2959100D01*
X3378454Y2949955D01*
X3378454Y2936494D01*
X3373881Y2927350D01*
X3369309Y2922778D01*
X3355593Y2918205D01*
X3337306Y2918205D01*
X3323843Y2922778D01*
X3319272Y2927350D01*
X3314700Y2936494D01*
X3314700Y2949955D01*
X3319272Y2959100D01*
X3328415Y2968244D01*
X3341877Y2972815D01*
X3360165Y2977387D01*
X3369309Y2981705D01*
X3373881Y2990850D01*
X3373881Y2999994D01*
X3369309Y3009137D01*
X3355593Y3013710D01*
X3337306Y3013710D01*
X3196081Y3223005D02*
G01*
X3191509Y3209544D01*
X3182365Y3200400D01*
X3168650Y3195828D01*
X3164077Y3195828D01*
X3150615Y3200400D01*
X3141472Y3209544D01*
X3136900Y3223005D01*
X3136900Y3227578D01*
X3141472Y3241294D01*
X3150615Y3250437D01*
X3164077Y3255010D01*
X3168650Y3255010D01*
X3182365Y3250437D01*
X3191509Y3241294D01*
X3196081Y3223005D01*
X3196081Y3200400D01*
X3191509Y3177794D01*
X3182365Y3164078D01*
X3168650Y3159505D01*
X3159506Y3159505D01*
X3146043Y3164078D01*
X3141472Y3173221D01*
X3257804Y3273044D02*
G01*
X3248659Y3264154D01*
X3239515Y3250437D01*
X3230625Y3232150D01*
X3226054Y3209544D01*
X3226054Y3191255D01*
X3230625Y3168650D01*
X3239515Y3150362D01*
X3248659Y3136645D01*
X3257804Y3127755D01*
X3287775Y3223005D02*
G01*
X3287775Y3127755D01*
X3287775Y3209544D02*
G01*
X3296920Y3218687D01*
X3306063Y3223005D01*
X3319525Y3223005D01*
X3328670Y3218687D01*
X3337813Y3209544D01*
X3342386Y3195828D01*
X3342386Y3186684D01*
X3337813Y3173221D01*
X3328670Y3164078D01*
X3319525Y3159505D01*
X3306063Y3159505D01*
X3296920Y3164078D01*
X3287775Y3173221D01*
X3372358Y3273044D02*
G01*
X3381502Y3264154D01*
X3390645Y3250437D01*
X3399536Y3232150D01*
X3404108Y3209544D01*
X3404108Y3191255D01*
X3399536Y3168650D01*
X3390645Y3150362D01*
X3381502Y3136645D01*
X3372358Y3127755D01*
X2216150Y3298444D02*
G01*
X2207006Y3289554D01*
X2198115Y3275837D01*
X2188972Y3257550D01*
X2184400Y3234944D01*
X2184400Y3216655D01*
X2188972Y3194050D01*
X2198115Y3175762D01*
X2207006Y3162045D01*
X2216150Y3153155D01*
X2246122Y3248405D02*
G01*
X2246122Y3153155D01*
X2246122Y3234944D02*
G01*
X2255265Y3244087D01*
X2264409Y3248405D01*
X2278125Y3248405D01*
X2287015Y3244087D01*
X2296159Y3234944D01*
X2300731Y3221228D01*
X2300731Y3212084D01*
X2296159Y3198621D01*
X2287015Y3189478D01*
X2278125Y3184905D01*
X2264409Y3184905D01*
X2255265Y3189478D01*
X2246122Y3198621D01*
X2330704Y3298444D02*
G01*
X2339847Y3289554D01*
X2348991Y3275837D01*
X2358136Y3257550D01*
X2362708Y3234944D01*
X2362708Y3216655D01*
X2358136Y3194050D01*
X2348991Y3175762D01*
X2339847Y3162045D01*
X2330704Y3153155D01*
X2392679Y3262121D02*
G01*
X2401570Y3266694D01*
X2415286Y3280410D01*
X2415286Y3184905D01*
X2472690Y3280410D02*
G01*
X2458974Y3275837D01*
X2449829Y3262121D01*
X2445258Y3239515D01*
X2445258Y3225800D01*
X2449829Y3203194D01*
X2458974Y3189478D01*
X2472690Y3184905D01*
X2481579Y3184905D01*
X2495295Y3189478D01*
X2504440Y3203194D01*
X2509011Y3225800D01*
X2509011Y3239515D01*
X2504440Y3262121D01*
X2495295Y3275837D01*
X2481579Y3280410D01*
X2472690Y3280410D01*
X2197100Y461010D02*
G01*
X2197100Y365505D01*
X2197100Y461010D02*
G01*
X2237993Y461010D01*
X2251709Y456437D01*
X2256281Y451865D01*
X2260854Y442721D01*
X2260854Y433578D01*
X2256281Y424687D01*
X2251709Y420115D01*
X2237993Y415544D01*
X2197100Y415544D01*
X2228850Y415544D02*
G01*
X2260854Y365505D01*
X2345181Y429005D02*
G01*
X2345181Y365505D01*
X2345181Y415544D02*
G01*
X2336291Y424687D01*
X2327147Y429005D01*
X2313431Y429005D01*
X2304288Y424687D01*
X2295397Y415544D01*
X2290825Y401828D01*
X2290825Y392684D01*
X2295397Y379221D01*
X2304288Y370078D01*
X2313431Y365505D01*
X2327147Y365505D01*
X2336291Y370078D01*
X2345181Y379221D01*
X2375408Y429005D02*
G01*
X2393441Y365505D01*
X2411729Y429005D02*
G01*
X2393441Y365505D01*
X2411729Y429005D02*
G01*
X2429763Y365505D01*
X2448052Y429005D02*
G01*
X2429763Y365505D01*
X2265172Y704850D02*
G01*
X2260854Y713994D01*
X2251709Y723137D01*
X2242565Y727710D01*
X2224277Y727710D01*
X2215388Y723137D01*
X2206243Y713994D01*
X2201672Y704850D01*
X2197100Y691387D01*
X2197100Y668528D01*
X2201672Y654812D01*
X2206243Y645921D01*
X2215388Y636778D01*
X2224277Y632205D01*
X2242565Y632205D01*
X2251709Y636778D01*
X2260854Y645921D01*
X2265172Y654812D01*
X2265172Y668528D01*
X2242565Y668528D02*
G01*
X2265172Y668528D01*
X2295397Y695705D02*
G01*
X2295397Y632205D01*
X2295397Y677671D02*
G01*
X2308859Y691387D01*
X2318004Y695705D01*
X2331720Y695705D01*
X2340609Y691387D01*
X2345181Y677671D01*
X2345181Y632205D01*
X2429763Y727710D02*
G01*
X2429763Y632205D01*
X2429763Y682244D02*
G01*
X2420620Y691387D01*
X2411729Y695705D01*
X2398013Y695705D01*
X2388870Y691387D01*
X2379725Y682244D01*
X2375408Y668528D01*
X2375408Y659384D01*
X2379725Y645921D01*
X2388870Y636778D01*
X2398013Y632205D01*
X2411729Y632205D01*
X2420620Y636778D01*
X2429763Y645921D01*
X2209800Y981710D02*
G01*
X2209800Y886205D01*
X2209800Y981710D02*
G01*
X2250693Y981710D01*
X2264409Y977137D01*
X2268981Y972565D01*
X2273554Y963421D01*
X2273554Y954278D01*
X2268981Y945387D01*
X2264409Y940815D01*
X2250693Y936244D01*
X2209800Y936244D01*
X2241550Y936244D02*
G01*
X2273554Y886205D01*
X2353309Y936244D02*
G01*
X2348991Y945387D01*
X2335275Y949705D01*
X2321559Y949705D01*
X2308097Y945387D01*
X2303525Y936244D01*
X2308097Y927100D01*
X2316988Y922528D01*
X2339847Y917955D01*
X2348991Y913384D01*
X2353309Y904494D01*
X2353309Y899921D01*
X2348991Y890778D01*
X2335275Y886205D01*
X2321559Y886205D01*
X2308097Y890778D01*
X2303525Y899921D01*
X2396997Y981710D02*
G01*
X2396997Y904494D01*
X2401570Y890778D01*
X2410713Y886205D01*
X2419858Y886205D01*
X2383536Y949705D02*
G01*
X2415286Y949705D01*
X2171700Y1248410D02*
G01*
X2208022Y1152905D01*
X2244343Y1248410D02*
G01*
X2208022Y1152905D01*
X2328925Y1202944D02*
G01*
X2319781Y1212087D01*
X2310891Y1216405D01*
X2297175Y1216405D01*
X2288031Y1212087D01*
X2278888Y1202944D01*
X2274315Y1189228D01*
X2274315Y1180084D01*
X2278888Y1166621D01*
X2288031Y1157478D01*
X2297175Y1152905D01*
X2310891Y1152905D01*
X2319781Y1157478D01*
X2328925Y1166621D01*
X2413508Y1202944D02*
G01*
X2404363Y1212087D01*
X2395220Y1216405D01*
X2381758Y1216405D01*
X2372613Y1212087D01*
X2363470Y1202944D01*
X2358897Y1189228D01*
X2358897Y1180084D01*
X2363470Y1166621D01*
X2372613Y1157478D01*
X2381758Y1152905D01*
X2395220Y1152905D01*
X2404363Y1157478D01*
X2413508Y1166621D01*
X2208022Y1477010D02*
G01*
X2171700Y1381505D01*
X2208022Y1477010D02*
G01*
X2244343Y1381505D01*
X2185415Y1413255D02*
G01*
X2230881Y1413255D01*
X2283459Y1477010D02*
G01*
X2333497Y1477010D01*
X2306320Y1440687D01*
X2319781Y1440687D01*
X2328925Y1436115D01*
X2333497Y1431544D01*
X2338070Y1417828D01*
X2338070Y1408684D01*
X2333497Y1395221D01*
X2324354Y1386078D01*
X2310891Y1381505D01*
X2297175Y1381505D01*
X2283459Y1386078D01*
X2278888Y1390650D01*
X2274315Y1399794D01*
X2195322Y1731010D02*
G01*
X2159000Y1635505D01*
X2195322Y1731010D02*
G01*
X2231643Y1635505D01*
X2172715Y1667255D02*
G01*
X2218181Y1667255D01*
X2266188Y1708150D02*
G01*
X2266188Y1712721D01*
X2270759Y1721865D01*
X2275331Y1726437D01*
X2284475Y1731010D01*
X2302509Y1731010D01*
X2311654Y1726437D01*
X2316225Y1721865D01*
X2320797Y1712721D01*
X2320797Y1703578D01*
X2316225Y1694687D01*
X2307081Y1680971D01*
X2261615Y1635505D01*
X2325370Y1635505D01*
X2195322Y1985010D02*
G01*
X2159000Y1889505D01*
X2195322Y1985010D02*
G01*
X2231643Y1889505D01*
X2172715Y1921255D02*
G01*
X2218181Y1921255D01*
X2261615Y1966721D02*
G01*
X2270759Y1971294D01*
X2284475Y1985010D01*
X2284475Y1889505D01*
X2208022Y2251710D02*
G01*
X2171700Y2156205D01*
X2208022Y2251710D02*
G01*
X2244343Y2156205D01*
X2185415Y2187955D02*
G01*
X2230881Y2187955D01*
X2301747Y2251710D02*
G01*
X2288031Y2247137D01*
X2278888Y2233421D01*
X2274315Y2210815D01*
X2274315Y2197100D01*
X2278888Y2174494D01*
X2288031Y2160778D01*
X2301747Y2156205D01*
X2310891Y2156205D01*
X2324354Y2160778D01*
X2333497Y2174494D01*
X2338070Y2197100D01*
X2338070Y2210815D01*
X2333497Y2233421D01*
X2324354Y2247137D01*
X2310891Y2251710D01*
X2301747Y2251710D01*
X2235454Y2491994D02*
G01*
X2226309Y2501137D01*
X2212593Y2505710D01*
X2194306Y2505710D01*
X2180843Y2501137D01*
X2171700Y2491994D01*
X2171700Y2482850D01*
X2176272Y2473705D01*
X2180843Y2469387D01*
X2189988Y2464815D01*
X2217165Y2455671D01*
X2226309Y2451100D01*
X2230881Y2446528D01*
X2235454Y2437384D01*
X2235454Y2423921D01*
X2226309Y2414778D01*
X2212593Y2410205D01*
X2194306Y2410205D01*
X2180843Y2414778D01*
X2171700Y2423921D01*
X2333497Y2482850D02*
G01*
X2328925Y2491994D01*
X2319781Y2501137D01*
X2310891Y2505710D01*
X2292604Y2505710D01*
X2283459Y2501137D01*
X2274315Y2491994D01*
X2269997Y2482850D01*
X2265425Y2469387D01*
X2265425Y2446528D01*
X2269997Y2432812D01*
X2274315Y2423921D01*
X2283459Y2414778D01*
X2292604Y2410205D01*
X2310891Y2410205D01*
X2319781Y2414778D01*
X2328925Y2423921D01*
X2333497Y2432812D01*
X2363470Y2505710D02*
G01*
X2363470Y2410205D01*
X2363470Y2410205D02*
G01*
X2418079Y2410205D01*
X2448052Y2505710D02*
G01*
X2448052Y2410205D01*
X2511806Y2505710D02*
G01*
X2448052Y2441955D01*
X2470911Y2464815D02*
G01*
X2511806Y2410205D01*
X2171700Y2759710D02*
G01*
X2171700Y2664205D01*
X2171700Y2759710D02*
G01*
X2208022Y2664205D01*
X2244343Y2759710D02*
G01*
X2208022Y2664205D01*
X2244343Y2759710D02*
G01*
X2244343Y2664205D01*
X2274315Y2759710D02*
G01*
X2274315Y2664205D01*
X2368041Y2745994D02*
G01*
X2358897Y2755137D01*
X2345436Y2759710D01*
X2327147Y2759710D01*
X2313431Y2755137D01*
X2304541Y2745994D01*
X2304541Y2736850D01*
X2308859Y2727705D01*
X2313431Y2723387D01*
X2322575Y2718815D01*
X2350008Y2709671D01*
X2358897Y2705100D01*
X2363470Y2700528D01*
X2368041Y2691384D01*
X2368041Y2677921D01*
X2358897Y2668778D01*
X2345436Y2664205D01*
X2327147Y2664205D01*
X2313431Y2668778D01*
X2304541Y2677921D01*
X2425445Y2759710D02*
G01*
X2416302Y2755137D01*
X2407158Y2745994D01*
X2402586Y2736850D01*
X2398013Y2723387D01*
X2398013Y2700528D01*
X2402586Y2686812D01*
X2407158Y2677921D01*
X2416302Y2668778D01*
X2425445Y2664205D01*
X2443479Y2664205D01*
X2452624Y2668778D01*
X2461768Y2677921D01*
X2466340Y2686812D01*
X2470911Y2700528D01*
X2470911Y2723387D01*
X2466340Y2736850D01*
X2461768Y2745994D01*
X2452624Y2755137D01*
X2443479Y2759710D01*
X2425445Y2759710D01*
X2171700Y3026410D02*
G01*
X2171700Y2930905D01*
X2171700Y3026410D02*
G01*
X2208022Y2930905D01*
X2244343Y3026410D02*
G01*
X2208022Y2930905D01*
X2244343Y3026410D02*
G01*
X2244343Y2930905D01*
X2301747Y3026410D02*
G01*
X2292604Y3021837D01*
X2283459Y3012694D01*
X2278888Y3003550D01*
X2274315Y2990087D01*
X2274315Y2967228D01*
X2278888Y2953512D01*
X2283459Y2944621D01*
X2292604Y2935478D01*
X2301747Y2930905D01*
X2319781Y2930905D01*
X2328925Y2935478D01*
X2338070Y2944621D01*
X2342641Y2953512D01*
X2347213Y2967228D01*
X2347213Y2990087D01*
X2342641Y3003550D01*
X2338070Y3012694D01*
X2328925Y3021837D01*
X2319781Y3026410D01*
X2301747Y3026410D01*
X2440686Y3012694D02*
G01*
X2431795Y3021837D01*
X2418079Y3026410D01*
X2399791Y3026410D01*
X2386329Y3021837D01*
X2377186Y3012694D01*
X2377186Y3003550D01*
X2381758Y2994405D01*
X2386329Y2990087D01*
X2395220Y2985515D01*
X2422652Y2976371D01*
X2431795Y2971800D01*
X2436368Y2967228D01*
X2440686Y2958084D01*
X2440686Y2944621D01*
X2431795Y2935478D01*
X2418079Y2930905D01*
X2399791Y2930905D01*
X2386329Y2935478D01*
X2377186Y2944621D01*
X2470911Y3026410D02*
G01*
X2470911Y2930905D01*
D10*
X1865884Y4102100D02*
G01*
X1943861Y4102100D01*
X1959356Y4107179D01*
X1969770Y4117594D01*
X1974850Y4133342D01*
X1974850Y4143755D01*
X1969770Y4159250D01*
X1959356Y4169663D01*
X1943861Y4174744D01*
X1865884Y4174744D01*
X1865884Y4209034D02*
G01*
X1974850Y4281931D01*
X1865884Y4281931D02*
G01*
X1974850Y4209034D01*
X1886712Y4316221D02*
G01*
X1881378Y4326636D01*
X1865884Y4342129D01*
X1974850Y4342129D01*
D11*
X1778000Y3715257D02*
G01*
X1925828Y3632200D01*
X1796542Y3745737D02*
G01*
X1893570Y3745737D01*
X1796542Y3745737D02*
G01*
X1796542Y3805936D01*
X1842770Y3745737D02*
G01*
X1842770Y3782821D01*
X1893570Y3745737D02*
G01*
X1893570Y3805936D01*
X1796542Y3836415D02*
G01*
X1893570Y3836415D01*
X1796542Y3836415D02*
G01*
X1893570Y3900931D01*
X1796542Y3900931D02*
G01*
X1893570Y3900931D01*
X2040127Y3644900D02*
G01*
X2137156Y3644900D01*
X2040127Y3644900D02*
G01*
X2137156Y3681729D01*
X2040127Y3718813D02*
G01*
X2137156Y3681729D01*
X2040127Y3718813D02*
G01*
X2137156Y3718813D01*
X2053843Y3813810D02*
G01*
X2044700Y3804665D01*
X2040127Y3790950D01*
X2040127Y3772407D01*
X2044700Y3758437D01*
X2053843Y3749294D01*
X2063241Y3749294D01*
X2072386Y3753865D01*
X2076958Y3758437D01*
X2081529Y3767836D01*
X2090927Y3795521D01*
X2095500Y3804665D01*
X2100072Y3809237D01*
X2109470Y3813810D01*
X2123186Y3813810D01*
X2132329Y3804665D01*
X2137156Y3790950D01*
X2137156Y3772407D01*
X2132329Y3758437D01*
X2123186Y3749294D01*
X2058670Y3844289D02*
G01*
X2053843Y3853687D01*
X2040127Y3867404D01*
X2137156Y3867404D01*
X2306827Y3670300D02*
G01*
X2403856Y3670300D01*
X2306827Y3670300D02*
G01*
X2403856Y3707129D01*
X2306827Y3744213D02*
G01*
X2403856Y3707129D01*
X2306827Y3744213D02*
G01*
X2403856Y3744213D01*
X2320543Y3839210D02*
G01*
X2311400Y3830065D01*
X2306827Y3816350D01*
X2306827Y3797807D01*
X2311400Y3783837D01*
X2320543Y3774694D01*
X2329941Y3774694D01*
X2339086Y3779265D01*
X2343658Y3783837D01*
X2348229Y3793236D01*
X2357627Y3820921D01*
X2362200Y3830065D01*
X2366772Y3834637D01*
X2376170Y3839210D01*
X2389886Y3839210D01*
X2399029Y3830065D01*
X2403856Y3816350D01*
X2403856Y3797807D01*
X2399029Y3783837D01*
X2389886Y3774694D01*
X2329941Y3874515D02*
G01*
X2325370Y3874515D01*
X2315972Y3879087D01*
X2311400Y3883660D01*
X2306827Y3892804D01*
X2306827Y3911345D01*
X2311400Y3920489D01*
X2315972Y3925315D01*
X2325370Y3929887D01*
X2334513Y3929887D01*
X2343658Y3925315D01*
X2357627Y3915918D01*
X2403856Y3869689D01*
X2403856Y3934460D01*
X2548127Y3657600D02*
G01*
X2645156Y3657600D01*
X2548127Y3657600D02*
G01*
X2645156Y3694429D01*
X2548127Y3731513D02*
G01*
X2645156Y3694429D01*
X2548127Y3731513D02*
G01*
X2645156Y3731513D01*
X2561843Y3826510D02*
G01*
X2552700Y3817365D01*
X2548127Y3803650D01*
X2548127Y3785107D01*
X2552700Y3771137D01*
X2561843Y3761994D01*
X2571241Y3761994D01*
X2580386Y3766565D01*
X2584958Y3771137D01*
X2589529Y3780536D01*
X2598927Y3808221D01*
X2603500Y3817365D01*
X2608072Y3821937D01*
X2617470Y3826510D01*
X2631186Y3826510D01*
X2640329Y3817365D01*
X2645156Y3803650D01*
X2645156Y3785107D01*
X2640329Y3771137D01*
X2631186Y3761994D01*
X2548127Y3866387D02*
G01*
X2548127Y3917187D01*
X2584958Y3889502D01*
X2584958Y3903218D01*
X2589529Y3912615D01*
X2594356Y3917187D01*
X2608072Y3921760D01*
X2617470Y3921760D01*
X2631186Y3917187D01*
X2640329Y3907789D01*
X2645156Y3894073D01*
X2645156Y3880104D01*
X2640329Y3866387D01*
X2635758Y3861815D01*
X2626613Y3856989D01*
X2783586Y3715257D02*
G01*
X2931413Y3632200D01*
X2802127Y3745737D02*
G01*
X2899156Y3745737D01*
X2802127Y3745737D02*
G01*
X2802127Y3787394D01*
X2806700Y3801110D01*
X2811272Y3805936D01*
X2820670Y3810507D01*
X2829813Y3810507D01*
X2838958Y3805936D01*
X2843529Y3801110D01*
X2848356Y3787394D01*
X2848356Y3745737D01*
X2848356Y3778250D02*
G01*
X2899156Y3810507D01*
X2815843Y3905504D02*
G01*
X2806700Y3896360D01*
X2802127Y3882389D01*
X2802127Y3864102D01*
X2806700Y3850131D01*
X2815843Y3840987D01*
X2825241Y3840987D01*
X2834386Y3845560D01*
X2838958Y3850131D01*
X2843529Y3859529D01*
X2852927Y3887215D01*
X2857500Y3896360D01*
X2862072Y3900931D01*
X2871470Y3905504D01*
X2885186Y3905504D01*
X2894329Y3896360D01*
X2899156Y3882389D01*
X2899156Y3864102D01*
X2894329Y3850131D01*
X2885186Y3840987D01*
X2802127Y3968495D02*
G01*
X2899156Y3968495D01*
X2802127Y3935984D02*
G01*
X2802127Y4000754D01*
X3037586Y3727957D02*
G01*
X3185413Y3644900D01*
X3069843Y3823207D02*
G01*
X3060700Y3813810D01*
X3056127Y3800094D01*
X3056127Y3781552D01*
X3060700Y3767836D01*
X3069843Y3758437D01*
X3079241Y3758437D01*
X3088386Y3763010D01*
X3092958Y3767836D01*
X3097529Y3776979D01*
X3106927Y3804665D01*
X3111500Y3813810D01*
X3116072Y3818636D01*
X3125470Y3823207D01*
X3139186Y3823207D01*
X3148329Y3813810D01*
X3153156Y3800094D01*
X3153156Y3781552D01*
X3148329Y3767836D01*
X3139186Y3758437D01*
X3056127Y3853687D02*
G01*
X3153156Y3853687D01*
X3153156Y3853687D02*
G01*
X3153156Y3909060D01*
X3056127Y3939539D02*
G01*
X3153156Y3939539D01*
X3056127Y3939539D02*
G01*
X3056127Y3981195D01*
X3060700Y3994912D01*
X3065272Y3999484D01*
X3074670Y4004310D01*
X3088386Y4004310D01*
X3097529Y3999484D01*
X3102356Y3994912D01*
X3106927Y3981195D01*
X3106927Y3939539D01*
X3311143Y3709670D02*
G01*
X3302000Y3700271D01*
X3297427Y3686555D01*
X3297427Y3668013D01*
X3302000Y3654044D01*
X3311143Y3644900D01*
X3320541Y3644900D01*
X3329686Y3649471D01*
X3334258Y3654044D01*
X3338829Y3663442D01*
X3348227Y3691128D01*
X3352800Y3700271D01*
X3357372Y3704844D01*
X3366770Y3709670D01*
X3380486Y3709670D01*
X3389629Y3700271D01*
X3394456Y3686555D01*
X3394456Y3668013D01*
X3389629Y3654044D01*
X3380486Y3644900D01*
X3297427Y3772407D02*
G01*
X3394456Y3772407D01*
X3297427Y3740150D02*
G01*
X3297427Y3804665D01*
X3297427Y3835145D02*
G01*
X3394456Y3835145D01*
X3297427Y3835145D02*
G01*
X3297427Y3895089D01*
X3343656Y3835145D02*
G01*
X3343656Y3872229D01*
X3394456Y3835145D02*
G01*
X3394456Y3895089D01*
X3297427Y3925570D02*
G01*
X3394456Y3925570D01*
X3297427Y3925570D02*
G01*
X3297427Y3967226D01*
X3302000Y3981195D01*
X3306572Y3985768D01*
X3315970Y3990339D01*
X3329686Y3990339D01*
X3338829Y3985768D01*
X3343656Y3981195D01*
X3348227Y3967226D01*
X3348227Y3925570D01*
X3564127Y3657600D02*
G01*
X3661156Y3657600D01*
X3564127Y3657600D02*
G01*
X3564127Y3689857D01*
X3568700Y3703828D01*
X3577843Y3712971D01*
X3587241Y3717544D01*
X3600958Y3722370D01*
X3624072Y3722370D01*
X3638041Y3717544D01*
X3647186Y3712971D01*
X3656329Y3703828D01*
X3661156Y3689857D01*
X3661156Y3657600D01*
X3564127Y3752850D02*
G01*
X3661156Y3752850D01*
X3564127Y3783329D02*
G01*
X3661156Y3783329D01*
X3564127Y3783329D02*
G01*
X3564127Y3824731D01*
X3568700Y3838702D01*
X3573272Y3843273D01*
X3582670Y3847845D01*
X3591813Y3847845D01*
X3600958Y3843273D01*
X3605529Y3838702D01*
X3610356Y3824731D01*
X3610356Y3783329D01*
X3610356Y3815587D02*
G01*
X3661156Y3847845D01*
X1790697Y4318000D02*
G01*
X1887725Y4354829D01*
X1790697Y4391913D02*
G01*
X1887725Y4354829D01*
X1790697Y4422394D02*
G01*
X1887725Y4422394D01*
X1790697Y4422394D02*
G01*
X1887725Y4459223D01*
X1790697Y4496307D02*
G01*
X1887725Y4459223D01*
X1790697Y4496307D02*
G01*
X1887725Y4496307D01*
X1790697Y4554473D02*
G01*
X1795269Y4545329D01*
X1804413Y4535931D01*
X1813811Y4531360D01*
X1827527Y4526787D01*
X1850641Y4526787D01*
X1864611Y4531360D01*
X1873755Y4535931D01*
X1882899Y4545329D01*
X1887725Y4554473D01*
X1887725Y4573015D01*
X1882899Y4582160D01*
X1873755Y4591304D01*
X1864611Y4596129D01*
X1850641Y4600702D01*
X1827527Y4600702D01*
X1813811Y4596129D01*
X1804413Y4591304D01*
X1795269Y4582160D01*
X1790697Y4573015D01*
X1790697Y4554473D01*
X1790697Y4663439D02*
G01*
X1887725Y4663439D01*
X1790697Y4631181D02*
G01*
X1790697Y4695697D01*
X2067811Y4476242D02*
G01*
X2058413Y4471670D01*
X2049269Y4462271D01*
X2044697Y4453128D01*
X2044697Y4434586D01*
X2049269Y4425442D01*
X2058413Y4416044D01*
X2067811Y4411471D01*
X2081527Y4406900D01*
X2104641Y4406900D01*
X2118611Y4411471D01*
X2127755Y4416044D01*
X2136899Y4425442D01*
X2141725Y4434586D01*
X2141725Y4453128D01*
X2136899Y4462271D01*
X2127755Y4471670D01*
X2118611Y4476242D01*
X2104641Y4476242D01*
X2104641Y4453128D02*
G01*
X2104641Y4476242D01*
X2044697Y4506721D02*
G01*
X2141725Y4506721D01*
X2044697Y4506721D02*
G01*
X2141725Y4571237D01*
X2044697Y4571237D02*
G01*
X2141725Y4571237D01*
X2044697Y4601718D02*
G01*
X2141725Y4601718D01*
X2044697Y4601718D02*
G01*
X2044697Y4634229D01*
X2049269Y4647945D01*
X2058413Y4657089D01*
X2067811Y4661915D01*
X2081527Y4666487D01*
X2104641Y4666487D01*
X2118611Y4661915D01*
X2127755Y4657089D01*
X2136899Y4647945D01*
X2141725Y4634229D01*
X2141725Y4601718D01*
X3591811Y4476242D02*
G01*
X3582413Y4471670D01*
X3573269Y4462271D01*
X3568697Y4453128D01*
X3568697Y4434586D01*
X3573269Y4425442D01*
X3582413Y4416044D01*
X3591811Y4411471D01*
X3605527Y4406900D01*
X3628641Y4406900D01*
X3642611Y4411471D01*
X3651755Y4416044D01*
X3660899Y4425442D01*
X3665725Y4434586D01*
X3665725Y4453128D01*
X3660899Y4462271D01*
X3651755Y4471670D01*
X3642611Y4476242D01*
X3628641Y4476242D01*
X3628641Y4453128D02*
G01*
X3628641Y4476242D01*
X3568697Y4506721D02*
G01*
X3665725Y4506721D01*
X3568697Y4506721D02*
G01*
X3665725Y4571237D01*
X3568697Y4571237D02*
G01*
X3665725Y4571237D01*
X3568697Y4601718D02*
G01*
X3665725Y4601718D01*
X3568697Y4601718D02*
G01*
X3568697Y4634229D01*
X3573269Y4647945D01*
X3582413Y4657089D01*
X3591811Y4661915D01*
X3605527Y4666487D01*
X3628641Y4666487D01*
X3642611Y4661915D01*
X3651755Y4657089D01*
X3660899Y4647945D01*
X3665725Y4634229D01*
X3665725Y4601718D01*
X3348225Y4394200D02*
G01*
X3445253Y4431029D01*
X3348225Y4468113D02*
G01*
X3445253Y4431029D01*
X3348225Y4498594D02*
G01*
X3445253Y4498594D01*
X3348225Y4498594D02*
G01*
X3348225Y4530852D01*
X3352797Y4544821D01*
X3361941Y4553965D01*
X3371339Y4558537D01*
X3385055Y4563110D01*
X3408169Y4563110D01*
X3422139Y4558537D01*
X3431283Y4553965D01*
X3440427Y4544821D01*
X3445253Y4530852D01*
X3445253Y4498594D01*
X3348225Y4593589D02*
G01*
X3445253Y4593589D01*
X3348225Y4593589D02*
G01*
X3348225Y4626102D01*
X3352797Y4639818D01*
X3361941Y4649215D01*
X3371339Y4653787D01*
X3385055Y4658360D01*
X3408169Y4658360D01*
X3422139Y4653787D01*
X3431283Y4649215D01*
X3440427Y4639818D01*
X3445253Y4626102D01*
X3445253Y4593589D01*
X3091939Y4559300D02*
G01*
X3087113Y4568444D01*
X3073397Y4582413D01*
X3170425Y4582413D01*
X3073397Y4612894D02*
G01*
X3170425Y4612894D01*
X3073397Y4612894D02*
G01*
X3073397Y4654550D01*
X3077969Y4668265D01*
X3082541Y4672837D01*
X3091939Y4677410D01*
X3101083Y4677410D01*
X3110227Y4672837D01*
X3114799Y4668265D01*
X3119625Y4654550D01*
X3119625Y4612894D02*
G01*
X3119625Y4654550D01*
X3124197Y4668265D01*
X3128769Y4672837D01*
X3137913Y4677410D01*
X3151883Y4677410D01*
X3161027Y4672837D01*
X3165599Y4668265D01*
X3170425Y4654550D01*
X3170425Y4612894D01*
X2825239Y4546600D02*
G01*
X2820413Y4555744D01*
X2806697Y4569713D01*
X2903725Y4569713D01*
X2806697Y4637023D02*
G01*
X2903725Y4600194D01*
X2806697Y4637023D02*
G01*
X2903725Y4674107D01*
X2871213Y4613910D02*
G01*
X2871213Y4660137D01*
X2575811Y4513071D02*
G01*
X2571239Y4513071D01*
X2561841Y4517644D01*
X2557269Y4522470D01*
X2552697Y4531613D01*
X2552697Y4550155D01*
X2557269Y4559300D01*
X2561841Y4563871D01*
X2571239Y4568444D01*
X2580383Y4568444D01*
X2589527Y4563871D01*
X2603497Y4554728D01*
X2649725Y4508500D01*
X2649725Y4573270D01*
X2552697Y4640579D02*
G01*
X2649725Y4603750D01*
X2552697Y4640579D02*
G01*
X2649725Y4677410D01*
X2617213Y4617465D02*
G01*
X2617213Y4663694D01*
X2321811Y4513071D02*
G01*
X2317239Y4513071D01*
X2307841Y4517644D01*
X2303269Y4522470D01*
X2298697Y4531613D01*
X2298697Y4550155D01*
X2303269Y4559300D01*
X2307841Y4563871D01*
X2317239Y4568444D01*
X2326383Y4568444D01*
X2335527Y4563871D01*
X2349497Y4554728D01*
X2395725Y4508500D01*
X2395725Y4573270D01*
X2298697Y4603750D02*
G01*
X2395725Y4603750D01*
X2298697Y4603750D02*
G01*
X2298697Y4645152D01*
X2303269Y4659121D01*
X2307841Y4663694D01*
X2317239Y4668265D01*
X2326383Y4668265D01*
X2335527Y4663694D01*
X2340099Y4659121D01*
X2344925Y4645152D01*
X2344925Y4603750D02*
G01*
X2344925Y4645152D01*
X2349497Y4659121D01*
X2354069Y4663694D01*
X2363213Y4668265D01*
X2377183Y4668265D01*
X2386327Y4663694D01*
X2390899Y4659121D01*
X2395725Y4645152D01*
X2395725Y4603750D01*
X2944878Y4165600D02*
G01*
X2981708Y4262628D01*
X2944878Y4165600D02*
G01*
X2907794Y4262628D01*
X2967738Y4230115D02*
G01*
X2921764Y4230115D01*
X2831086Y4165600D02*
G01*
X2877314Y4230115D01*
X2807972Y4230115D01*
X2831086Y4165600D02*
G01*
X2831086Y4262628D01*
X2717548Y4197857D02*
G01*
X2722120Y4211828D01*
X2731518Y4220971D01*
X2745234Y4225544D01*
X2749806Y4225544D01*
X2763776Y4220971D01*
X2772920Y4211828D01*
X2777492Y4197857D01*
X2777492Y4193286D01*
X2772920Y4179315D01*
X2763776Y4170171D01*
X2749806Y4165600D01*
X2745234Y4165600D01*
X2731518Y4170171D01*
X2722120Y4179315D01*
X2717548Y4197857D01*
X2717548Y4220971D01*
X2722120Y4244086D01*
X2731518Y4257802D01*
X2745234Y4262628D01*
X2754378Y4262628D01*
X2768348Y4257802D01*
X2772920Y4248657D01*
X2663954Y4165600D02*
G01*
X2677924Y4170171D01*
X2682496Y4179315D01*
X2682496Y4188713D01*
X2677924Y4197857D01*
X2668526Y4202429D01*
X2650238Y4207002D01*
X2636268Y4211828D01*
X2627124Y4220971D01*
X2622298Y4230115D01*
X2622298Y4244086D01*
X2627124Y4253229D01*
X2631696Y4257802D01*
X2645412Y4262628D01*
X2663954Y4262628D01*
X2677924Y4257802D01*
X2682496Y4253229D01*
X2687068Y4244086D01*
X2687068Y4230115D01*
X2682496Y4220971D01*
X2673098Y4211828D01*
X2659382Y4207002D01*
X2640840Y4202429D01*
X2631696Y4197857D01*
X2627124Y4188713D01*
X2627124Y4179315D01*
X2631696Y4170171D01*
X2645412Y4165600D01*
X2663954Y4165600D01*
X2568958Y4165600D02*
G01*
X2582674Y4170171D01*
X2587246Y4179315D01*
X2587246Y4188713D01*
X2582674Y4197857D01*
X2573530Y4202429D01*
X2554988Y4207002D01*
X2541018Y4211828D01*
X2531874Y4220971D01*
X2527302Y4230115D01*
X2527302Y4244086D01*
X2531874Y4253229D01*
X2536446Y4257802D01*
X2550416Y4262628D01*
X2568958Y4262628D01*
X2582674Y4257802D01*
X2587246Y4253229D01*
X2591818Y4244086D01*
X2591818Y4230115D01*
X2587246Y4220971D01*
X2578102Y4211828D01*
X2564132Y4207002D01*
X2545844Y4202429D01*
X2536446Y4197857D01*
X2531874Y4188713D01*
X2531874Y4179315D01*
X2536446Y4170171D01*
X2550416Y4165600D01*
X2568958Y4165600D01*
D10*
X4966710Y1844233D02*
G01*
X4961630Y1854647D01*
X4951216Y1865061D01*
X4940802Y1870395D01*
X4925054Y1875475D01*
X4899146Y1875475D01*
X4883652Y1870395D01*
X4873238Y1865061D01*
X4862824Y1854647D01*
X4857744Y1844233D01*
X4857744Y1823405D01*
X4862824Y1813245D01*
X4873238Y1802831D01*
X4883652Y1797497D01*
X4899146Y1792417D01*
X4925054Y1792417D01*
X4940802Y1797497D01*
X4951216Y1802831D01*
X4961630Y1813245D01*
X4966710Y1823405D01*
X4966710Y1844233D01*
X4966710Y1758127D02*
G01*
X4888732Y1758127D01*
X4873238Y1752793D01*
X4862824Y1742379D01*
X4857744Y1726885D01*
X4857744Y1716471D01*
X4862824Y1700977D01*
X4873238Y1690563D01*
X4888732Y1685229D01*
X4966710Y1685229D01*
X4966710Y1614617D02*
G01*
X4857744Y1614617D01*
X4966710Y1650939D02*
G01*
X4966710Y1578295D01*
X4966710Y1544005D02*
G01*
X4857744Y1544005D01*
X4966710Y1544005D02*
G01*
X4966710Y1497269D01*
X4961630Y1481775D01*
X4956296Y1476441D01*
X4945882Y1471361D01*
X4930388Y1471361D01*
X4919974Y1476441D01*
X4914894Y1481775D01*
X4909560Y1497269D01*
X4909560Y1544005D01*
X4821168Y1437071D02*
G01*
X4821168Y1343345D01*
X4966710Y1236411D02*
G01*
X4857744Y1288481D01*
X4966710Y1309055D02*
G01*
X4966710Y1236411D01*
X4941315Y3342843D02*
G01*
X4936236Y3353257D01*
X4925822Y3363671D01*
X4915408Y3369005D01*
X4899659Y3374085D01*
X4873752Y3374085D01*
X4858258Y3369005D01*
X4847843Y3363671D01*
X4837429Y3353257D01*
X4832350Y3342843D01*
X4832350Y3322015D01*
X4837429Y3311855D01*
X4847843Y3301441D01*
X4858258Y3296107D01*
X4873752Y3291027D01*
X4899659Y3291027D01*
X4915408Y3296107D01*
X4925822Y3301441D01*
X4936236Y3311855D01*
X4941315Y3322015D01*
X4941315Y3342843D01*
X4941315Y3256737D02*
G01*
X4863338Y3256737D01*
X4847843Y3251403D01*
X4837429Y3240989D01*
X4832350Y3225495D01*
X4832350Y3215081D01*
X4837429Y3199587D01*
X4847843Y3189173D01*
X4863338Y3183839D01*
X4941315Y3183839D01*
X4941315Y3113227D02*
G01*
X4832350Y3113227D01*
X4941315Y3149549D02*
G01*
X4941315Y3076905D01*
X4941315Y3042615D02*
G01*
X4832350Y3042615D01*
X4941315Y3042615D02*
G01*
X4941315Y2995879D01*
X4936236Y2980385D01*
X4930902Y2975051D01*
X4920488Y2969971D01*
X4904993Y2969971D01*
X4894579Y2975051D01*
X4889500Y2980385D01*
X4884165Y2995879D01*
X4884165Y3042615D01*
X4795774Y2935681D02*
G01*
X4795774Y2841955D01*
X4941315Y2781757D02*
G01*
X4936236Y2797505D01*
X4925822Y2802585D01*
X4915408Y2802585D01*
X4904993Y2797505D01*
X4899659Y2787091D01*
X4894579Y2766263D01*
X4889500Y2750515D01*
X4879086Y2740355D01*
X4868672Y2735021D01*
X4852924Y2735021D01*
X4842509Y2740355D01*
X4837429Y2745435D01*
X4832350Y2760929D01*
X4832350Y2781757D01*
X4837429Y2797505D01*
X4842509Y2802585D01*
X4852924Y2807665D01*
X4868672Y2807665D01*
X4879086Y2802585D01*
X4889500Y2792171D01*
X4894579Y2776677D01*
X4899659Y2755849D01*
X4904993Y2745435D01*
X4915408Y2740355D01*
X4925822Y2740355D01*
X4936236Y2745435D01*
X4941315Y2760929D01*
X4941315Y2781757D01*
X4389041Y5724601D02*
G01*
X4378627Y5719521D01*
X4368213Y5709107D01*
X4362879Y5698693D01*
X4357799Y5682945D01*
X4357799Y5657037D01*
X4362879Y5641543D01*
X4368213Y5631129D01*
X4378627Y5620715D01*
X4389041Y5615635D01*
X4409869Y5615635D01*
X4420029Y5620715D01*
X4430443Y5631129D01*
X4435777Y5641543D01*
X4440857Y5657037D01*
X4440857Y5682945D01*
X4435777Y5698693D01*
X4430443Y5709107D01*
X4420029Y5719521D01*
X4409869Y5724601D01*
X4389041Y5724601D01*
X4475147Y5724601D02*
G01*
X4475147Y5646623D01*
X4480481Y5631129D01*
X4490895Y5620715D01*
X4506389Y5615635D01*
X4516803Y5615635D01*
X4532297Y5620715D01*
X4542711Y5631129D01*
X4548045Y5646623D01*
X4548045Y5724601D01*
X4618657Y5724601D02*
G01*
X4618657Y5615635D01*
X4582335Y5724601D02*
G01*
X4654979Y5724601D01*
X4689269Y5724601D02*
G01*
X4689269Y5615635D01*
X4689269Y5724601D02*
G01*
X4736005Y5724601D01*
X4751499Y5719521D01*
X4756833Y5714187D01*
X4761913Y5703773D01*
X4761913Y5688279D01*
X4756833Y5677865D01*
X4751499Y5672785D01*
X4736005Y5667451D01*
X4689269Y5667451D01*
X4796203Y5579059D02*
G01*
X4889929Y5579059D01*
X4991529Y5688279D02*
G01*
X4986449Y5672785D01*
X4976035Y5662371D01*
X4960541Y5657037D01*
X4955207Y5657037D01*
X4939713Y5662371D01*
X4929299Y5672785D01*
X4924219Y5688279D01*
X4924219Y5693359D01*
X4929299Y5709107D01*
X4939713Y5719521D01*
X4955207Y5724601D01*
X4960541Y5724601D01*
X4976035Y5719521D01*
X4986449Y5709107D01*
X4991529Y5688279D01*
X4991529Y5662371D01*
X4986449Y5636209D01*
X4976035Y5620715D01*
X4960541Y5615635D01*
X4950127Y5615635D01*
X4934379Y5620715D01*
X4929299Y5631129D01*
X3790441Y5902401D02*
G01*
X3780027Y5897321D01*
X3769613Y5886907D01*
X3764279Y5876493D01*
X3759200Y5860745D01*
X3759200Y5834837D01*
X3764279Y5819343D01*
X3769613Y5808929D01*
X3780027Y5798515D01*
X3790441Y5793435D01*
X3811270Y5793435D01*
X3821429Y5798515D01*
X3831843Y5808929D01*
X3837177Y5819343D01*
X3842258Y5834837D01*
X3842258Y5860745D01*
X3837177Y5876493D01*
X3831843Y5886907D01*
X3821429Y5897321D01*
X3811270Y5902401D01*
X3790441Y5902401D01*
X3876547Y5902401D02*
G01*
X3876547Y5824423D01*
X3881881Y5808929D01*
X3892295Y5798515D01*
X3907790Y5793435D01*
X3918204Y5793435D01*
X3933697Y5798515D01*
X3944111Y5808929D01*
X3949445Y5824423D01*
X3949445Y5902401D01*
X4020058Y5902401D02*
G01*
X4020058Y5793435D01*
X3983736Y5902401D02*
G01*
X4056379Y5902401D01*
X4090670Y5902401D02*
G01*
X4090670Y5793435D01*
X4090670Y5902401D02*
G01*
X4137406Y5902401D01*
X4152900Y5897321D01*
X4158234Y5891987D01*
X4163313Y5881573D01*
X4163313Y5866079D01*
X4158234Y5855665D01*
X4152900Y5850585D01*
X4137406Y5845251D01*
X4090670Y5845251D01*
X4197604Y5756859D02*
G01*
X4291329Y5756859D01*
X4325620Y5881573D02*
G01*
X4335779Y5886907D01*
X4351527Y5902401D01*
X4351527Y5793435D01*
X4417059Y5902401D02*
G01*
X4401311Y5897321D01*
X4390897Y5881573D01*
X4385818Y5855665D01*
X4385818Y5840171D01*
X4390897Y5814009D01*
X4401311Y5798515D01*
X4417059Y5793435D01*
X4427220Y5793435D01*
X4442968Y5798515D01*
X4453381Y5814009D01*
X4458461Y5840171D01*
X4458461Y5855665D01*
X4453381Y5881573D01*
X4442968Y5897321D01*
X4427220Y5902401D01*
X4417059Y5902401D01*
X712978Y2866651D02*
G01*
X702563Y2856237D01*
X697484Y2840743D01*
X697484Y2819915D01*
X702563Y2804421D01*
X712978Y2794007D01*
X723392Y2794007D01*
X733805Y2799087D01*
X739139Y2804421D01*
X744220Y2814835D01*
X754634Y2846077D01*
X759713Y2856237D01*
X765047Y2861571D01*
X775462Y2866651D01*
X790955Y2866651D01*
X801370Y2856237D01*
X806450Y2840743D01*
X806450Y2819915D01*
X801370Y2804421D01*
X790955Y2794007D01*
X697484Y2900941D02*
G01*
X806450Y2900941D01*
X697484Y2900941D02*
G01*
X697484Y2968505D01*
X749300Y2900941D02*
G01*
X749300Y2942597D01*
X806450Y2900941D02*
G01*
X806450Y2968505D01*
X697484Y3002795D02*
G01*
X806450Y3002795D01*
X697484Y3002795D02*
G01*
X806450Y3075693D01*
X697484Y3075693D02*
G01*
X806450Y3075693D01*
X712978Y3182627D02*
G01*
X702563Y3172213D01*
X697484Y3156719D01*
X697484Y3135891D01*
X702563Y3120397D01*
X712978Y3109983D01*
X723392Y3109983D01*
X733805Y3115063D01*
X739139Y3120397D01*
X744220Y3130557D01*
X754634Y3161799D01*
X759713Y3172213D01*
X765047Y3177547D01*
X775462Y3182627D01*
X790955Y3182627D01*
X801370Y3172213D01*
X806450Y3156719D01*
X806450Y3135891D01*
X801370Y3120397D01*
X790955Y3109983D01*
X843026Y3216917D02*
G01*
X843026Y3310389D01*
X697484Y3386335D02*
G01*
X806450Y3344679D01*
X697484Y3386335D02*
G01*
X806450Y3427737D01*
X770128Y3360427D02*
G01*
X770128Y3412243D01*
X697484Y3493269D02*
G01*
X702563Y3477775D01*
X718312Y3467361D01*
X744220Y3462027D01*
X759713Y3462027D01*
X785876Y3467361D01*
X801370Y3477775D01*
X806450Y3493269D01*
X806450Y3503683D01*
X801370Y3519177D01*
X785876Y3529591D01*
X759713Y3534925D01*
X744220Y3534925D01*
X718312Y3529591D01*
X702563Y3519177D01*
X697484Y3503683D01*
X697484Y3493269D01*
X1012444Y3097021D02*
G01*
X1002029Y3107436D01*
X986536Y3112515D01*
X965707Y3112515D01*
X950213Y3107436D01*
X939800Y3097021D01*
X939800Y3086607D01*
X944879Y3076194D01*
X950213Y3070860D01*
X960628Y3065779D01*
X991870Y3055365D01*
X1002029Y3050286D01*
X1007363Y3044952D01*
X1012444Y3034537D01*
X1012444Y3019044D01*
X1002029Y3008629D01*
X986536Y3003550D01*
X965707Y3003550D01*
X950213Y3008629D01*
X939800Y3019044D01*
X1046734Y3112515D02*
G01*
X1072895Y3003550D01*
X1098804Y3112515D02*
G01*
X1072895Y3003550D01*
X1098804Y3112515D02*
G01*
X1124712Y3003550D01*
X1150620Y3112515D02*
G01*
X1124712Y3003550D01*
X1226565Y3112515D02*
G01*
X1184910Y3003550D01*
X1226565Y3112515D02*
G01*
X1268221Y3003550D01*
X1200657Y3039871D02*
G01*
X1252473Y3039871D01*
X1333500Y3112515D02*
G01*
X1318005Y3107436D01*
X1307592Y3091687D01*
X1302512Y3065779D01*
X1302512Y3050286D01*
X1307592Y3024123D01*
X1318005Y3008629D01*
X1333500Y3003550D01*
X1343913Y3003550D01*
X1359662Y3008629D01*
X1370076Y3024123D01*
X1375155Y3050286D01*
X1375155Y3065779D01*
X1370076Y3091687D01*
X1359662Y3107436D01*
X1343913Y3112515D01*
X1333500Y3112515D01*
X1012189Y2360676D02*
G01*
X1001776Y2371089D01*
X986028Y2376170D01*
X965454Y2376170D01*
X949705Y2371089D01*
X939292Y2360676D01*
X939292Y2350262D01*
X944626Y2339847D01*
X949705Y2334768D01*
X960120Y2329434D01*
X991362Y2319020D01*
X1001776Y2313939D01*
X1006855Y2308605D01*
X1012189Y2298445D01*
X1012189Y2282697D01*
X1001776Y2272284D01*
X986028Y2267204D01*
X965454Y2267204D01*
X949705Y2272284D01*
X939292Y2282697D01*
X1046479Y2376170D02*
G01*
X1072387Y2267204D01*
X1098295Y2376170D02*
G01*
X1072387Y2267204D01*
X1098295Y2376170D02*
G01*
X1124204Y2267204D01*
X1150365Y2376170D02*
G01*
X1124204Y2267204D01*
X1226057Y2376170D02*
G01*
X1184655Y2267204D01*
X1226057Y2376170D02*
G01*
X1267713Y2267204D01*
X1200150Y2303526D02*
G01*
X1252220Y2303526D01*
X1302004Y2355595D02*
G01*
X1312418Y2360676D01*
X1327912Y2376170D01*
X1327912Y2267204D01*
X687585Y377431D02*
G01*
X677171Y367017D01*
X672091Y351523D01*
X672091Y330695D01*
X677171Y315201D01*
X687585Y304787D01*
X697999Y304787D01*
X708413Y309867D01*
X713747Y315201D01*
X718827Y325615D01*
X729241Y356857D01*
X734321Y367017D01*
X739655Y372351D01*
X750069Y377431D01*
X765563Y377431D01*
X775977Y367017D01*
X781057Y351523D01*
X781057Y330695D01*
X775977Y315201D01*
X765563Y304787D01*
X672091Y411721D02*
G01*
X781057Y411721D01*
X672091Y411721D02*
G01*
X672091Y479285D01*
X723907Y411721D02*
G01*
X723907Y453377D01*
X781057Y411721D02*
G01*
X781057Y479285D01*
X672091Y513575D02*
G01*
X781057Y513575D01*
X672091Y513575D02*
G01*
X781057Y586473D01*
X672091Y586473D02*
G01*
X781057Y586473D01*
X687585Y693407D02*
G01*
X677171Y682993D01*
X672091Y667499D01*
X672091Y646671D01*
X677171Y631177D01*
X687585Y620763D01*
X697999Y620763D01*
X708413Y625843D01*
X713747Y631177D01*
X718827Y641337D01*
X729241Y672579D01*
X734321Y682993D01*
X739655Y688327D01*
X750069Y693407D01*
X765563Y693407D01*
X775977Y682993D01*
X781057Y667499D01*
X781057Y646671D01*
X775977Y631177D01*
X765563Y620763D01*
X817633Y727697D02*
G01*
X817633Y821169D01*
X672091Y897115D02*
G01*
X781057Y855459D01*
X672091Y897115D02*
G01*
X781057Y938517D01*
X744735Y871207D02*
G01*
X744735Y923023D01*
X672091Y983221D02*
G01*
X672091Y1040371D01*
X713747Y1009383D01*
X713747Y1024877D01*
X718827Y1035291D01*
X723907Y1040371D01*
X739655Y1045705D01*
X750069Y1045705D01*
X765563Y1040371D01*
X775977Y1029957D01*
X781057Y1014463D01*
X781057Y998969D01*
X775977Y983221D01*
X770897Y978141D01*
X760483Y972807D01*
X948733Y633389D02*
G01*
X938319Y643803D01*
X922825Y648883D01*
X901997Y648883D01*
X886503Y643803D01*
X876089Y633389D01*
X876089Y622975D01*
X881169Y612561D01*
X886503Y607227D01*
X896917Y602147D01*
X928159Y591733D01*
X938319Y586653D01*
X943653Y581319D01*
X948733Y570905D01*
X948733Y555411D01*
X938319Y544997D01*
X922825Y539917D01*
X901997Y539917D01*
X886503Y544997D01*
X876089Y555411D01*
X983023Y648883D02*
G01*
X1009185Y539917D01*
X1035093Y648883D02*
G01*
X1009185Y539917D01*
X1035093Y648883D02*
G01*
X1061001Y539917D01*
X1086909Y648883D02*
G01*
X1061001Y539917D01*
X1162855Y648883D02*
G01*
X1121199Y539917D01*
X1162855Y648883D02*
G01*
X1204511Y539917D01*
X1136947Y576239D02*
G01*
X1188763Y576239D01*
X1249215Y648883D02*
G01*
X1306365Y648883D01*
X1275123Y607227D01*
X1290617Y607227D01*
X1301031Y602147D01*
X1306365Y597067D01*
X1311445Y581319D01*
X1311445Y570905D01*
X1306365Y555411D01*
X1295951Y544997D01*
X1280203Y539917D01*
X1264709Y539917D01*
X1249215Y544997D01*
X1243881Y550077D01*
X1238801Y560491D01*
X700270Y1228338D02*
G01*
X689856Y1217924D01*
X684776Y1202430D01*
X684776Y1181602D01*
X689856Y1166108D01*
X700270Y1155694D01*
X710684Y1155694D01*
X721098Y1160774D01*
X726432Y1166108D01*
X731512Y1176522D01*
X741926Y1207764D01*
X747006Y1217924D01*
X752340Y1223258D01*
X762754Y1228338D01*
X778248Y1228338D01*
X788662Y1217924D01*
X793742Y1202430D01*
X793742Y1181602D01*
X788662Y1166108D01*
X778248Y1155694D01*
X684776Y1262628D02*
G01*
X793742Y1262628D01*
X684776Y1262628D02*
G01*
X684776Y1330192D01*
X736592Y1262628D02*
G01*
X736592Y1304284D01*
X793742Y1262628D02*
G01*
X793742Y1330192D01*
X684776Y1364482D02*
G01*
X793742Y1364482D01*
X684776Y1364482D02*
G01*
X793742Y1437380D01*
X684776Y1437380D02*
G01*
X793742Y1437380D01*
X700270Y1544314D02*
G01*
X689856Y1533900D01*
X684776Y1518406D01*
X684776Y1497578D01*
X689856Y1482084D01*
X700270Y1471670D01*
X710684Y1471670D01*
X721098Y1476750D01*
X726432Y1482084D01*
X731512Y1492244D01*
X741926Y1523486D01*
X747006Y1533900D01*
X752340Y1539234D01*
X762754Y1544314D01*
X778248Y1544314D01*
X788662Y1533900D01*
X793742Y1518406D01*
X793742Y1497578D01*
X788662Y1482084D01*
X778248Y1471670D01*
X830318Y1578604D02*
G01*
X830318Y1672076D01*
X684776Y1748022D02*
G01*
X793742Y1706366D01*
X684776Y1748022D02*
G01*
X793742Y1789424D01*
X757420Y1722114D02*
G01*
X757420Y1773930D01*
X710684Y1829048D02*
G01*
X705604Y1829048D01*
X695190Y1834128D01*
X689856Y1839462D01*
X684776Y1849876D01*
X684776Y1870704D01*
X689856Y1880864D01*
X695190Y1886198D01*
X705604Y1891278D01*
X716018Y1891278D01*
X726432Y1886198D01*
X741926Y1875784D01*
X793742Y1823714D01*
X793742Y1896612D01*
X935822Y1471754D02*
G01*
X925408Y1482168D01*
X909914Y1487248D01*
X889086Y1487248D01*
X873592Y1482168D01*
X863178Y1471754D01*
X863178Y1461340D01*
X868258Y1450926D01*
X873592Y1445592D01*
X884006Y1440512D01*
X915248Y1430098D01*
X925408Y1425018D01*
X930742Y1419684D01*
X935822Y1409270D01*
X935822Y1393776D01*
X925408Y1383362D01*
X909914Y1378282D01*
X889086Y1378282D01*
X873592Y1383362D01*
X863178Y1393776D01*
X970112Y1487248D02*
G01*
X996274Y1378282D01*
X1022182Y1487248D02*
G01*
X996274Y1378282D01*
X1022182Y1487248D02*
G01*
X1048090Y1378282D01*
X1073998Y1487248D02*
G01*
X1048090Y1378282D01*
X1149944Y1487248D02*
G01*
X1108288Y1378282D01*
X1149944Y1487248D02*
G01*
X1191600Y1378282D01*
X1124036Y1414604D02*
G01*
X1175852Y1414604D01*
X1230970Y1461340D02*
G01*
X1230970Y1466420D01*
X1236304Y1476834D01*
X1241384Y1482168D01*
X1251798Y1487248D01*
X1272626Y1487248D01*
X1283040Y1482168D01*
X1288120Y1476834D01*
X1293454Y1466420D01*
X1293454Y1456006D01*
X1288120Y1445592D01*
X1277706Y1430098D01*
X1225890Y1378282D01*
X1298534Y1378282D01*
X700285Y2168146D02*
G01*
X689871Y2157732D01*
X684791Y2142238D01*
X684791Y2121410D01*
X689871Y2105916D01*
X700285Y2095502D01*
X710699Y2095502D01*
X721113Y2100582D01*
X726447Y2105916D01*
X731527Y2116330D01*
X741941Y2147572D01*
X747021Y2157732D01*
X752355Y2163066D01*
X762769Y2168146D01*
X778263Y2168146D01*
X788677Y2157732D01*
X793757Y2142238D01*
X793757Y2121410D01*
X788677Y2105916D01*
X778263Y2095502D01*
X684791Y2202436D02*
G01*
X793757Y2202436D01*
X684791Y2202436D02*
G01*
X684791Y2270000D01*
X736607Y2202436D02*
G01*
X736607Y2244092D01*
X793757Y2202436D02*
G01*
X793757Y2270000D01*
X684791Y2304290D02*
G01*
X793757Y2304290D01*
X684791Y2304290D02*
G01*
X793757Y2377188D01*
X684791Y2377188D02*
G01*
X793757Y2377188D01*
X700285Y2484122D02*
G01*
X689871Y2473708D01*
X684791Y2458214D01*
X684791Y2437386D01*
X689871Y2421892D01*
X700285Y2411478D01*
X710699Y2411478D01*
X721113Y2416558D01*
X726447Y2421892D01*
X731527Y2432052D01*
X741941Y2463294D01*
X747021Y2473708D01*
X752355Y2479042D01*
X762769Y2484122D01*
X778263Y2484122D01*
X788677Y2473708D01*
X793757Y2458214D01*
X793757Y2437386D01*
X788677Y2421892D01*
X778263Y2411478D01*
X830333Y2518412D02*
G01*
X830333Y2611884D01*
X684791Y2687830D02*
G01*
X793757Y2646174D01*
X684791Y2687830D02*
G01*
X793757Y2729232D01*
X757435Y2661922D02*
G01*
X757435Y2713738D01*
X705619Y2763522D02*
G01*
X700285Y2773936D01*
X684791Y2789684D01*
X793757Y2789684D01*
G36*
X4345584Y1310386D02*
G01*
X4345584Y1270406D01*
X4373626Y1270406D01*
X4372610Y1310386D01*
G37*
G36*
X4345584Y1065428D02*
G01*
X4345584Y1025398D01*
X4373626Y1025398D01*
X4373626Y1065428D01*
G37*
G36*
X4307484Y2847086D02*
G01*
X4307484Y2807106D01*
X4335526Y2807106D01*
X4334510Y2847086D01*
G37*
G36*
X4307484Y2602128D02*
G01*
X4307484Y2562098D01*
X4335526Y2562098D01*
X4335526Y2602128D01*
G37*
G36*
X4808474Y4609693D02*
G01*
X4809490Y4569714D01*
X4836515Y4569714D01*
X4836515Y4609693D01*
G37*
G36*
X4808474Y4854702D02*
G01*
X4808474Y4814671D01*
X4836515Y4814671D01*
X4836515Y4854702D01*
G37*
G36*
X4224274Y4609693D02*
G01*
X4225290Y4569714D01*
X4252315Y4569714D01*
X4252315Y4609693D01*
G37*
G36*
X4224274Y4854702D02*
G01*
X4224274Y4814671D01*
X4252315Y4814671D01*
X4252315Y4854702D01*
G37*
G36*
X652119Y5672124D02*
G01*
X639368Y5658104D01*
X627227Y5643626D01*
X615746Y5628589D01*
X604926Y5613044D01*
X594817Y5597093D01*
X585368Y5580684D01*
X576681Y5563870D01*
X568706Y5546750D01*
X561492Y5529275D01*
X555040Y5511495D01*
X549351Y5493410D01*
X544474Y5475173D01*
X540410Y5456682D01*
X537108Y5438038D01*
X534670Y5419293D01*
X533044Y5400446D01*
X532180Y5381548D01*
X532180Y5362651D01*
X533044Y5343753D01*
X534670Y5324906D01*
X537108Y5306161D01*
X540410Y5287518D01*
X544474Y5269026D01*
X549351Y5250789D01*
X555040Y5232704D01*
X561492Y5214924D01*
X568706Y5197449D01*
X576681Y5180330D01*
X585368Y5163515D01*
X594817Y5147106D01*
X604926Y5131155D01*
X615746Y5115610D01*
X627227Y5100574D01*
X639368Y5086096D01*
X652119Y5072075D01*
G37*
G36*
X1584960Y5012639D02*
G01*
X1584960Y4997450D01*
X1630680Y4997450D01*
X1630680Y5012639D01*
G37*
G36*
X1584960Y5187950D02*
G01*
X1584960Y5172760D01*
X1630680Y5172760D01*
X1630680Y5187950D01*
G37*
D12*
X-25890Y4090324D02*
G01*
X-25892Y4990325D01*
X-25892Y4990325D02*
G01*
X1414145Y4990325D01*
X344144Y4090327D02*
G01*
X344144Y4990325D01*
X352145Y4220324D02*
G01*
X1414145Y4220324D01*
X352145Y4860302D02*
G01*
X1414145Y4860302D01*
X1414145Y4990325D02*
G01*
X1414145Y4782764D01*
X1414145Y4297862D02*
G01*
X1414145Y4090324D01*
X-25890Y4090324D02*
G01*
X812639Y4090324D01*
X1315575Y4090324D02*
G01*
X1414145Y4090324D01*
X2107311Y5103901D02*
G01*
X2107311Y5803900D01*
X2107311Y5803900D02*
G01*
X3356229Y5803900D01*
X3356229Y5100320D02*
G01*
X3356229Y5800318D01*
X2107311Y5102860D02*
G01*
X2203831Y5102860D01*
X2203831Y5102860D02*
G01*
X2247011Y5102860D01*
X2247011Y5161279D01*
X2460370Y5161279D01*
X2460370Y5107939D01*
X2501011Y5107939D01*
X2501011Y5153660D01*
X2462911Y5107939D02*
G01*
X2501011Y5107939D01*
X2501011Y5161279D01*
X2706750Y5161279D01*
X2706750Y5108702D01*
X2752725Y5108702D01*
X2752725Y5154421D01*
X2706750Y5107939D02*
G01*
X2752470Y5107939D01*
X2752470Y5161279D01*
X2958465Y5161279D01*
X2958465Y5113020D01*
X2999104Y5113020D01*
X2999104Y5158739D01*
X2998088Y5161279D02*
G01*
X3058540Y5161279D01*
X3213988Y5161279D01*
X3213988Y5100320D01*
X3356229Y5100320D01*
X1714500Y3403600D02*
G01*
X1714500Y4927600D01*
X3746500Y4927600D01*
X3746500Y3403600D01*
X1714500Y3403600D01*
D10*
X4457410Y1303517D02*
G01*
X4457410Y1033282D01*
D13*
X4729205Y1065385D02*
G01*
X4729205Y1033282D01*
X4729205Y1303517D02*
G01*
X4729205Y1271414D01*
D10*
X4363968Y1303517D02*
G01*
X4729205Y1303517D01*
X4363968Y1033282D02*
G01*
X4729205Y1033282D01*
X4600978Y495079D02*
G01*
X4746221Y495079D01*
X4746221Y598241D01*
X4600978Y800320D02*
G01*
X4746221Y800320D01*
X4746221Y697158D01*
X4600978Y602160D02*
G01*
X4600978Y693239D01*
D12*
X4494529Y789939D02*
G01*
X4494529Y962660D01*
X4494529Y962660D02*
G01*
X4347209Y962660D01*
X4494529Y789939D02*
G01*
X4347209Y789939D01*
X4288790Y962660D02*
G01*
X4171950Y962660D01*
X4286250Y789939D02*
G01*
X4171950Y789939D01*
X4171950Y789939D02*
G01*
X4136390Y825500D01*
X4136390Y927100D01*
X4171950Y962660D01*
D14*
X4325620Y835660D02*
G01*
X4325620Y914400D01*
X4325620Y875504D02*
G01*
X4308083Y875504D01*
D12*
X4708499Y1724723D02*
G01*
X4708499Y1469453D01*
X4828499Y1724723D02*
G01*
X4828499Y1849549D01*
X4708499Y1849549D01*
X4828499Y1469453D02*
G01*
X4828499Y1341549D01*
X4708499Y1341549D01*
X4828499Y1469453D02*
G01*
X4828499Y1724723D01*
X4708499Y1341549D02*
G01*
X4248500Y1341549D01*
X4248500Y1849549D02*
G01*
X4708499Y1849549D01*
X4708499Y1469453D02*
G01*
X4828499Y1469453D01*
X4708499Y1724723D02*
G01*
X4828499Y1724723D01*
X4248500Y1849549D02*
G01*
X4248500Y1341549D01*
D10*
X4419310Y2840217D02*
G01*
X4419310Y2569982D01*
D13*
X4691105Y2602085D02*
G01*
X4691105Y2569982D01*
X4691105Y2840217D02*
G01*
X4691105Y2808114D01*
D10*
X4325868Y2840217D02*
G01*
X4691105Y2840217D01*
X4325868Y2569982D02*
G01*
X4691105Y2569982D01*
X4724689Y4576582D02*
G01*
X4724689Y4846817D01*
D13*
X4452894Y4814714D02*
G01*
X4452894Y4846817D01*
X4452894Y4576582D02*
G01*
X4452894Y4608685D01*
D10*
X4818131Y4576582D02*
G01*
X4452894Y4576582D01*
X4818131Y4846817D02*
G01*
X4452894Y4846817D01*
X4140489Y4576582D02*
G01*
X4140489Y4846817D01*
D13*
X3868694Y4814714D02*
G01*
X3868694Y4846817D01*
X3868694Y4576582D02*
G01*
X3868694Y4608685D01*
D10*
X4233931Y4576582D02*
G01*
X3868694Y4576582D01*
X4233931Y4846817D02*
G01*
X3868694Y4846817D01*
X4562878Y2082579D02*
G01*
X4708121Y2082579D01*
X4708121Y2185741D01*
X4562878Y2387820D02*
G01*
X4708121Y2387820D01*
X4708121Y2284658D01*
X4562878Y2189660D02*
G01*
X4562878Y2280739D01*
X4686520Y4194578D02*
G01*
X4686520Y4339821D01*
X4583358Y4339821D01*
X4381279Y4194578D02*
G01*
X4381279Y4339821D01*
X4484441Y4339821D01*
X4579439Y4194578D02*
G01*
X4488360Y4194578D01*
X4203920Y4258078D02*
G01*
X4203920Y4403321D01*
X4100758Y4403321D01*
X3898679Y4258078D02*
G01*
X3898679Y4403321D01*
X4001841Y4403321D01*
X4096839Y4258078D02*
G01*
X4005760Y4258078D01*
D12*
X4418329Y2313939D02*
G01*
X4418329Y2486660D01*
X4418329Y2486660D02*
G01*
X4271009Y2486660D01*
X4418329Y2313939D02*
G01*
X4271009Y2313939D01*
X4212590Y2486660D02*
G01*
X4095750Y2486660D01*
X4210050Y2313939D02*
G01*
X4095750Y2313939D01*
X4095750Y2313939D02*
G01*
X4060190Y2349500D01*
X4060190Y2451100D01*
X4095750Y2486660D01*
D14*
X4249420Y2359660D02*
G01*
X4249420Y2438400D01*
X4249420Y2399504D02*
G01*
X4231883Y2399504D01*
D12*
X4493259Y3910329D02*
G01*
X4320540Y3910329D01*
X4320540Y3910329D02*
G01*
X4320540Y3763010D01*
X4493259Y3910329D02*
G01*
X4493259Y3763010D01*
X4320540Y3704589D02*
G01*
X4320540Y3587750D01*
X4493259Y3702050D02*
G01*
X4493259Y3587750D01*
X4493259Y3587750D02*
G01*
X4457700Y3552189D01*
X4356100Y3552189D01*
X4320540Y3587750D01*
D14*
X4447540Y3741420D02*
G01*
X4368800Y3741420D01*
X4407695Y3741420D02*
G01*
X4407695Y3723883D01*
D12*
X4048759Y3986529D02*
G01*
X3876040Y3986529D01*
X3876040Y3986529D02*
G01*
X3876040Y3839210D01*
X4048759Y3986529D02*
G01*
X4048759Y3839210D01*
X3876040Y3780789D02*
G01*
X3876040Y3663950D01*
X4048759Y3778250D02*
G01*
X4048759Y3663950D01*
X4048759Y3663950D02*
G01*
X4013200Y3628389D01*
X3911600Y3628389D01*
X3876040Y3663950D01*
D14*
X4003040Y3817620D02*
G01*
X3924300Y3817620D01*
X3963195Y3817620D02*
G01*
X3963195Y3800083D01*
D12*
X4695799Y3278774D02*
G01*
X4695799Y3023504D01*
X4815799Y3278774D02*
G01*
X4815799Y3403600D01*
X4695799Y3403600D01*
X4815799Y3023504D02*
G01*
X4815799Y2895600D01*
X4695799Y2895600D01*
X4815799Y3023504D02*
G01*
X4815799Y3278774D01*
X4695799Y2895600D02*
G01*
X4235800Y2895600D01*
X4235800Y3403600D02*
G01*
X4695799Y3403600D01*
X4695799Y3023504D02*
G01*
X4815799Y3023504D01*
X4695799Y3278774D02*
G01*
X4815799Y3278774D01*
X4235800Y3403600D02*
G01*
X4235800Y2895600D01*
X4582525Y5343499D02*
G01*
X4837795Y5343499D01*
X4582525Y5463499D02*
G01*
X4457700Y5463499D01*
X4457700Y5343499D01*
X4837795Y5463499D02*
G01*
X4965700Y5463499D01*
X4965700Y5343499D01*
X4837795Y5463499D02*
G01*
X4582525Y5463499D01*
X4965700Y5343499D02*
G01*
X4965700Y4883500D01*
X4457700Y4883500D02*
G01*
X4457700Y5343499D01*
X4837795Y5343499D02*
G01*
X4837795Y5463499D01*
X4582525Y5343499D02*
G01*
X4582525Y5463499D01*
X4457700Y4883500D02*
G01*
X4965700Y4883500D01*
X3998325Y5381599D02*
G01*
X4253595Y5381599D01*
X3998325Y5501599D02*
G01*
X3873500Y5501599D01*
X3873500Y5381599D01*
X4253595Y5501599D02*
G01*
X4381500Y5501599D01*
X4381500Y5381599D01*
X4253595Y5501599D02*
G01*
X3998325Y5501599D01*
X4381500Y5381599D02*
G01*
X4381500Y4921600D01*
X3873500Y4921600D02*
G01*
X3873500Y5381599D01*
X4253595Y5381599D02*
G01*
X4253595Y5501599D01*
X3998325Y5381599D02*
G01*
X3998325Y5501599D01*
X3873500Y4921600D02*
G01*
X4381500Y4921600D01*
X624753Y3234298D02*
G01*
X44754Y3234298D01*
X624753Y3996298D02*
G01*
X44754Y3996298D01*
X624753Y3996298D02*
G01*
X624753Y3234298D01*
X44754Y3234298D02*
G01*
X44754Y3996298D01*
X164754Y3361298D02*
G01*
X164754Y3869298D01*
X164754Y3361298D02*
G01*
X44754Y3361298D01*
X164754Y3869298D02*
G01*
X44754Y3869298D01*
X829500Y3291298D02*
G01*
X829500Y3541301D01*
X1294183Y3166300D02*
G01*
X864816Y3166300D01*
X1329499Y3541301D02*
G01*
X1329499Y3291298D01*
X864816Y3666299D02*
G01*
X1294183Y3666299D01*
X842200Y2567398D02*
G01*
X842200Y2817401D01*
X1306883Y2442400D02*
G01*
X877516Y2442400D01*
X1342199Y2817401D02*
G01*
X1342199Y2567398D01*
X877516Y2942399D02*
G01*
X1306883Y2942399D01*
D10*
X4460260Y639521D02*
G01*
X4460260Y735408D01*
X4328139Y735408D01*
X4328139Y639521D01*
X4460260Y554278D02*
G01*
X4460260Y458391D01*
X4328139Y458391D01*
X4328139Y554278D01*
X4422160Y2163521D02*
G01*
X4422160Y2259408D01*
X4290039Y2259408D01*
X4290039Y2163521D01*
X4422160Y2078278D02*
G01*
X4422160Y1982391D01*
X4290039Y1982391D01*
X4290039Y2078278D01*
X4503978Y4091960D02*
G01*
X4408091Y4091960D01*
X4408091Y3959839D01*
X4503978Y3959839D01*
X4589221Y4091960D02*
G01*
X4685108Y4091960D01*
X4685108Y3959839D01*
X4589221Y3959839D01*
X4008678Y4142760D02*
G01*
X3912791Y4142760D01*
X3912791Y4010639D01*
X4008678Y4010639D01*
X4093921Y4142760D02*
G01*
X4189808Y4142760D01*
X4189808Y4010639D01*
X4093921Y4010639D01*
X4307860Y639521D02*
G01*
X4307860Y735408D01*
X4175739Y735408D01*
X4175739Y639521D01*
X4307860Y554278D02*
G01*
X4307860Y458391D01*
X4175739Y458391D01*
X4175739Y554278D01*
X4244360Y2163521D02*
G01*
X4244360Y2259408D01*
X4112239Y2259408D01*
X4112239Y2163521D01*
X4244360Y2078278D02*
G01*
X4244360Y1982391D01*
X4112239Y1982391D01*
X4112239Y2078278D01*
X4544039Y3538778D02*
G01*
X4544039Y3442891D01*
X4676160Y3442891D01*
X4676160Y3538778D01*
X4544039Y3624021D02*
G01*
X4544039Y3719908D01*
X4676160Y3719908D01*
X4676160Y3624021D01*
X4086839Y3792778D02*
G01*
X4086839Y3696891D01*
X4218960Y3696891D01*
X4218960Y3792778D01*
X4086839Y3878021D02*
G01*
X4086839Y3973908D01*
X4218960Y3973908D01*
X4218960Y3878021D01*
D12*
X1147099Y5252100D02*
G01*
X1271559Y5252100D01*
X1209329Y5319410D02*
G01*
X1209329Y5184790D01*
D10*
X1958317Y5005077D02*
G01*
X1623082Y5005077D01*
X1958317Y5180322D02*
G01*
X1623082Y5180322D01*
X1730268Y5005077D02*
G01*
X1730268Y5180322D01*
D12*
X3710401Y558802D02*
G01*
X3960401Y558802D01*
X3710401Y3352797D02*
G01*
X3710401Y304802D01*
X3960401Y3352797D02*
G01*
X3710401Y3352797D01*
X3960401Y304802D02*
G01*
X3960401Y3352797D01*
X3710401Y304802D02*
G01*
X3960401Y304802D01*
X1640301Y558802D02*
G01*
X1890301Y558802D01*
X1640301Y3352797D02*
G01*
X1640301Y304802D01*
X1890301Y3352797D02*
G01*
X1640301Y3352797D01*
X1890301Y304802D02*
G01*
X1890301Y3352797D01*
X1640301Y304802D02*
G01*
X1890301Y304802D01*
D15*
X1438457Y5340951D02*
G01*
X1439453Y5340951D01*
X1472458Y5307947D01*
X1438457Y5272948D02*
G01*
X1438457Y5273946D01*
X1472458Y5307947D01*
X1438457Y5272948D02*
G01*
X1438457Y5340951D01*
X1436453Y5232941D02*
G01*
X1321452Y5232941D01*
X1436453Y5382953D02*
G01*
X1321452Y5382953D01*
X1321452Y5232951D02*
G01*
X1321452Y5380944D01*
X1474454Y5383184D02*
G01*
X1579465Y5383184D01*
X1609460Y5343177D02*
G01*
X1609460Y5353179D01*
X1579465Y5383184D01*
X1609460Y5273182D02*
G01*
X1609460Y5343177D01*
X1609460Y5273182D02*
G01*
X1609460Y5263167D01*
X1579465Y5233172D01*
X1474454Y5233172D02*
G01*
X1579465Y5233172D01*
X1438457Y5307947D02*
G01*
X1472458Y5307947D01*
D10*
X1846021Y5242539D02*
G01*
X1941908Y5242539D01*
X1941908Y5374660D01*
X1846021Y5374660D01*
X1760778Y5242539D02*
G01*
X1664891Y5242539D01*
X1664891Y5374660D01*
X1760778Y5374660D01*
D12*
X624753Y618098D02*
G01*
X44754Y618098D01*
X624753Y1380098D02*
G01*
X44754Y1380098D01*
X624753Y1380098D02*
G01*
X624753Y618098D01*
X44754Y618098D02*
G01*
X44754Y1380098D01*
X164754Y745098D02*
G01*
X164754Y1253098D01*
X164754Y745098D02*
G01*
X44754Y745098D01*
X164754Y1253098D02*
G01*
X44754Y1253098D01*
X842200Y827498D02*
G01*
X842200Y1077501D01*
X1306883Y702500D02*
G01*
X877516Y702500D01*
X1342199Y1077501D02*
G01*
X1342199Y827498D01*
X877516Y1202499D02*
G01*
X1306883Y1202499D01*
X624753Y1490164D02*
G01*
X44754Y1490164D01*
X624753Y2252164D02*
G01*
X44754Y2252164D01*
X624753Y2252164D02*
G01*
X624753Y1490164D01*
X44754Y1490164D02*
G01*
X44754Y2252164D01*
X164754Y1617164D02*
G01*
X164754Y2125164D01*
X164754Y1617164D02*
G01*
X44754Y1617164D01*
X164754Y2125164D02*
G01*
X44754Y2125164D01*
X829500Y1678398D02*
G01*
X829500Y1928401D01*
X1294183Y1553400D02*
G01*
X864816Y1553400D01*
X1329499Y1928401D02*
G01*
X1329499Y1678398D01*
X864816Y2053399D02*
G01*
X1294183Y2053399D01*
X624753Y2362233D02*
G01*
X44754Y2362233D01*
X624753Y3124233D02*
G01*
X44754Y3124233D01*
X624753Y3124233D02*
G01*
X624753Y2362233D01*
X44754Y2362233D02*
G01*
X44754Y3124233D01*
X164754Y2489233D02*
G01*
X164754Y2997233D01*
X164754Y2489233D02*
G01*
X44754Y2489233D01*
X164754Y2997233D02*
G01*
X44754Y2997233D01*
G75*
G01*
X926846Y4972050D02*
G03*
X919734Y4972050I-3556J399984D01*
G75*
G01
X1204493Y3416300D02*
G03X1204493Y3416300I-124993J0D01*
G75*
G01
X1304239Y3596284D02*
G03X1304239Y3596284I-44729J0D01*
G75*
G01
X944220Y3596310D02*
G03X944220Y3596310I-44729J0D01*
G75*
G01
X944220Y3236290D02*
G03X944220Y3236290I-44729J0D01*
G75*
G01
X1304239Y3236290D02*
G03X1304239Y3236290I-44729J0D01*
G75*
G01
X1217193Y2692400D02*
G03X1217193Y2692400I-124993J0D01*
G75*
G01
X1316939Y2872384D02*
G03X1316939Y2872384I-44729J0D01*
G75*
G01
X956920Y2872410D02*
G03X956920Y2872410I-44729J0D01*
G75*
G01
X956920Y2512390D02*
G03X956920Y2512390I-44729J0D01*
G75*
G01
X1316939Y2512390D02*
G03X1316939Y2512390I-44729J0D01*
G75*
G01
X1217193Y952500D02*
G03X1217193Y952500I-124993J0D01*
G75*
G01
X1316939Y1132484D02*
G03X1316939Y1132484I-44729J0D01*
G75*
G01
X956920Y1132510D02*
G03X956920Y1132510I-44729J0D01*
G75*
G01
X956920Y772490D02*
G03X956920Y772490I-44729J0D01*
G75*
G01
X1316939Y772490D02*
G03X1316939Y772490I-44729J0D01*
G75*
G01
X1204493Y1803400D02*
G03X1204493Y1803400I-124993J0D01*
G75*
G01
X1304239Y1983384D02*
G03X1304239Y1983384I-44729J0D01*
G75*
G01
X944220Y1983410D02*
G03X944220Y1983410I-44729J0D01*
G75*
G01
X944220Y1623390D02*
G03X944220Y1623390I-44729J0D01*
G75*
G01
X1304239Y1623390D02*
G03X1304239Y1623390I-44729J0D01*
M02*
