G04 Layer: BottomLayer*
G04 EasyEDA v6.5.22, 2025-01-04 22:24:20*
G04 4654ec591aaf40839b9ddd4dd84afded,10*
G04 Gerber Generator version 0.2*
G04 Scale: 100 percent, Rotated: No, Reflected: No *
G04 Dimensions in millimeters *
G04 leading zeros omitted , absolute positions ,4 integer and 5 decimal *
%FSLAX45Y45*%
%MOMM*%

%AMMACRO1*4,1,4,-0.635,0.3175,-0.635,-0.3175,0.635,-0.3175,0.635,0.3175,-0.635,0.3175,0*%
%ADD10C,1.5000*%
%ADD11C,1.0000*%
%ADD12C,0.5000*%
%ADD13MACRO1*%
%ADD14O,1.9999959999999999X4.5999908*%
%ADD15O,4.5999908X1.9999959999999999*%
%ADD16C,1.8000*%
%ADD17C,1.8796*%
%ADD18C,1.5240*%
%ADD19R,1.8000X1.8000*%
%ADD20C,1.6000*%
%ADD21R,1.5240X1.5240*%
%ADD22C,1.1000*%

%LPD*%
D10*
X4140200Y965200D02*
G01*
X4140200Y1663700D01*
X4495800Y2019300D01*
D11*
X2095500Y3873500D02*
G01*
X2641600Y3873500D01*
X2857500Y3657600D01*
X2857500Y3530600D01*
X304800Y3869181D02*
G01*
X2079497Y3869181D01*
X2079497Y3828542D01*
D10*
X4279900Y5397500D02*
G01*
X2438400Y5397500D01*
X1841500Y4800600D01*
D12*
X3619500Y3530600D02*
G01*
X3619500Y3454400D01*
X3708400Y3365500D01*
X3708400Y2108200D01*
X3556000Y1955800D01*
X3365500Y3530600D02*
G01*
X3365500Y2400300D01*
X3556000Y2209800D01*
X2032000Y3225800D02*
G01*
X2184400Y3378200D01*
X3149600Y3378200D01*
X3238500Y3467100D01*
X3238500Y3721100D01*
X3544570Y4013200D01*
X3835400Y4013200D01*
X3365500Y4800600D02*
G01*
X3365500Y4549139D01*
X2603500Y3787139D01*
D10*
X304800Y3361265D02*
G01*
X546100Y3119965D01*
X546100Y2247905D01*
X304800Y2489205D02*
G01*
X546100Y2247905D01*
X546100Y1485900D01*
X304800Y745073D02*
G01*
X427573Y745073D01*
X546100Y863600D01*
X546100Y1485900D01*
X414860Y1617139D01*
X304800Y1617139D01*
D12*
X2603500Y3705860D02*
G01*
X2603500Y3530600D01*
X2349500Y3718560D02*
G01*
X2349500Y3530600D01*
X2095500Y3731260D02*
G01*
X2095500Y3530600D01*
D10*
X3619500Y4800600D02*
G01*
X3683000Y4800600D01*
X4267200Y4216400D01*
X4267200Y4216400D02*
G01*
X4267200Y3556000D01*
X4178300Y3467100D01*
X4572000Y3835400D02*
G01*
X4546600Y3835400D01*
X4178300Y3467100D01*
X4178300Y2336800D01*
X4495800Y2019300D01*
X4838700Y5143500D02*
G01*
X4838700Y3091185D01*
X4632957Y2885442D01*
X4533900Y431800D02*
G01*
X4343400Y622300D01*
X4343400Y800100D01*
X4140200Y1003300D01*
X2032000Y685800D02*
G01*
X2768600Y685800D01*
X3022600Y939800D01*
X3556000Y939800D01*
X3835400Y1193800D02*
G01*
X3835400Y939800D01*
X3835400Y1193800D02*
G01*
X3556000Y1193800D01*
X3835400Y939800D02*
G01*
X3556000Y939800D01*
X4140200Y965200D02*
G01*
X3860800Y965200D01*
X3835400Y939800D01*
X4508500Y1468549D02*
G01*
X4605449Y1468549D01*
X4737100Y1600200D01*
X4737100Y2781300D01*
X4495800Y3022600D01*
D11*
X1765300Y1193800D02*
G01*
X1587500Y1016000D01*
X1587500Y558800D01*
X127000Y558800D01*
X127000Y1168400D01*
X211581Y1252981D01*
X304800Y1252981D01*
D10*
X4838700Y5143500D02*
G01*
X4838700Y5194300D01*
X4635500Y5397500D01*
X4279900Y5397500D01*
X4254500Y5372100D01*
X4254500Y5181600D01*
D13*
G01*
X2095500Y3812539D03*
G01*
X2095500Y3731260D03*
G01*
X2349500Y3799839D03*
G01*
X2349500Y3718560D03*
G01*
X2603500Y3787139D03*
G01*
X2603500Y3705860D03*
D14*
G01*
X1364081Y4540275D03*
G01*
X744118Y4540300D03*
D15*
G01*
X1064107Y4070273D03*
D16*
G01*
X2355468Y5054600D03*
G01*
X2605659Y5054600D03*
G01*
X2855595Y5054600D03*
G01*
X3105531Y5054600D03*
D17*
G01*
X3556000Y431800D03*
G01*
X3556000Y685800D03*
G01*
X3556000Y939800D03*
G01*
X3556000Y1193800D03*
G01*
X3556000Y1447800D03*
G01*
X3556000Y1701800D03*
G01*
X3556000Y1955800D03*
G01*
X3556000Y2209800D03*
G01*
X3556000Y2463800D03*
G01*
X3556000Y2717800D03*
G01*
X3556000Y2971800D03*
G01*
X3556000Y3225800D03*
G01*
X2032000Y3225800D03*
G01*
X2032000Y2971800D03*
G01*
X2032000Y2717800D03*
G01*
X2032000Y2463800D03*
G01*
X2032000Y2209800D03*
G01*
X2032000Y1955800D03*
G01*
X2032000Y1701800D03*
G01*
X2032000Y1447800D03*
G01*
X2032000Y1193800D03*
G01*
X2032000Y939800D03*
G01*
X2032000Y685800D03*
G01*
X2032000Y431800D03*
D18*
G01*
X3619500Y3530600D03*
G01*
X3619500Y4800600D03*
G01*
X3365500Y3530600D03*
G01*
X3111500Y3530600D03*
G01*
X2857500Y3530600D03*
G01*
X2603500Y3530600D03*
G01*
X2349500Y3530600D03*
G01*
X2095500Y3530600D03*
G01*
X1841500Y3530600D03*
G01*
X3365500Y4800600D03*
G01*
X3111500Y4800600D03*
G01*
X2857500Y4800600D03*
G01*
X2603500Y4800600D03*
G01*
X2349500Y4800600D03*
G01*
X2095500Y4800600D03*
G01*
X1841500Y4800600D03*
D16*
G01*
X4508500Y1722551D03*
G01*
X4508500Y1468551D03*
G01*
X4495800Y3276600D03*
G01*
X4495800Y3022600D03*
G01*
X4584700Y5143500D03*
G01*
X4838700Y5143500D03*
G01*
X4000500Y5181600D03*
G01*
X4254500Y5181600D03*
D19*
G01*
X304800Y3869258D03*
D16*
G01*
X304800Y3615258D03*
G01*
X304800Y3361258D03*
G01*
X754506Y3641293D03*
G01*
X1404493Y3641293D03*
G01*
X754506Y3191306D03*
G01*
X1404493Y3191306D03*
G01*
X767206Y2917393D03*
G01*
X1417193Y2917393D03*
G01*
X767206Y2467406D03*
G01*
X1417193Y2467406D03*
D20*
G01*
X752094Y5372100D03*
G01*
X1102105Y5372100D03*
D18*
G01*
X3835400Y3225800D03*
G01*
X3835400Y2971800D03*
G01*
X3835400Y2717800D03*
G01*
X3835400Y2463800D03*
G01*
X3835400Y2209800D03*
G01*
X3835400Y1955800D03*
G01*
X3835400Y1701800D03*
G01*
X3835400Y1447800D03*
G01*
X3835400Y1193800D03*
G01*
X3835400Y939800D03*
G01*
X3835400Y685800D03*
D21*
G01*
X3835400Y431800D03*
D18*
G01*
X1765300Y3225800D03*
G01*
X1765300Y2971800D03*
G01*
X1765300Y2717800D03*
G01*
X1765300Y2463800D03*
G01*
X1765300Y2209800D03*
G01*
X1765300Y1955800D03*
G01*
X1765300Y1701800D03*
G01*
X1765300Y1447800D03*
G01*
X1765300Y1193800D03*
G01*
X1765300Y939800D03*
G01*
X1765300Y685800D03*
D21*
G01*
X1765300Y431800D03*
D19*
G01*
X304800Y1253058D03*
D16*
G01*
X304800Y999083D03*
G01*
X304800Y745083D03*
G01*
X767206Y1177493D03*
G01*
X1417193Y1177493D03*
G01*
X767206Y727506D03*
G01*
X1417193Y727506D03*
D19*
G01*
X304800Y2125141D03*
D16*
G01*
X304800Y1871141D03*
G01*
X304800Y1617141D03*
G01*
X754506Y2028393D03*
G01*
X1404493Y2028393D03*
G01*
X754506Y1578406D03*
G01*
X1404493Y1578406D03*
D19*
G01*
X304800Y2997200D03*
D16*
G01*
X304800Y2743200D03*
G01*
X304800Y2489200D03*
D22*
G01*
X4533900Y393700D03*
G01*
X4495800Y2019300D03*
G01*
X4267200Y4216400D03*
G01*
X4572000Y3835400D03*
D11*
G01*
X3835400Y4013200D03*
M02*
