G04 Layer: BoardOutlineLayer*
G04 EasyEDA v6.5.20, 2023-10-05 13:37:33*
G04 4654ec591aaf40839b9ddd4dd84afded,10*
G04 Gerber Generator version 0.2*
G04 Scale: 100 percent, Rotated: No, Reflected: No *
G04 Dimensions in millimeters *
G04 leading zeros omitted , absolute positions ,4 integer and 5 decimal *
%FSLAX45Y45*%
%MOMM*%

%ADD10C,0.2540*%
D10*
X0Y502709D02*
G01*
X7886700Y502709D01*
X7886700Y2583D01*
X0Y2583D01*
X0Y502709D01*
X0Y-197416D02*
G01*
X7886700Y-197416D01*
X7886700Y-697542D01*
X0Y-697542D01*
X0Y-197416D01*
X0Y-897542D02*
G01*
X7886700Y-897542D01*
X7886700Y-1397668D01*
X0Y-1397668D01*
X0Y-897542D01*
X0Y-1597667D02*
G01*
X7886700Y-1597667D01*
X7886700Y-2097793D01*
X0Y-2097793D01*
X0Y-1597667D01*
X0Y-2297793D02*
G01*
X7886700Y-2297793D01*
X7886700Y-2797919D01*
X0Y-2797919D01*
X0Y-2297793D01*
X0Y-2997918D02*
G01*
X7886700Y-2997918D01*
X7886700Y-3498044D01*
X0Y-3498044D01*
X0Y-2997918D01*
X0Y-3698044D02*
G01*
X7886700Y-3698044D01*
X7886700Y-4198170D01*
X0Y-4198170D01*
X0Y-3698044D01*
X0Y-4398170D02*
G01*
X7886700Y-4398170D01*
X7886700Y-4898296D01*
X0Y-4898296D01*
X0Y-4398170D01*
X0Y-5098295D02*
G01*
X7886700Y-5098295D01*
X7886700Y-5598421D01*
X0Y-5598421D01*
X0Y-5098295D01*
X0Y-5798421D02*
G01*
X7886700Y-5798421D01*
X7886700Y-6298547D01*
X0Y-6298547D01*
X0Y-5798421D01*
X0Y-6498546D02*
G01*
X7886700Y-6498546D01*
X7886700Y-6998672D01*
X0Y-6998672D01*
X0Y-6498546D01*
X0Y-7198672D02*
G01*
X7886700Y-7198672D01*
X7886700Y-7698798D01*
X0Y-7698798D01*
X0Y-7198672D01*
X0Y-7898798D02*
G01*
X7886700Y-7898798D01*
X7886700Y-8398924D01*
X0Y-8398924D01*
X0Y-7898798D01*
X0Y-8598923D02*
G01*
X7886700Y-8598923D01*
X7886700Y-9099049D01*
X0Y-9099049D01*
X0Y-8598923D01*
X0Y502710D02*
G01*
X7886700Y502710D01*
X7886700Y-9099027D01*
X0Y-9099027D01*
X0Y502710D01*
X3601346Y-188247D02*
G01*
X3601346Y-6583D01*
X4285355Y-188247D02*
G01*
X4285355Y-6583D01*
X3601346Y-888371D02*
G01*
X3601346Y-706707D01*
X4285355Y-888371D02*
G01*
X4285355Y-706707D01*
X3601346Y-1588495D02*
G01*
X3601346Y-1406831D01*
X4285355Y-1588495D02*
G01*
X4285355Y-1406831D01*
X3601346Y-2288619D02*
G01*
X3601346Y-2106956D01*
X4285355Y-2288619D02*
G01*
X4285355Y-2106956D01*
X3601346Y-2988743D02*
G01*
X3601346Y-2807080D01*
X4285355Y-2988743D02*
G01*
X4285355Y-2807080D01*
X3601346Y-3688867D02*
G01*
X3601346Y-3507204D01*
X4285355Y-3688867D02*
G01*
X4285355Y-3507204D01*
X3601346Y-4388991D02*
G01*
X3601346Y-4207328D01*
X4285355Y-4388991D02*
G01*
X4285355Y-4207328D01*
X3601346Y-5089115D02*
G01*
X3601346Y-4907452D01*
X4285355Y-5089115D02*
G01*
X4285355Y-4907452D01*
X3601346Y-5789239D02*
G01*
X3601346Y-5607576D01*
X4285355Y-5789239D02*
G01*
X4285355Y-5607576D01*
X3601346Y-6489364D02*
G01*
X3601346Y-6307700D01*
X4285355Y-6489364D02*
G01*
X4285355Y-6307700D01*
X3601346Y-7189488D02*
G01*
X3601346Y-7007824D01*
X4285355Y-7189488D02*
G01*
X4285355Y-7007824D01*
X3601346Y-7889612D02*
G01*
X3601346Y-7707948D01*
X4285355Y-7889612D02*
G01*
X4285355Y-7707948D01*
X3601346Y-8589736D02*
G01*
X3601346Y-8408073D01*
X4285355Y-8589736D02*
G01*
X4285355Y-8408073D01*

%LPD*%
M02*
