G04 Layer: TopLayer*
G04 EasyEDA v6.5.20, 2025-08-31 18:04:55*
G04 4654ec591aaf40839b9ddd4dd84afded,10*
G04 Gerber Generator version 0.2*
G04 Scale: 100 percent, Rotated: No, Reflected: No *
G04 Dimensions in millimeters *
G04 leading zeros omitted , absolute positions ,4 integer and 5 decimal *
%FSLAX45Y45*%
%MOMM*%

%AMMACRO1*21,1,$1,$2,0,0,$3*%
%ADD10C,2.0000*%
%ADD11C,0.5000*%
%ADD12C,0.3000*%
%ADD13C,1.5000*%
%ADD14C,1.2000*%
%ADD15C,1.0000*%
%ADD16C,0.6000*%
%ADD17C,0.4000*%
%ADD18R,0.8000X0.9000*%
%ADD19MACRO1,0.864X0.8065X-90.0000*%
%ADD20MACRO1,0.864X0.8065X0.0000*%
%ADD21R,0.8640X0.8065*%
%ADD22R,0.9000X0.8000*%
%ADD23R,1.2000X1.0000*%
%ADD24MACRO1,0.864X0.8065X90.0000*%
%ADD25O,1.9999959999999999X0.8999982*%
%ADD26MACRO1,0.54X0.5656X90.0000*%
%ADD27R,1.2500X0.7000*%
%ADD28R,0.8000X0.8000*%
%ADD29R,0.6720X1.5750*%
%ADD30C,1.8000*%
%ADD31C,2.2000*%
%ADD32R,1.8000X1.8000*%
%ADD33C,2.5000*%
%ADD34C,1.5748*%
%ADD35R,1.5748X1.5748*%
%ADD36O,4.1999916X1.5999968*%
%ADD37O,1.5999968X4.1999916*%
%ADD38C,1.5240*%
%ADD39C,0.7000*%
%ADD40C,0.0133*%

%LPD*%
G36*
X5168900Y8928100D02*
G01*
X5168900Y8543290D01*
X5346700Y8543290D01*
X5346700Y8928100D01*
G37*
G36*
X5130800Y791210D02*
G01*
X5130800Y406400D01*
X5308600Y406400D01*
X5308600Y791210D01*
G37*
G36*
X5130800Y2137410D02*
G01*
X5130800Y1752600D01*
X5308600Y1752600D01*
X5308600Y2137410D01*
G37*
G36*
X5130800Y3496310D02*
G01*
X5130800Y3111500D01*
X5308600Y3111500D01*
X5308600Y3496310D01*
G37*
G36*
X5143500Y4842510D02*
G01*
X5143500Y4457700D01*
X5321300Y4457700D01*
X5321300Y4842510D01*
G37*
G36*
X5143500Y6201410D02*
G01*
X5143500Y5816600D01*
X5321300Y5816600D01*
X5321300Y6201410D01*
G37*
G36*
X5156200Y7560309D02*
G01*
X5156200Y7175500D01*
X5334000Y7175500D01*
X5334000Y7560309D01*
G37*
D10*
X6756400Y7907909D02*
G01*
X6951090Y8102600D01*
X7264400Y8102600D01*
D11*
X4991100Y6383020D02*
G01*
X4922520Y6383020D01*
X4864100Y6324600D01*
X4864100Y5232400D01*
X4762500Y5130800D01*
X4762500Y4483100D01*
X4432300Y4152900D01*
X4343400Y4152900D01*
D12*
X5054600Y346707D02*
G01*
X5054600Y257050D01*
X716787Y9410700D02*
G01*
X850900Y9410700D01*
X876300Y9385300D01*
X876300Y8584945D01*
X724154Y8433562D01*
X647700Y8433562D01*
X482600Y8579004D02*
G01*
X487931Y8584336D01*
X647700Y8584336D01*
X520700Y8785806D02*
G01*
X482600Y8747706D01*
X482600Y8579002D01*
X704087Y5334000D02*
G01*
X800100Y5334000D01*
X850900Y5283200D01*
X850900Y4446778D01*
X723137Y4318762D01*
X660400Y4318762D01*
X1353312Y2425700D02*
G01*
X1549400Y2425700D01*
X1404104Y3848110D02*
G01*
X1549400Y3848100D01*
X4978400Y812800D02*
G01*
X4927600Y762000D01*
X4927600Y753107D01*
X1016000Y7408329D02*
G01*
X1032929Y7391400D01*
X1507540Y7391400D01*
X1549400Y7950200D02*
G01*
X1366012Y7950200D01*
X1562100Y6604000D02*
G01*
X1378712Y6604000D01*
X1366006Y6616705D01*
X1366006Y6616712D01*
X5219700Y256951D02*
G01*
X5219700Y342900D01*
X1549400Y5207000D02*
G01*
X1366019Y5207000D01*
X1353306Y5219712D01*
D13*
X4381500Y854961D02*
G01*
X4902200Y457200D01*
X4902200Y127000D01*
D12*
X5054600Y106268D02*
G01*
X5219700Y106268D01*
X4965700Y101600D02*
G01*
X4970376Y106276D01*
X5054600Y106276D01*
X5030800Y467611D02*
G01*
X5030800Y458800D01*
X4965700Y393700D01*
X4965700Y101600D01*
X4978400Y972814D02*
G01*
X5012692Y972814D01*
X5067300Y918207D01*
X5067300Y694103D01*
X5030800Y657603D01*
X4927600Y647700D02*
G01*
X4937503Y657603D01*
X5030726Y657603D01*
X4978400Y4152900D02*
G01*
X4983076Y4157576D01*
X5067300Y4157576D01*
X1562100Y9283700D02*
G01*
X1416804Y9283710D01*
X5030800Y1813811D02*
G01*
X5030800Y1805000D01*
X4978400Y1752600D01*
X4978400Y1447800D01*
X5054600Y1452468D02*
G01*
X5219700Y1452468D01*
X5054600Y1692907D02*
G01*
X5054600Y1603250D01*
X4978400Y1447800D02*
G01*
X4983076Y1452476D01*
X5054600Y1452476D01*
X5219700Y1603151D02*
G01*
X5219700Y1689100D01*
D11*
X4343400Y3390900D02*
G01*
X4610100Y3390900D01*
X4813300Y3187700D01*
X4813300Y2484120D01*
X4978400Y2319020D01*
D12*
X4978400Y2319014D02*
G01*
X5012692Y2319014D01*
X5067300Y2264407D01*
X5067300Y2040303D01*
X5030800Y2003803D01*
X4927600Y1997707D02*
G01*
X4933701Y2003803D01*
X5030726Y2003803D01*
X4978400Y2159000D02*
G01*
X4927600Y2108200D01*
X4927600Y2099307D01*
X4965700Y2806700D02*
G01*
X4970376Y2811376D01*
X5054600Y2811376D01*
X4965700Y8788397D02*
G01*
X4971801Y8794493D01*
X5068826Y8794493D01*
X5054600Y2811368D02*
G01*
X5219700Y2811368D01*
X5219700Y2962051D02*
G01*
X5219700Y3048000D01*
X5030800Y3172711D02*
G01*
X5030800Y3163900D01*
X4965700Y3098800D01*
X4965700Y2806700D01*
X4978400Y3677914D02*
G01*
X5012692Y3677914D01*
X5067300Y3623307D01*
X5067300Y3399203D01*
X5030800Y3362703D01*
X4940300Y3365500D02*
G01*
X4943096Y3362703D01*
X5030726Y3362703D01*
X4978400Y3517900D02*
G01*
X4927600Y3467100D01*
X4927600Y3458207D01*
X5054600Y3051807D02*
G01*
X5054600Y2962150D01*
X5043500Y4518911D02*
G01*
X5043500Y4510100D01*
X4978400Y4445000D01*
X4978400Y4152900D01*
X5043500Y5877811D02*
G01*
X5043500Y5869000D01*
X4978400Y5803900D01*
X4978400Y5511800D01*
X5067300Y5516468D02*
G01*
X5232400Y5516468D01*
X4978400Y5511800D02*
G01*
X4983076Y5516476D01*
X5067300Y5516476D01*
X4991100Y6870700D02*
G01*
X4995776Y6875376D01*
X5080000Y6875376D01*
X4953000Y7429500D02*
G01*
X4955796Y7426703D01*
X5056126Y7426703D01*
X5092700Y8243158D02*
G01*
X5257800Y8243158D01*
X444500Y1593697D02*
G01*
X298602Y1593697D01*
X139700Y1752600D01*
X139700Y1943100D01*
X127000Y1955800D01*
X127000Y2209800D02*
G01*
X154990Y2237790D01*
X533400Y2237790D01*
X127000Y977900D02*
G01*
X129590Y980490D01*
X584200Y980490D01*
X5067300Y4157568D02*
G01*
X5232400Y4157568D01*
X4991100Y5024114D02*
G01*
X5025392Y5024114D01*
X5080000Y4969507D01*
X5080000Y4745403D01*
X5043500Y4708903D01*
X5232400Y4308251D02*
G01*
X5232400Y4394200D01*
X4953000Y4699000D02*
G01*
X4962903Y4708903D01*
X5043426Y4708903D01*
X4991100Y4864100D02*
G01*
X4940300Y4813300D01*
X4940300Y4804407D01*
X5067300Y4398007D02*
G01*
X5067300Y4308350D01*
X4991100Y6383014D02*
G01*
X5025392Y6383014D01*
X5080000Y6328407D01*
X5080000Y6104303D01*
X5043500Y6067803D01*
X4953000Y6057900D02*
G01*
X4962903Y6067803D01*
X5043426Y6067803D01*
X4991100Y6223000D02*
G01*
X4940300Y6172200D01*
X4940300Y6163307D01*
X5232400Y5667151D02*
G01*
X5232400Y5753100D01*
X5056200Y7236711D02*
G01*
X5056200Y7227900D01*
X4991100Y7162800D01*
X4991100Y6870700D01*
X5080000Y6875368D02*
G01*
X5245100Y6875368D01*
X5003800Y7741914D02*
G01*
X5038092Y7741914D01*
X5092700Y7687307D01*
X5092700Y7463203D01*
X5056200Y7426703D01*
X5003800Y7581900D02*
G01*
X4953000Y7531100D01*
X4953000Y7522207D01*
X5245100Y7026051D02*
G01*
X5245100Y7112000D01*
X5257800Y8393844D02*
G01*
X5257800Y8470900D01*
X5016500Y8949689D02*
G01*
X4965700Y8898889D01*
X4965700Y8889997D01*
X5016500Y9109704D02*
G01*
X5050792Y9109704D01*
X5105400Y9055097D01*
X5105400Y8830993D01*
X5068900Y8794493D01*
X5068900Y8604501D02*
G01*
X5068900Y8595690D01*
X5003800Y8530589D01*
X5003800Y8238489D01*
X5003800Y8238489D02*
G01*
X5008476Y8243158D01*
X5092700Y8243158D01*
D10*
X7366000Y926896D02*
G01*
X7480300Y1041196D01*
X7480300Y1346200D01*
X6731000Y1138809D02*
G01*
X6993509Y1138809D01*
X7213600Y1358900D01*
X7366000Y3631996D02*
G01*
X7505700Y3771696D01*
X7505700Y4064000D01*
X6731000Y2485009D02*
G01*
X7006209Y2485009D01*
X7239000Y2692400D01*
X7366000Y2273045D02*
G01*
X7493000Y2425700D01*
X7493000Y2692400D01*
X6731000Y3843909D02*
G01*
X7018909Y3843909D01*
X7239000Y4064000D01*
X7404100Y9063736D02*
G01*
X7226300Y9194800D01*
X7213600Y9486900D01*
X6769100Y9275826D02*
G01*
X6812025Y9275826D01*
X6934200Y9474200D01*
X7378700Y4978196D02*
G01*
X7518400Y5117896D01*
X7518400Y5397500D01*
X6743700Y5190109D02*
G01*
X6993509Y5190109D01*
X7226300Y5422900D01*
X6743700Y6549009D02*
G01*
X7044309Y6549009D01*
X7277100Y6756400D01*
X7378700Y6337096D02*
G01*
X7429296Y6337096D01*
X7569200Y6477000D01*
X7569200Y6731000D01*
X7543800Y6756400D01*
X7391400Y7695996D02*
G01*
X7556500Y7861096D01*
X7556500Y8051800D01*
D14*
X3403600Y2120900D02*
G01*
X3403600Y5232400D01*
X2705100Y5930900D01*
X2209800Y5930900D01*
X2095500Y6045200D01*
X2095500Y7239000D01*
D15*
X2463800Y2374900D02*
G01*
X2743200Y2374900D01*
X2991104Y2622804D01*
X2991104Y4648200D01*
D12*
X1637436Y7162800D02*
G01*
X1854200Y7162800D01*
X1507540Y7391400D02*
G01*
X1486763Y7370622D01*
X1486763Y7162800D01*
X1650136Y5816600D02*
G01*
X1790700Y5816600D01*
X1378712Y6731000D02*
G01*
X1676400Y6731000D01*
X1790700Y6616700D01*
X1790700Y4470400D01*
X2108200Y4152900D01*
X1494840Y6045200D02*
G01*
X1499463Y6040577D01*
X1499463Y5816600D01*
X1612137Y4394200D02*
G01*
X1714500Y4292600D01*
X1456740Y4622800D02*
G01*
X1461363Y4618177D01*
X1461363Y4394200D01*
X1404112Y5334000D02*
G01*
X1638300Y5334000D01*
X1714500Y5257800D01*
X1714500Y4292600D01*
X2108200Y3898900D01*
X2108200Y3644900D02*
G01*
X2057400Y3644900D01*
X1854200Y3441700D01*
X1854200Y3225800D01*
X1662836Y3034436D01*
X1662836Y2997200D01*
X1507540Y3238500D02*
G01*
X1512163Y3233877D01*
X1512163Y2997200D01*
X1404112Y3975100D02*
G01*
X1778000Y3975100D01*
X2108200Y3644900D01*
X1841500Y2565400D02*
G01*
X1828800Y2552700D01*
X1353312Y2552700D01*
X2108200Y3390900D02*
G01*
X1841500Y3073400D01*
X1841500Y1816100D01*
X1701800Y1676400D01*
X1549400Y1676400D02*
G01*
X1494789Y1731010D01*
X1494789Y1879600D01*
X1498600Y419963D02*
G01*
X1537563Y419963D01*
X1739900Y622300D01*
X1736483Y1380883D01*
X1340612Y1346200D02*
G01*
X1701800Y1346200D01*
X1930400Y1574800D01*
X1930400Y2959100D01*
X2108200Y3136900D01*
X1456689Y774700D02*
G01*
X1456689Y622300D01*
X1028700Y622300D01*
X1498600Y570636D02*
G01*
X1498600Y584200D01*
X1435100Y647700D01*
D10*
X1028700Y368300D02*
G01*
X1231900Y368300D01*
X1397000Y203200D01*
X2209800Y203200D01*
X2213356Y779526D01*
D11*
X2463800Y3136900D02*
G01*
X2476500Y3124200D01*
X2850997Y3124200D01*
X2463800Y3390900D02*
G01*
X2476500Y3378200D01*
X2850997Y3378200D01*
X2463800Y3644900D02*
G01*
X2850997Y3644900D01*
X2463800Y3898900D02*
G01*
X2476500Y3886200D01*
X2850997Y3886200D01*
X2463800Y4152900D02*
G01*
X2850997Y4152900D01*
X2463800Y4406900D02*
G01*
X2850997Y4406900D01*
D16*
X2463800Y4660900D02*
G01*
X2476500Y4648200D01*
X2850997Y4648200D01*
D13*
X2463800Y2120900D02*
G01*
X3403600Y2120900D01*
X3797300Y1727200D01*
X4622800Y1727200D01*
D12*
X1662836Y8610600D02*
G01*
X1930400Y8610600D01*
X1520240Y8801100D02*
G01*
X1512163Y8793022D01*
X1512163Y8610600D01*
D11*
X5016500Y9109710D02*
G01*
X4876800Y8970010D01*
X4876800Y7874000D01*
X4775200Y7772400D01*
D13*
X6146800Y7497445D02*
G01*
X6146800Y8877935D01*
X5749036Y9275699D01*
D15*
X5219700Y9324395D02*
G01*
X5700341Y9324395D01*
X5749030Y9275704D01*
X5268973Y8699497D02*
G01*
X5330962Y8609822D01*
X5665215Y8275579D01*
X5749030Y8275579D01*
D12*
X5092700Y8483597D02*
G01*
X5092700Y8393940D01*
D15*
X5219700Y9014406D02*
G01*
X5268899Y8965204D01*
X5268899Y8699497D01*
D13*
X4165600Y1295400D02*
G01*
X3886200Y1295400D01*
X3691636Y723900D01*
X2819400Y1435100D02*
G01*
X3132881Y1435100D01*
X3691686Y723900D01*
D10*
X3191713Y723900D02*
G01*
X3636213Y279400D01*
X3805936Y279400D01*
X4381525Y854989D01*
D14*
X4622800Y1727200D02*
G01*
X4711700Y1638300D01*
X4711700Y1295400D02*
G01*
X4711700Y1638300D01*
D15*
X5207000Y7646616D02*
G01*
X5256199Y7597414D01*
X5256199Y7331707D01*
D12*
X5080000Y7115807D02*
G01*
X5080000Y7026150D01*
D15*
X5256273Y7331707D02*
G01*
X5318249Y7242050D01*
X5652515Y6907784D01*
X5736330Y6907784D01*
X5207000Y7956605D02*
G01*
X5687641Y7956605D01*
X5736330Y7907914D01*
X5194300Y6287716D02*
G01*
X5243499Y6238514D01*
X5243499Y5972807D01*
D12*
X5067300Y5756907D02*
G01*
X5067300Y5667250D01*
D15*
X5243573Y5972807D02*
G01*
X5305549Y5883150D01*
X5639815Y5548884D01*
X5723630Y5548884D01*
X5194300Y6597705D02*
G01*
X5674941Y6597705D01*
X5723630Y6549014D01*
X5194300Y4928816D02*
G01*
X5243499Y4879614D01*
X5243499Y4613907D01*
X5243573Y4613907D02*
G01*
X5305549Y4524250D01*
X5639815Y4189984D01*
X5723630Y4189984D01*
X5194300Y5238805D02*
G01*
X5674941Y5238805D01*
X5723630Y5190114D01*
X5181600Y3582616D02*
G01*
X5230799Y3533414D01*
X5230799Y3267707D01*
X5230873Y3267707D02*
G01*
X5292849Y3178050D01*
X5627115Y2843784D01*
X5710930Y2843784D01*
X5181600Y3892605D02*
G01*
X5662241Y3892605D01*
X5710930Y3843914D01*
X5181600Y2223716D02*
G01*
X5230799Y2174514D01*
X5230799Y1908807D01*
X5230873Y1908807D02*
G01*
X5292849Y1819150D01*
X5627115Y1484884D01*
X5710930Y1484884D01*
X5181600Y2533705D02*
G01*
X5662241Y2533705D01*
X5710930Y2485014D01*
X5181600Y877516D02*
G01*
X5230799Y828314D01*
X5230799Y562607D01*
X5230873Y562607D02*
G01*
X5292849Y472950D01*
X5627115Y138684D01*
X5710930Y138684D01*
X5181600Y1187505D02*
G01*
X5662241Y1187505D01*
X5710930Y1138814D01*
D11*
X4978400Y3677920D02*
G01*
X4376414Y3677920D01*
X4343400Y3644900D01*
D13*
X6146800Y6883400D02*
G01*
X6146800Y5613275D01*
X5723630Y5190109D01*
X6146800Y5658500D02*
G01*
X6146800Y4140200D01*
X5850509Y3843909D01*
X5710930Y3843909D01*
X6146800Y4140200D02*
G01*
X6146800Y2717800D01*
X5918200Y2489200D01*
X5715124Y2489200D01*
X5710930Y2485009D01*
D12*
X1675536Y3517900D02*
G01*
X1667433Y3509797D01*
X1667433Y3238500D01*
X1612036Y4902200D02*
G01*
X1616633Y4897602D01*
X1616633Y4622800D01*
D13*
X2213310Y1379499D02*
G01*
X2471699Y1379499D01*
X2527300Y1435100D01*
X2819400Y1435100D01*
D10*
X5461000Y638682D02*
G01*
X7154230Y638682D01*
X7366000Y426913D01*
D13*
X6146800Y2717800D02*
G01*
X6146800Y1422400D01*
X5892800Y1168400D01*
X5740524Y1168400D01*
X5710930Y1138809D01*
X5736330Y7907909D02*
G01*
X6146800Y7497445D01*
X6146800Y6883400D01*
X5812409Y6549009D01*
X5723630Y6549009D01*
D11*
X4343400Y3136900D02*
G01*
X4546600Y3136900D01*
X4699000Y2984500D01*
X4699000Y1981200D01*
X4889500Y1790700D01*
X4889500Y1061720D01*
X4978400Y972820D01*
D15*
X4387725Y1505104D02*
G01*
X4203700Y1505104D01*
X4381500Y854961D02*
G01*
X4387725Y1505104D01*
X4546600Y1505204D01*
D11*
X4231492Y1126238D02*
G01*
X4203700Y1154026D01*
X4203700Y1365095D01*
X4531481Y1126238D02*
G01*
X4546600Y1141351D01*
X4546600Y1365095D01*
D14*
X4711700Y1295400D02*
G01*
X4597400Y1295400D01*
D12*
X1637436Y2120900D02*
G01*
X1637436Y1879600D01*
X1654733Y1879600D01*
D15*
X3365500Y6223000D02*
G01*
X3365500Y7239000D01*
X2095500Y6223000D02*
G01*
X2095500Y7239000D01*
D12*
X1650136Y7645400D02*
G01*
X1650136Y7398059D01*
X1660773Y7398059D01*
X1667433Y7391400D01*
X1650136Y9055100D02*
G01*
X1680133Y9025102D01*
X1680133Y8801100D01*
X1031999Y9042400D02*
G01*
X1499463Y9042400D01*
X1499463Y9055100D01*
X1520240Y8801100D02*
G01*
X1044699Y8801100D01*
X1031999Y8788400D01*
X520700Y9095790D02*
G01*
X167690Y9095790D01*
X114300Y9042400D01*
X1016000Y4902200D02*
G01*
X1461363Y4902200D01*
X1456740Y4622800D02*
G01*
X1041400Y4622800D01*
X1016000Y4648200D01*
X1016000Y3522134D02*
G01*
X1020234Y3517900D01*
X1524863Y3517900D01*
X1507540Y3238500D02*
G01*
X1045634Y3238500D01*
X1016000Y3268134D01*
X1494840Y1879600D02*
G01*
X1024465Y1879600D01*
X1016000Y1888065D01*
X1366012Y8077200D02*
G01*
X1701800Y8077200D01*
X1854200Y7924800D01*
X1854200Y4660900D01*
X2108200Y4406900D01*
X1016000Y7662329D02*
G01*
X1032929Y7645400D01*
X1499463Y7645400D01*
X1340612Y1219200D02*
G01*
X1498600Y1219200D01*
X1562100Y1155700D01*
X1637438Y6299200D02*
G01*
X1654733Y6281905D01*
X1654733Y6045200D01*
X1447800Y9398000D02*
G01*
X1726945Y9398000D01*
X1930400Y9194545D01*
X1930400Y4876800D01*
X2108200Y4660900D01*
X1016000Y6282265D02*
G01*
X1032934Y6299200D01*
X1486763Y6299200D01*
X1494840Y6045200D02*
G01*
X1494840Y6028265D01*
X1016000Y6028265D01*
X647700Y7250836D02*
G01*
X642365Y7245502D01*
X469900Y7245502D01*
X558800Y7452309D02*
G01*
X558800Y7247242D01*
X560537Y7245504D01*
X660400Y5815736D02*
G01*
X653034Y5823102D01*
X482600Y5823102D01*
X572368Y5823104D02*
G01*
X571500Y5823973D01*
X571500Y6004509D01*
X660400Y4469536D02*
G01*
X655065Y4464202D01*
X495300Y4464202D01*
X587032Y4464202D02*
G01*
X584200Y4467034D01*
X584200Y4620209D01*
X622300Y3085236D02*
G01*
X614931Y3092604D01*
X444500Y3092604D01*
X622300Y3085236D02*
G01*
X571500Y3136036D01*
X571500Y3286706D01*
X647700Y7099300D02*
G01*
X749300Y7099300D01*
X850900Y7200900D01*
X850900Y8026400D01*
X800100Y8077200D01*
X665987Y8077200D01*
X863600Y3873500D02*
G01*
X863600Y3924300D01*
X812800Y3975100D01*
X704087Y3975100D01*
X622300Y1739036D02*
G01*
X616965Y1733702D01*
X444500Y1733702D01*
X535178Y1733804D02*
G01*
X533400Y1927860D01*
X622300Y1588262D02*
G01*
X737362Y1588262D01*
X800100Y1651000D01*
X800100Y2514600D01*
X762000Y2552700D01*
X653287Y2552700D01*
X558800Y7762290D02*
G01*
X137109Y7762290D01*
X127000Y7772400D01*
X584200Y4930190D02*
G01*
X485190Y5029200D01*
X127000Y5029200D01*
X571500Y6314490D02*
G01*
X137109Y6314490D01*
X127000Y6324600D01*
X571500Y3596690D02*
G01*
X568909Y3594100D01*
X127000Y3594100D01*
X1029561Y88900D02*
G01*
X844702Y88900D01*
D11*
X627905Y2425700D02*
G01*
X266700Y2425700D01*
X678705Y3848100D02*
G01*
X304800Y3848100D01*
X666005Y5207000D02*
G01*
X653305Y5219700D01*
X304800Y5219700D01*
X691405Y9283700D02*
G01*
X330200Y9283700D01*
D12*
X127000Y7518400D02*
G01*
X127000Y7327900D01*
X355600Y7099300D01*
X361797Y7105497D01*
X469900Y7105497D01*
X660400Y5664200D02*
G01*
X736600Y5664200D01*
X850900Y5778500D01*
X850900Y6680200D01*
X800100Y6731000D01*
X678687Y6731000D01*
X482600Y5683097D02*
G01*
X324002Y5683097D01*
X152400Y5854700D01*
X152400Y6045200D01*
X127000Y6070600D01*
X495300Y4324197D02*
G01*
X374802Y4324197D01*
X152400Y4546600D01*
X152400Y4749800D01*
X127000Y4775200D01*
D11*
X627905Y7950200D02*
G01*
X330200Y7950200D01*
X665987Y6604000D02*
G01*
X330200Y6604000D01*
X330200Y6616700D01*
D12*
X114300Y8788400D02*
G01*
X114300Y8674100D01*
X349504Y8438895D01*
X482600Y8438895D01*
X482600Y5682995D02*
G01*
X342900Y5682995D01*
X342900Y5257800D01*
X304800Y5219700D01*
X333755Y7121144D02*
G01*
X330200Y6616700D01*
X370839Y8438895D02*
G01*
X330200Y8394700D01*
X330200Y7950205D01*
X304800Y3848100D02*
G01*
X304800Y4392929D01*
X127000Y3340100D02*
G01*
X127000Y3149600D01*
X336295Y2952495D01*
X444500Y2952495D01*
X271779Y3014979D02*
G01*
X266700Y2425700D01*
X254000Y1155700D02*
G01*
X255270Y1637029D01*
X704697Y88900D02*
G01*
X704697Y311302D01*
X482600Y533400D01*
X317500Y533400D01*
X127000Y723900D01*
X1016000Y2142065D02*
G01*
X1037165Y2120900D01*
X1486763Y2120900D01*
D11*
X640613Y1219200D02*
G01*
X577113Y1155700D01*
X254000Y1155700D01*
D12*
X1028700Y876300D02*
G01*
X1104900Y952500D01*
X1461363Y952500D01*
X1612038Y952500D02*
G01*
X1612038Y779294D01*
X1616633Y774700D01*
D10*
X3191763Y723900D02*
G01*
X2268981Y723900D01*
D12*
X622300Y2934462D02*
G01*
X775462Y2934462D01*
X863600Y3022600D01*
X863600Y3873500D01*
X844804Y88900D02*
G01*
X825500Y108204D01*
X825500Y279400D01*
X584200Y520700D01*
X584200Y670560D01*
X1180337Y88900D02*
G01*
X1180337Y115062D01*
X1104900Y190500D01*
X1003300Y190500D01*
X850900Y342900D01*
X850900Y1257300D01*
X762000Y1346200D01*
X640587Y1346200D01*
D11*
X4991100Y5024120D02*
G01*
X4922520Y5024120D01*
X4851400Y4953000D01*
X4851400Y4406900D01*
X4343400Y3898900D01*
X4343400Y4406900D02*
G01*
X4483100Y4406900D01*
X4686300Y4610100D01*
X4686300Y5194300D01*
X4775200Y5283200D01*
X4775200Y6438900D01*
X4864100Y6527800D01*
X4864100Y7602220D01*
X5003800Y7741920D01*
X4343400Y4660900D02*
G01*
X4495800Y4660900D01*
X4610100Y4775200D01*
X4610100Y5245100D01*
X4686300Y5321300D01*
X4686300Y6489700D01*
X4775200Y6578600D01*
X4775200Y7772400D01*
D15*
X3365500Y7239000D02*
G01*
X3365500Y7531100D01*
X4762500Y8928100D01*
X4762500Y9169400D01*
X4917440Y9324339D01*
X5290565Y9324339D01*
X3945699Y9334500D02*
G01*
X4481741Y8798458D01*
X4481741Y8647341D01*
D17*
X4343400Y4914900D02*
G01*
X4432300Y4914900D01*
X4521200Y5003800D01*
X4521200Y5334000D01*
X4597400Y5410200D01*
X4597400Y8203209D01*
X4545609Y8255000D01*
D18*
G01*
X2850997Y4648200D03*
G01*
X2991002Y4648200D03*
D19*
G01*
X1512175Y8610600D03*
G01*
X1662824Y8610600D03*
D18*
G01*
X2850997Y4406900D03*
G01*
X2991002Y4406900D03*
G01*
X2850997Y4152900D03*
G01*
X2991002Y4152900D03*
G01*
X2850997Y3886200D03*
G01*
X2991002Y3886200D03*
G01*
X2850997Y3644900D03*
G01*
X2991002Y3644900D03*
G01*
X2850997Y3378200D03*
G01*
X2991002Y3378200D03*
G01*
X2850997Y3124200D03*
G01*
X2991002Y3124200D03*
D19*
G01*
X1486775Y7162800D03*
G01*
X1637424Y7162800D03*
G01*
X1499475Y5816600D03*
G01*
X1650124Y5816600D03*
G01*
X1461375Y4394200D03*
G01*
X1612024Y4394200D03*
G01*
X1512175Y2997200D03*
G01*
X1662824Y2997200D03*
G01*
X1550275Y1676400D03*
G01*
X1700924Y1676400D03*
D20*
G01*
X1498600Y570624D03*
D21*
G01*
X1498600Y419963D03*
D22*
G01*
X469900Y7245502D03*
G01*
X469900Y7105497D03*
G01*
X482600Y5823102D03*
G01*
X482600Y5683097D03*
G01*
X495300Y4464202D03*
G01*
X495300Y4324197D03*
G01*
X444500Y3092602D03*
G01*
X444500Y2952597D03*
G01*
X444500Y1733702D03*
G01*
X444500Y1593697D03*
D18*
G01*
X844702Y88900D03*
G01*
X704697Y88900D03*
D23*
G01*
X558800Y7762290D03*
G01*
X558800Y7452309D03*
G01*
X571500Y6314490D03*
G01*
X571500Y6004509D03*
G01*
X584200Y4930190D03*
G01*
X584200Y4620209D03*
G01*
X571500Y3596690D03*
G01*
X571500Y3286709D03*
G01*
X533400Y2237790D03*
G01*
X533400Y1927809D03*
G01*
X584200Y980490D03*
G01*
X584200Y670509D03*
D20*
G01*
X647700Y7100175D03*
D21*
G01*
X647700Y7250836D03*
D20*
G01*
X660400Y5665075D03*
D21*
G01*
X660400Y5815736D03*
D20*
G01*
X660400Y4318875D03*
D21*
G01*
X660400Y4469536D03*
D20*
G01*
X622300Y2934575D03*
D21*
G01*
X622300Y3085236D03*
D20*
G01*
X622300Y1588375D03*
D21*
G01*
X622300Y1739036D03*
D24*
G01*
X1180224Y88900D03*
G01*
X1029575Y88900D03*
D25*
G01*
X666013Y8077200D03*
G01*
X666013Y7950200D03*
G01*
X1366012Y7950200D03*
G01*
X1366012Y8077200D03*
G01*
X678713Y6731000D03*
G01*
X678713Y6604000D03*
G01*
X1378712Y6604000D03*
G01*
X1378712Y6731000D03*
G01*
X704113Y5334000D03*
G01*
X704113Y5207000D03*
G01*
X1404112Y5207000D03*
G01*
X1404112Y5334000D03*
G01*
X704113Y3975100D03*
G01*
X704113Y3848100D03*
G01*
X1404112Y3848100D03*
G01*
X1404112Y3975100D03*
G01*
X653313Y2552700D03*
G01*
X653313Y2425700D03*
G01*
X1353312Y2425700D03*
G01*
X1353312Y2552700D03*
G01*
X640613Y1346200D03*
G01*
X640613Y1219200D03*
G01*
X1340612Y1219200D03*
G01*
X1340612Y1346200D03*
D22*
G01*
X482600Y8579002D03*
G01*
X482600Y8438997D03*
D23*
G01*
X520700Y9095790D03*
G01*
X520700Y8785809D03*
D20*
G01*
X647700Y8433675D03*
D21*
G01*
X647700Y8584336D03*
D25*
G01*
X716813Y9410700D03*
G01*
X716813Y9283700D03*
G01*
X1416812Y9283700D03*
G01*
X1416812Y9410700D03*
D26*
G01*
X7117182Y9512300D03*
G01*
X7030617Y9512300D03*
D20*
G01*
X5257800Y8393824D03*
D21*
G01*
X5257800Y8243163D03*
D27*
G01*
X5068900Y8794495D03*
G01*
X5068900Y8604504D03*
G01*
X5268899Y8699500D03*
D28*
G01*
X5016500Y8949689D03*
G01*
X5016500Y9109710D03*
D23*
G01*
X5219700Y9014409D03*
G01*
X5219700Y9324390D03*
D20*
G01*
X5092700Y8243175D03*
D21*
G01*
X5092700Y8393836D03*
D24*
G01*
X1650124Y9055100D03*
G01*
X1499475Y9055100D03*
D28*
G01*
X1680133Y8801100D03*
G01*
X1520240Y8801100D03*
D24*
G01*
X1650124Y7645400D03*
G01*
X1499475Y7645400D03*
D28*
G01*
X1667433Y7391400D03*
G01*
X1507540Y7391400D03*
D24*
G01*
X1637424Y6299200D03*
G01*
X1486775Y6299200D03*
D28*
G01*
X1654733Y6045200D03*
G01*
X1494840Y6045200D03*
D24*
G01*
X1612024Y4902200D03*
G01*
X1461375Y4902200D03*
D28*
G01*
X1616633Y4622800D03*
G01*
X1456740Y4622800D03*
D24*
G01*
X1675524Y3517900D03*
G01*
X1524875Y3517900D03*
D28*
G01*
X1667433Y3238500D03*
G01*
X1507540Y3238500D03*
D24*
G01*
X1637424Y2120900D03*
G01*
X1486775Y2120900D03*
D28*
G01*
X1654733Y1879600D03*
G01*
X1494840Y1879600D03*
D24*
G01*
X1612024Y952500D03*
G01*
X1461375Y952500D03*
D28*
G01*
X1616633Y774700D03*
G01*
X1456740Y774700D03*
D29*
G01*
X4531486Y1126236D03*
G01*
X4231487Y1126236D03*
G36*
X4286516Y762279D02*
G01*
X4286516Y947699D01*
X4286623Y952152D01*
X4286935Y956594D01*
X4287456Y961019D01*
X4288182Y965413D01*
X4289117Y969769D01*
X4290253Y974074D01*
X4291589Y978324D01*
X4293123Y982505D01*
X4294852Y986609D01*
X4296770Y990630D01*
X4298876Y994554D01*
X4301164Y998377D01*
X4303628Y1002088D01*
X4306262Y1005679D01*
X4309061Y1009142D01*
X4312023Y1012471D01*
X4315134Y1015657D01*
X4318393Y1018694D01*
X4321789Y1021575D01*
X4325317Y1024293D01*
X4328970Y1026843D01*
X4332737Y1029218D01*
X4336613Y1031415D01*
X4340585Y1033429D01*
X4348515Y1035253D01*
X4348515Y1204986D01*
X4414514Y1204986D01*
X4414514Y1035253D01*
X4422449Y1033429D01*
X4426422Y1031415D01*
X4430298Y1029218D01*
X4434065Y1026843D01*
X4437717Y1024293D01*
X4441245Y1021575D01*
X4444641Y1018694D01*
X4447900Y1015657D01*
X4451012Y1012471D01*
X4453973Y1009142D01*
X4456772Y1005679D01*
X4459406Y1002088D01*
X4461870Y998377D01*
X4464159Y994554D01*
X4466264Y990630D01*
X4468182Y986609D01*
X4469912Y982505D01*
X4471446Y978324D01*
X4472782Y974074D01*
X4473917Y969769D01*
X4474852Y965413D01*
X4475579Y961019D01*
X4476099Y956594D01*
X4476412Y952152D01*
X4476518Y947699D01*
X4476518Y762279D01*
X4476412Y757826D01*
X4476099Y753384D01*
X4475579Y748959D01*
X4474852Y744565D01*
X4473917Y740209D01*
X4472782Y735904D01*
X4471446Y731654D01*
X4469912Y727473D01*
X4468182Y723369D01*
X4466264Y719348D01*
X4464159Y715424D01*
X4461870Y711601D01*
X4459406Y707890D01*
X4456772Y704298D01*
X4453973Y700836D01*
X4451012Y697506D01*
X4447900Y694321D01*
X4444641Y691283D01*
X4441245Y688403D01*
X4437717Y685685D01*
X4434065Y683135D01*
X4430298Y680760D01*
X4426422Y678563D01*
X4422449Y676549D01*
X4418385Y674725D01*
X4414243Y673092D01*
X4410026Y671657D01*
X4405746Y670420D01*
X4401413Y669386D01*
X4397039Y668555D01*
X4392627Y667931D01*
X4388192Y667514D01*
X4383745Y667306D01*
X4379290Y667306D01*
X4374842Y667514D01*
X4370407Y667931D01*
X4365995Y668555D01*
X4361621Y669386D01*
X4357288Y670420D01*
X4353008Y671657D01*
X4348792Y673092D01*
X4344649Y674725D01*
X4340585Y676549D01*
X4336613Y678563D01*
X4332737Y680760D01*
X4328970Y683135D01*
X4325317Y685685D01*
X4321789Y688403D01*
X4318393Y691283D01*
X4315134Y694321D01*
X4312023Y697506D01*
X4309061Y700836D01*
X4306262Y704298D01*
X4303628Y707890D01*
X4301164Y711601D01*
X4298876Y715424D01*
X4296770Y719348D01*
X4294852Y723369D01*
X4293123Y727473D01*
X4291589Y731654D01*
X4290253Y735904D01*
X4289117Y740209D01*
X4288182Y744565D01*
X4287456Y748959D01*
X4286935Y753384D01*
X4286623Y757826D01*
X4286516Y762279D01*
G37*
D22*
G01*
X4546600Y1365097D03*
G01*
X4546600Y1505102D03*
G01*
X4203700Y1365097D03*
G01*
X4203700Y1505102D03*
D26*
G01*
X7447382Y8102600D03*
G01*
X7360817Y8102600D03*
D20*
G01*
X5245100Y7026034D03*
D21*
G01*
X5245100Y6875373D03*
D27*
G01*
X5056200Y7426705D03*
G01*
X5056200Y7236713D03*
G01*
X5256199Y7331710D03*
D28*
G01*
X5003800Y7581900D03*
G01*
X5003800Y7741920D03*
D23*
G01*
X5207000Y7646619D03*
G01*
X5207000Y7956600D03*
D20*
G01*
X5080000Y6875385D03*
D21*
G01*
X5080000Y7026046D03*
D26*
G01*
X7447382Y6769100D03*
G01*
X7360817Y6769100D03*
D20*
G01*
X5232400Y5667134D03*
D21*
G01*
X5232400Y5516473D03*
D27*
G01*
X5043500Y6067805D03*
G01*
X5043500Y5877813D03*
G01*
X5243499Y5972810D03*
D28*
G01*
X4991100Y6223000D03*
G01*
X4991100Y6383020D03*
D23*
G01*
X5194300Y6287719D03*
G01*
X5194300Y6597700D03*
D20*
G01*
X5067300Y5516485D03*
D21*
G01*
X5067300Y5667146D03*
D26*
G01*
X7409282Y5422900D03*
G01*
X7322717Y5422900D03*
D20*
G01*
X5232400Y4308234D03*
D21*
G01*
X5232400Y4157573D03*
D27*
G01*
X5043500Y4708905D03*
G01*
X5043500Y4518913D03*
G01*
X5243499Y4613910D03*
D28*
G01*
X4991100Y4864100D03*
G01*
X4991100Y5024120D03*
D23*
G01*
X5194300Y4928819D03*
G01*
X5194300Y5238800D03*
D20*
G01*
X5067300Y4157585D03*
D21*
G01*
X5067300Y4308246D03*
D26*
G01*
X7421982Y4064000D03*
G01*
X7335417Y4064000D03*
D20*
G01*
X5219700Y2962034D03*
D21*
G01*
X5219700Y2811373D03*
D27*
G01*
X5030800Y3362705D03*
G01*
X5030800Y3172713D03*
G01*
X5230799Y3267710D03*
D28*
G01*
X4978400Y3517900D03*
G01*
X4978400Y3677920D03*
D23*
G01*
X5181600Y3582619D03*
G01*
X5181600Y3892600D03*
D20*
G01*
X5054600Y2811385D03*
D21*
G01*
X5054600Y2962046D03*
D26*
G01*
X7409282Y2692400D03*
G01*
X7322717Y2692400D03*
D20*
G01*
X5219700Y1603134D03*
D21*
G01*
X5219700Y1452473D03*
D27*
G01*
X5030800Y2003805D03*
G01*
X5030800Y1813813D03*
G01*
X5230799Y1908810D03*
D28*
G01*
X4978400Y2159000D03*
G01*
X4978400Y2319020D03*
D23*
G01*
X5181600Y2223719D03*
G01*
X5181600Y2533700D03*
D20*
G01*
X5054600Y1452485D03*
D21*
G01*
X5054600Y1603146D03*
D26*
G01*
X7396582Y1371600D03*
G01*
X7310017Y1371600D03*
D20*
G01*
X5219700Y256934D03*
D21*
G01*
X5219700Y106273D03*
D27*
G01*
X5030800Y657605D03*
G01*
X5030800Y467613D03*
G01*
X5230799Y562610D03*
D28*
G01*
X4978400Y812800D03*
G01*
X4978400Y972820D03*
D23*
G01*
X5181600Y877519D03*
G01*
X5181600Y1187500D03*
D20*
G01*
X5054600Y106285D03*
D21*
G01*
X5054600Y256946D03*
G36*
X3987800Y990600D02*
G01*
X4775200Y990600D01*
X4775200Y533400D01*
X3987800Y533400D01*
G37*
D30*
G01*
X3785615Y8255000D03*
G01*
X4545609Y8255000D03*
D31*
G01*
X2764586Y9334500D03*
G01*
X2264613Y9334500D03*
G01*
X3945686Y9334500D03*
G01*
X3445713Y9334500D03*
D30*
G01*
X127000Y7518400D03*
G01*
X127000Y7772400D03*
G01*
X127000Y6070600D03*
G01*
X127000Y6324600D03*
G01*
X127000Y4775200D03*
G01*
X127000Y5029200D03*
G01*
X127000Y3340100D03*
G01*
X127000Y3594100D03*
G01*
X127000Y1955800D03*
G01*
X127000Y2209800D03*
G01*
X127000Y723900D03*
G01*
X127000Y977900D03*
G01*
X127000Y8788400D03*
G01*
X127000Y9042400D03*
D32*
G01*
X1016000Y7662341D03*
D30*
G01*
X1016000Y7408316D03*
G01*
X1016000Y7154316D03*
D32*
G01*
X1016000Y6282258D03*
D30*
G01*
X1016000Y6028258D03*
G01*
X1016000Y5774258D03*
D32*
G01*
X1016000Y4902200D03*
D30*
G01*
X1016000Y4648200D03*
G01*
X1016000Y4394200D03*
D32*
G01*
X1016000Y3522141D03*
D30*
G01*
X1016000Y3268141D03*
G01*
X1016000Y3014141D03*
D32*
G01*
X1016000Y2142058D03*
D30*
G01*
X1016000Y1888058D03*
G01*
X1016000Y1634058D03*
D32*
G01*
X1028700Y876300D03*
D30*
G01*
X1028700Y622300D03*
G01*
X1028700Y368300D03*
D32*
G01*
X1016000Y9042400D03*
D30*
G01*
X1016000Y8788400D03*
G01*
X1016000Y8534400D03*
D33*
G01*
X6769100Y8275701D03*
G01*
X6769100Y9275699D03*
G01*
X5749036Y9275699D03*
G01*
X5749036Y8275701D03*
G01*
X5499100Y8775572D03*
D31*
G01*
X7404100Y8563787D03*
G01*
X7404100Y9063786D03*
G01*
X3691686Y723900D03*
G01*
X3191713Y723900D03*
D34*
G01*
X4381500Y6985000D03*
G01*
X4127500Y6985000D03*
G01*
X3873500Y6985000D03*
G01*
X3619500Y6985000D03*
D35*
G01*
X3365500Y6985000D03*
D34*
G01*
X4381500Y6477000D03*
G01*
X4127500Y6477000D03*
G01*
X3873500Y6477000D03*
G01*
X3619500Y6477000D03*
D35*
G01*
X3365500Y6477000D03*
D34*
G01*
X4381500Y7239000D03*
G01*
X4127500Y7239000D03*
G01*
X3873500Y7239000D03*
G01*
X3619500Y7239000D03*
D35*
G01*
X3365500Y7239000D03*
D34*
G01*
X4381500Y6731000D03*
G01*
X4127500Y6731000D03*
G01*
X3873500Y6731000D03*
G01*
X3619500Y6731000D03*
D35*
G01*
X3365500Y6731000D03*
D34*
G01*
X4381500Y6223000D03*
G01*
X4127500Y6223000D03*
G01*
X3873500Y6223000D03*
G01*
X3619500Y6223000D03*
D35*
G01*
X3365500Y6223000D03*
D34*
G01*
X3111500Y6985000D03*
G01*
X2857500Y6985000D03*
G01*
X2603500Y6985000D03*
G01*
X2349500Y6985000D03*
D35*
G01*
X2095500Y6985000D03*
D34*
G01*
X3111500Y7239000D03*
G01*
X2857500Y7239000D03*
G01*
X2603500Y7239000D03*
G01*
X2349500Y7239000D03*
D35*
G01*
X2095500Y7239000D03*
D34*
G01*
X3111500Y6731000D03*
G01*
X2857500Y6731000D03*
G01*
X2603500Y6731000D03*
G01*
X2349500Y6731000D03*
D35*
G01*
X2095500Y6731000D03*
D34*
G01*
X3111500Y6223000D03*
G01*
X2857500Y6223000D03*
G01*
X2603500Y6223000D03*
G01*
X2349500Y6223000D03*
D35*
G01*
X2095500Y6223000D03*
D34*
G01*
X3111500Y6477000D03*
G01*
X2857500Y6477000D03*
G01*
X2603500Y6477000D03*
G01*
X2349500Y6477000D03*
D35*
G01*
X2095500Y6477000D03*
D33*
G01*
X6756400Y6907911D03*
G01*
X6756400Y7907909D03*
G01*
X5736336Y7907909D03*
G01*
X5736336Y6907911D03*
G01*
X5486400Y7407783D03*
D31*
G01*
X7391400Y7195997D03*
G01*
X7391400Y7695996D03*
D33*
G01*
X6743700Y5549011D03*
G01*
X6743700Y6549009D03*
G01*
X5723636Y6549009D03*
G01*
X5723636Y5549011D03*
G01*
X5473700Y6048882D03*
D31*
G01*
X7378700Y5837097D03*
G01*
X7378700Y6337096D03*
D33*
G01*
X6743700Y4190111D03*
G01*
X6743700Y5190109D03*
G01*
X5723636Y5190109D03*
G01*
X5723636Y4190111D03*
G01*
X5473700Y4689982D03*
D31*
G01*
X7378700Y4478197D03*
G01*
X7378700Y4978196D03*
D33*
G01*
X6731000Y2843911D03*
G01*
X6731000Y3843909D03*
G01*
X5710936Y3843909D03*
G01*
X5710936Y2843911D03*
G01*
X5461000Y3343782D03*
D31*
G01*
X7366000Y3131997D03*
G01*
X7366000Y3631996D03*
D33*
G01*
X6731000Y1485011D03*
G01*
X6731000Y2485009D03*
G01*
X5710936Y2485009D03*
G01*
X5710936Y1485011D03*
G01*
X5461000Y1984882D03*
D31*
G01*
X7366000Y1773097D03*
G01*
X7366000Y2273096D03*
D33*
G01*
X6731000Y138811D03*
G01*
X6731000Y1138809D03*
G01*
X5710936Y1138809D03*
G01*
X5710936Y138811D03*
G01*
X5461000Y638682D03*
D31*
G01*
X7366000Y426897D03*
G01*
X7366000Y926896D03*
D36*
G01*
X2213305Y1379499D03*
G01*
X2213305Y779500D03*
D37*
G01*
X2714294Y1074496D03*
D34*
G01*
X4343400Y5676900D03*
G01*
X4343400Y5422900D03*
G01*
X4343400Y5168900D03*
G01*
X4343400Y4914900D03*
G01*
X4343400Y4660900D03*
G01*
X4343400Y4406900D03*
G01*
X4343400Y4152900D03*
G01*
X4343400Y3898900D03*
G01*
X4343400Y3644900D03*
G01*
X4343400Y3390900D03*
G01*
X4343400Y3136900D03*
G01*
X4343400Y2882900D03*
G01*
X4343400Y2628900D03*
G01*
X4343400Y2374900D03*
D35*
G01*
X4343400Y2120900D03*
D34*
G01*
X2108200Y5676900D03*
G01*
X2108200Y5422900D03*
G01*
X2108200Y5168900D03*
G01*
X2108200Y4914900D03*
G01*
X2108200Y4660900D03*
G01*
X2108200Y4406900D03*
G01*
X2108200Y4152900D03*
G01*
X2108200Y3898900D03*
G01*
X2108200Y3644900D03*
G01*
X2108200Y3390900D03*
G01*
X2108200Y3136900D03*
G01*
X2108200Y2882900D03*
G01*
X2108200Y2628900D03*
G01*
X2108200Y2374900D03*
D35*
G01*
X2108200Y2120900D03*
D38*
G01*
X3987800Y2120900D03*
G01*
X3987800Y2374900D03*
G01*
X3987800Y2628900D03*
G01*
X3987800Y2882900D03*
G01*
X3987800Y3136900D03*
G01*
X3987800Y3390900D03*
G01*
X3987800Y3644900D03*
G01*
X3987800Y3898900D03*
G01*
X3987800Y4152900D03*
G01*
X3987800Y4406900D03*
G01*
X3987800Y4660900D03*
G01*
X3987800Y4914900D03*
G01*
X3987800Y5168900D03*
G01*
X3987800Y5422900D03*
G01*
X3987800Y5676900D03*
G01*
X2463800Y5676900D03*
G01*
X2463800Y5422900D03*
G01*
X2463800Y5168900D03*
G01*
X2463800Y4914900D03*
G01*
X2463800Y4660900D03*
G01*
X2463800Y4406900D03*
G01*
X2463800Y4152900D03*
G01*
X2463800Y3898900D03*
G01*
X2463800Y3644900D03*
G01*
X2463800Y3390900D03*
G01*
X2463800Y3136900D03*
G01*
X2463800Y2882900D03*
G01*
X2463800Y2628900D03*
G01*
X2463800Y2374900D03*
G01*
X2463800Y2120900D03*
D39*
G01*
X4953000Y7429500D03*
G01*
X5245100Y7112000D03*
G01*
X5080000Y7115810D03*
G01*
X4953000Y7522210D03*
G01*
X4991100Y6870700D03*
G01*
X4953000Y6057900D03*
G01*
X5232400Y5753100D03*
G01*
X5067300Y5756910D03*
G01*
X4940300Y6163310D03*
G01*
X4978400Y5511800D03*
G01*
X4953000Y4699000D03*
G01*
X5232400Y4394200D03*
G01*
X5067300Y4398010D03*
G01*
X4940300Y4804410D03*
G01*
X4978400Y4152900D03*
G01*
X4940300Y3365500D03*
G01*
X5219700Y3048000D03*
G01*
X5054600Y3051810D03*
G01*
X4927600Y3458210D03*
G01*
X4965700Y2806700D03*
G01*
X4927600Y1997710D03*
G01*
X5219700Y1689100D03*
G01*
X5054600Y1692910D03*
G01*
X4927600Y2099310D03*
G01*
X4978400Y1447800D03*
G01*
X4927600Y647700D03*
G01*
X5219700Y342900D03*
G01*
X5054600Y346710D03*
G01*
X4927600Y753110D03*
G01*
X4965700Y101600D03*
G01*
X4965700Y8788400D03*
G01*
X5257800Y8470900D03*
G01*
X5092700Y8483600D03*
G01*
X4965700Y8890000D03*
G01*
X5003800Y8238489D03*
G01*
X1562100Y1155700D03*
G01*
X1549400Y2425700D03*
G01*
X1549400Y3848100D03*
G01*
X1562100Y6604000D03*
G01*
X1549400Y7950200D03*
G01*
X1562100Y9283700D03*
G01*
X1549400Y5207000D03*
G01*
X254000Y1155700D03*
G01*
X266700Y2425700D03*
G01*
X304800Y3848100D03*
G01*
X304800Y5219700D03*
G01*
X330200Y6616700D03*
G01*
X330200Y7950200D03*
G01*
X330200Y9283700D03*
M02*
