G04 Layer: BottomSilkscreenLayer*
G04 EasyEDA v6.5.20, 2025-08-31 18:04:55*
G04 4654ec591aaf40839b9ddd4dd84afded,10*
G04 Gerber Generator version 0.2*
G04 Scale: 100 percent, Rotated: No, Reflected: No *
G04 Dimensions in millimeters *
G04 leading zeros omitted , absolute positions ,4 integer and 5 decimal *
%FSLAX45Y45*%
%MOMM*%

%ADD10C,0.2032*%
%ADD11C,0.1524*%
%ADD12C,0.2540*%

%LPD*%
D10*
X3792618Y2922981D02*
G01*
X3797162Y2932071D01*
X3806253Y2941162D01*
X3815346Y2945709D01*
X3833528Y2945709D01*
X3842618Y2941162D01*
X3851709Y2932071D01*
X3856253Y2922981D01*
X3860800Y2909346D01*
X3860800Y2886618D01*
X3856253Y2872981D01*
X3851709Y2863890D01*
X3842618Y2854799D01*
X3833528Y2850253D01*
X3815346Y2850253D01*
X3806253Y2854799D01*
X3797162Y2863890D01*
X3792618Y2872981D01*
X3792618Y2886618D01*
X3815346Y2886618D02*
G01*
X3792618Y2886618D01*
X3762618Y2945709D02*
G01*
X3762618Y2850253D01*
X3762618Y2945709D02*
G01*
X3698981Y2850253D01*
X3698981Y2945709D02*
G01*
X3698981Y2850253D01*
X3668981Y2945709D02*
G01*
X3668981Y2850253D01*
X3668981Y2945709D02*
G01*
X3637163Y2945709D01*
X3623528Y2941162D01*
X3614435Y2932071D01*
X3609891Y2922981D01*
X3605344Y2909346D01*
X3605344Y2886618D01*
X3609891Y2872981D01*
X3614435Y2863890D01*
X3623528Y2854799D01*
X3637163Y2850253D01*
X3668981Y2850253D01*
X2565400Y2083562D02*
G01*
X2601722Y2179065D01*
X2638043Y2083562D02*
G01*
X2601722Y2179065D01*
X2668015Y2083562D02*
G01*
X2668015Y2179065D01*
X2698241Y2083562D02*
G01*
X2698241Y2179065D01*
X2698241Y2083562D02*
G01*
X2761741Y2179065D01*
X2761741Y2083562D02*
G01*
X2761741Y2179065D01*
X2666771Y4917973D02*
G01*
X2809953Y4917973D01*
X2666771Y4965700D02*
G01*
X2666771Y4870246D01*
X2666771Y4825245D02*
G01*
X2809953Y4825245D01*
X2666771Y4825245D02*
G01*
X2666771Y4763881D01*
X2673588Y4743427D01*
X2680408Y4736609D01*
X2694043Y4729792D01*
X2707680Y4729792D01*
X2721317Y4736609D01*
X2728135Y4743427D01*
X2734952Y4763881D01*
X2734952Y4825245D01*
X2734952Y4777519D02*
G01*
X2809953Y4729792D01*
X2666771Y4630247D02*
G01*
X2809953Y4684791D01*
X2666771Y4630247D02*
G01*
X2809953Y4575700D01*
X2762227Y4664336D02*
G01*
X2762227Y4596155D01*
X2666771Y4530699D02*
G01*
X2809953Y4530699D01*
X2666771Y4485700D02*
G01*
X2809953Y4485700D01*
X2666771Y4485700D02*
G01*
X2809953Y4390247D01*
X2666771Y4390247D02*
G01*
X2809953Y4390247D01*
X2666771Y4240248D02*
G01*
X2809953Y4240248D01*
X2666771Y4240248D02*
G01*
X2666771Y4178884D01*
X2673588Y4158429D01*
X2680408Y4151609D01*
X2694043Y4144792D01*
X2707680Y4144792D01*
X2721317Y4151609D01*
X2728135Y4158429D01*
X2734952Y4178884D01*
X2734952Y4240248D02*
G01*
X2734952Y4178884D01*
X2741772Y4158429D01*
X2748589Y4151609D01*
X2762227Y4144792D01*
X2782681Y4144792D01*
X2796316Y4151609D01*
X2803136Y4158429D01*
X2809953Y4178884D01*
X2809953Y4240248D01*
X2666771Y4045247D02*
G01*
X2809953Y4099793D01*
X2666771Y4045247D02*
G01*
X2809953Y3990700D01*
X2762227Y4079339D02*
G01*
X2762227Y4011155D01*
X2666771Y3945702D02*
G01*
X2809953Y3945702D01*
X2666771Y3945702D02*
G01*
X2666771Y3884338D01*
X2673588Y3863883D01*
X2680408Y3857066D01*
X2694043Y3850248D01*
X2707680Y3850248D01*
X2721317Y3857066D01*
X2728135Y3863883D01*
X2734952Y3884338D01*
X2734952Y3945702D01*
X2734952Y3897975D02*
G01*
X2809953Y3850248D01*
X2666771Y3805247D02*
G01*
X2809953Y3805247D01*
X2666771Y3805247D02*
G01*
X2666771Y3743883D01*
X2673588Y3723429D01*
X2680408Y3716611D01*
X2694043Y3709794D01*
X2707680Y3709794D01*
X2721317Y3716611D01*
X2728135Y3723429D01*
X2734952Y3743883D01*
X2734952Y3805247D01*
X2734952Y3757521D02*
G01*
X2809953Y3709794D01*
X2666771Y3664793D02*
G01*
X2809953Y3664793D01*
X2666771Y3619794D02*
G01*
X2809953Y3619794D01*
X2666771Y3619794D02*
G01*
X2666771Y3531156D01*
X2734952Y3619794D02*
G01*
X2734952Y3565248D01*
X2809953Y3619794D02*
G01*
X2809953Y3531156D01*
X2666771Y3486157D02*
G01*
X2809953Y3486157D01*
X2666771Y3486157D02*
G01*
X2666771Y3424793D01*
X2673588Y3404339D01*
X2680408Y3397521D01*
X2694043Y3390701D01*
X2707680Y3390701D01*
X2721317Y3397521D01*
X2728135Y3404339D01*
X2734952Y3424793D01*
X2734952Y3486157D01*
X2734952Y3438431D02*
G01*
X2809953Y3390701D01*
X2952462Y4863426D02*
G01*
X2938825Y4870246D01*
X2925188Y4883881D01*
X2918371Y4897518D01*
X2918371Y4924790D01*
X2925188Y4938428D01*
X2938825Y4952062D01*
X2952462Y4958882D01*
X2972917Y4965700D01*
X3007006Y4965700D01*
X3027461Y4958882D01*
X3041098Y4952062D01*
X3054736Y4938428D01*
X3061553Y4924790D01*
X3061553Y4897518D01*
X3054736Y4883881D01*
X3041098Y4870246D01*
X3027461Y4863426D01*
X2918371Y4777519D02*
G01*
X2925188Y4791153D01*
X2938825Y4804790D01*
X2952462Y4811608D01*
X2972917Y4818428D01*
X3007006Y4818428D01*
X3027461Y4811608D01*
X3041098Y4804790D01*
X3054736Y4791153D01*
X3061553Y4777519D01*
X3061553Y4750247D01*
X3054736Y4736609D01*
X3041098Y4722972D01*
X3027461Y4716155D01*
X3007006Y4709337D01*
X2972917Y4709337D01*
X2952462Y4716155D01*
X2938825Y4722972D01*
X2925188Y4736609D01*
X2918371Y4750247D01*
X2918371Y4777519D01*
X2918371Y4664336D02*
G01*
X3061553Y4664336D01*
X2918371Y4664336D02*
G01*
X3061553Y4568883D01*
X2918371Y4568883D02*
G01*
X3061553Y4568883D01*
X2918371Y4476155D02*
G01*
X3061553Y4476155D01*
X2918371Y4523882D02*
G01*
X2918371Y4428429D01*
X2918371Y4383427D02*
G01*
X3061553Y4383427D01*
X2918371Y4383427D02*
G01*
X2918371Y4322063D01*
X2925188Y4301609D01*
X2932008Y4294792D01*
X2945643Y4287974D01*
X2959280Y4287974D01*
X2972917Y4294792D01*
X2979734Y4301609D01*
X2986552Y4322063D01*
X2986552Y4383427D01*
X2986552Y4335701D02*
G01*
X3061553Y4287974D01*
X2918371Y4202064D02*
G01*
X2925188Y4215701D01*
X2938825Y4229338D01*
X2952462Y4236156D01*
X2972917Y4242973D01*
X3007006Y4242973D01*
X3027461Y4236156D01*
X3041098Y4229338D01*
X3054736Y4215701D01*
X3061553Y4202064D01*
X3061553Y4174792D01*
X3054736Y4161154D01*
X3041098Y4147520D01*
X3027461Y4140700D01*
X3007006Y4133883D01*
X2972917Y4133883D01*
X2952462Y4140700D01*
X2938825Y4147520D01*
X2925188Y4161154D01*
X2918371Y4174792D01*
X2918371Y4202064D01*
X2918371Y4088884D02*
G01*
X3061553Y4088884D01*
X3061553Y4088884D02*
G01*
X3061553Y4007065D01*
X2918371Y3962064D02*
G01*
X3061553Y3962064D01*
X2918371Y3962064D02*
G01*
X2918371Y3873428D01*
X2986552Y3962064D02*
G01*
X2986552Y3907520D01*
X3061553Y3962064D02*
G01*
X3061553Y3873428D01*
X2918371Y3828430D02*
G01*
X3061553Y3828430D01*
X2918371Y3828430D02*
G01*
X2918371Y3767066D01*
X2925188Y3746611D01*
X2932008Y3739794D01*
X2945643Y3732974D01*
X2959280Y3732974D01*
X2972917Y3739794D01*
X2979734Y3746611D01*
X2986552Y3767066D01*
X2986552Y3828430D01*
X2986552Y3780701D02*
G01*
X3061553Y3732974D01*
X2966097Y3582974D02*
G01*
X3061553Y3507976D01*
X2966097Y3507976D02*
G01*
X3061553Y3582974D01*
X2918371Y3367521D02*
G01*
X3061553Y3435703D01*
X2918371Y3462975D02*
G01*
X2918371Y3367521D01*
X3557015Y5215889D02*
G01*
X3700272Y5270500D01*
X3557015Y5215889D02*
G01*
X3700272Y5161534D01*
X3652520Y5249926D02*
G01*
X3652520Y5181854D01*
X3604768Y5116321D02*
G01*
X3700272Y5116321D01*
X3631945Y5116321D02*
G01*
X3611625Y5096002D01*
X3604768Y5082286D01*
X3604768Y5061965D01*
X3611625Y5048250D01*
X3631945Y5041392D01*
X3700272Y5041392D01*
X3631945Y5041392D02*
G01*
X3611625Y5021071D01*
X3604768Y5007355D01*
X3604768Y4986781D01*
X3611625Y4973320D01*
X3631945Y4966462D01*
X3700272Y4966462D01*
X3557015Y4921504D02*
G01*
X3563874Y4914645D01*
X3557015Y4907787D01*
X3550158Y4914645D01*
X3557015Y4921504D01*
X3604768Y4914645D02*
G01*
X3700272Y4914645D01*
X3604768Y4862829D02*
G01*
X3700272Y4862829D01*
X3645661Y4862829D02*
G01*
X3625341Y4855971D01*
X3611625Y4842255D01*
X3604768Y4828794D01*
X3604768Y4808220D01*
X3557015Y4763262D02*
G01*
X3700272Y4763262D01*
X3557015Y4763262D02*
G01*
X3557015Y4701794D01*
X3563874Y4681473D01*
X3570731Y4674615D01*
X3584193Y4667757D01*
X3597909Y4667757D01*
X3611625Y4674615D01*
X3618484Y4681473D01*
X3625341Y4701794D01*
X3625341Y4763262D02*
G01*
X3625341Y4701794D01*
X3631945Y4681473D01*
X3638804Y4674615D01*
X3652520Y4667757D01*
X3672840Y4667757D01*
X3686556Y4674615D01*
X3693413Y4681473D01*
X3700272Y4701794D01*
X3700272Y4763262D01*
X3611625Y4520437D02*
G01*
X3597909Y4527295D01*
X3591052Y4541012D01*
X3591052Y4561331D01*
X3597909Y4575047D01*
X3604768Y4581905D01*
X3625341Y4588763D01*
X3645661Y4588763D01*
X3659377Y4581905D01*
X3666236Y4568189D01*
X3666236Y4547870D01*
X3659377Y4534154D01*
X3645661Y4527295D01*
X3591052Y4561331D02*
G01*
X3604768Y4575047D01*
X3625341Y4581905D01*
X3645661Y4581905D01*
X3659377Y4575047D01*
X3666236Y4568189D01*
X3591052Y4520437D02*
G01*
X3645661Y4527295D01*
X3659377Y4527295D01*
X3666236Y4513579D01*
X3666236Y4500118D01*
X3652520Y4486402D01*
X3631945Y4479544D01*
X3618484Y4479544D01*
X3597909Y4486402D01*
X3584193Y4493260D01*
X3570731Y4506976D01*
X3563874Y4520437D01*
X3557015Y4541012D01*
X3557015Y4561331D01*
X3563874Y4581905D01*
X3570731Y4595621D01*
X3584193Y4609084D01*
X3597909Y4615942D01*
X3618484Y4622800D01*
X3638804Y4622800D01*
X3659377Y4615942D01*
X3672840Y4609084D01*
X3686556Y4595621D01*
X3693413Y4581905D01*
X3700272Y4561331D01*
X3700272Y4541012D01*
X3693413Y4520437D01*
X3686556Y4506976D01*
X3679697Y4500118D01*
X3591052Y4513579D02*
G01*
X3645661Y4520437D01*
X3659377Y4520437D01*
X3666236Y4513579D01*
X3604768Y4434586D02*
G01*
X3700272Y4434586D01*
X3631945Y4434586D02*
G01*
X3611625Y4414012D01*
X3604768Y4400550D01*
X3604768Y4379976D01*
X3611625Y4366513D01*
X3631945Y4359655D01*
X3700272Y4359655D01*
X3631945Y4359655D02*
G01*
X3611625Y4339081D01*
X3604768Y4325620D01*
X3604768Y4305045D01*
X3611625Y4291329D01*
X3631945Y4284471D01*
X3700272Y4284471D01*
X3604768Y4157726D02*
G01*
X3700272Y4157726D01*
X3625341Y4157726D02*
G01*
X3611625Y4171442D01*
X3604768Y4185157D01*
X3604768Y4205478D01*
X3611625Y4219194D01*
X3625341Y4232655D01*
X3645661Y4239513D01*
X3659377Y4239513D01*
X3679697Y4232655D01*
X3693413Y4219194D01*
X3700272Y4205478D01*
X3700272Y4185157D01*
X3693413Y4171442D01*
X3679697Y4157726D01*
X3557015Y4030979D02*
G01*
X3700272Y4030979D01*
X3625341Y4030979D02*
G01*
X3611625Y4044695D01*
X3604768Y4058157D01*
X3604768Y4078731D01*
X3611625Y4092194D01*
X3625341Y4105910D01*
X3645661Y4112768D01*
X3659377Y4112768D01*
X3679697Y4105910D01*
X3693413Y4092194D01*
X3700272Y4078731D01*
X3700272Y4058157D01*
X3693413Y4044695D01*
X3679697Y4030979D01*
X3604768Y3904234D02*
G01*
X3700272Y3904234D01*
X3625341Y3904234D02*
G01*
X3611625Y3917695D01*
X3604768Y3931412D01*
X3604768Y3951986D01*
X3611625Y3965447D01*
X3625341Y3979163D01*
X3645661Y3986021D01*
X3659377Y3986021D01*
X3679697Y3979163D01*
X3693413Y3965447D01*
X3700272Y3951986D01*
X3700272Y3931412D01*
X3693413Y3917695D01*
X3679697Y3904234D01*
X3666236Y3852418D02*
G01*
X3672840Y3859021D01*
X3679697Y3852418D01*
X3672840Y3845560D01*
X3666236Y3852418D01*
X3604768Y3766312D02*
G01*
X3611625Y3780028D01*
X3625341Y3793744D01*
X3645661Y3800602D01*
X3659377Y3800602D01*
X3679697Y3793744D01*
X3693413Y3780028D01*
X3700272Y3766312D01*
X3700272Y3745992D01*
X3693413Y3732276D01*
X3679697Y3718560D01*
X3659377Y3711955D01*
X3645661Y3711955D01*
X3625341Y3718560D01*
X3611625Y3732276D01*
X3604768Y3745992D01*
X3604768Y3766312D01*
X3604768Y3666744D02*
G01*
X3700272Y3666744D01*
X3645661Y3666744D02*
G01*
X3625341Y3660139D01*
X3611625Y3646423D01*
X3604768Y3632707D01*
X3604768Y3612387D01*
X3604768Y3485387D02*
G01*
X3713734Y3485387D01*
X3734308Y3492245D01*
X3741165Y3499104D01*
X3748024Y3512820D01*
X3748024Y3533139D01*
X3741165Y3546855D01*
X3625341Y3485387D02*
G01*
X3611625Y3499104D01*
X3604768Y3512820D01*
X3604768Y3533139D01*
X3611625Y3546855D01*
X3625341Y3560571D01*
X3645661Y3567429D01*
X3659377Y3567429D01*
X3679697Y3560571D01*
X3693413Y3546855D01*
X3700272Y3533139D01*
X3700272Y3512820D01*
X3693413Y3499104D01*
X3679697Y3485387D01*
X3666236Y3433571D02*
G01*
X3672840Y3440429D01*
X3679697Y3433571D01*
X3672840Y3426968D01*
X3666236Y3433571D01*
X3557015Y3381755D02*
G01*
X3563874Y3375152D01*
X3557015Y3368294D01*
X3550158Y3375152D01*
X3557015Y3381755D01*
X3604768Y3375152D02*
G01*
X3700272Y3375152D01*
X3557015Y3323336D02*
G01*
X3700272Y3323336D01*
X3201436Y4238053D02*
G01*
X3344618Y4292600D01*
X3201436Y4238053D02*
G01*
X3344618Y4183509D01*
X3296892Y4272145D02*
G01*
X3296892Y4203964D01*
X3201436Y4138508D02*
G01*
X3303709Y4138508D01*
X3324164Y4131690D01*
X3337801Y4118053D01*
X3344618Y4097599D01*
X3344618Y4083964D01*
X3337801Y4063509D01*
X3324164Y4049872D01*
X3303709Y4043055D01*
X3201436Y4043055D01*
X3235528Y3895783D02*
G01*
X3221890Y3902600D01*
X3208253Y3916238D01*
X3201436Y3929872D01*
X3201436Y3957147D01*
X3208253Y3970781D01*
X3221890Y3984419D01*
X3235528Y3991236D01*
X3255982Y3998053D01*
X3290072Y3998053D01*
X3310526Y3991236D01*
X3324164Y3984419D01*
X3337801Y3970781D01*
X3344618Y3957147D01*
X3344618Y3929872D01*
X3337801Y3916238D01*
X3324164Y3902600D01*
X3310526Y3895783D01*
X3290072Y3895783D01*
X3290072Y3929872D02*
G01*
X3290072Y3895783D01*
X3235528Y3738963D02*
G01*
X3228708Y3738963D01*
X3215073Y3732146D01*
X3208253Y3725329D01*
X3201436Y3711691D01*
X3201436Y3684419D01*
X3208253Y3670782D01*
X3215073Y3663965D01*
X3228708Y3657147D01*
X3242345Y3657147D01*
X3255982Y3663965D01*
X3276437Y3677599D01*
X3344618Y3745783D01*
X3344618Y3650327D01*
X3201436Y3564420D02*
G01*
X3208253Y3584874D01*
X3228708Y3598509D01*
X3262800Y3605329D01*
X3283254Y3605329D01*
X3317346Y3598509D01*
X3337801Y3584874D01*
X3344618Y3564420D01*
X3344618Y3550782D01*
X3337801Y3530328D01*
X3317346Y3516693D01*
X3283254Y3509873D01*
X3262800Y3509873D01*
X3228708Y3516693D01*
X3208253Y3530328D01*
X3201436Y3550782D01*
X3201436Y3564420D01*
X3235528Y3458055D02*
G01*
X3228708Y3458055D01*
X3215073Y3451237D01*
X3208253Y3444420D01*
X3201436Y3430783D01*
X3201436Y3403511D01*
X3208253Y3389873D01*
X3215073Y3383056D01*
X3228708Y3376239D01*
X3242345Y3376239D01*
X3255982Y3383056D01*
X3276437Y3396693D01*
X3344618Y3464874D01*
X3344618Y3369419D01*
X3201436Y3242602D02*
G01*
X3201436Y3310783D01*
X3262800Y3317600D01*
X3255982Y3310783D01*
X3249162Y3290328D01*
X3249162Y3269874D01*
X3255982Y3249419D01*
X3269617Y3235784D01*
X3290072Y3228964D01*
X3303709Y3228964D01*
X3324164Y3235784D01*
X3337801Y3249419D01*
X3344618Y3269874D01*
X3344618Y3290328D01*
X3337801Y3310783D01*
X3330981Y3317600D01*
X3317346Y3324420D01*
X2620772Y2322068D02*
G01*
X2616454Y2312923D01*
X2607309Y2304034D01*
X2598165Y2299462D01*
X2579877Y2299462D01*
X2570988Y2304034D01*
X2561843Y2312923D01*
X2557272Y2322068D01*
X2552700Y2335784D01*
X2552700Y2358389D01*
X2557272Y2372105D01*
X2561843Y2381250D01*
X2570988Y2390394D01*
X2579877Y2394965D01*
X2598165Y2394965D01*
X2607309Y2390394D01*
X2616454Y2381250D01*
X2620772Y2372105D01*
X2620772Y2358389D01*
X2598165Y2358389D02*
G01*
X2620772Y2358389D01*
X2650997Y2299462D02*
G01*
X2650997Y2394965D01*
X2650997Y2299462D02*
G01*
X2714497Y2394965D01*
X2714497Y2299462D02*
G01*
X2714497Y2394965D01*
X2744470Y2299462D02*
G01*
X2744470Y2394965D01*
X2744470Y2299462D02*
G01*
X2776220Y2299462D01*
X2789936Y2304034D01*
X2799079Y2312923D01*
X2803652Y2322068D01*
X2808224Y2335784D01*
X2808224Y2358389D01*
X2803652Y2372105D01*
X2799079Y2381250D01*
X2789936Y2390394D01*
X2776220Y2394965D01*
X2744470Y2394965D01*
X4520044Y8129846D02*
G01*
X4520044Y7935884D01*
X4584700Y8129846D02*
G01*
X4455391Y8129846D01*
X4394431Y8065193D02*
G01*
X4394431Y7935884D01*
X4394431Y8009775D02*
G01*
X4385195Y8037484D01*
X4366722Y8055955D01*
X4348248Y8065193D01*
X4320540Y8065193D01*
X4148744Y8065193D02*
G01*
X4148744Y7935884D01*
X4148744Y8037484D02*
G01*
X4167215Y8055955D01*
X4185688Y8065193D01*
X4213397Y8065193D01*
X4231871Y8055955D01*
X4250344Y8037484D01*
X4259579Y8009775D01*
X4259579Y7991302D01*
X4250344Y7963593D01*
X4231871Y7945120D01*
X4213397Y7935884D01*
X4185688Y7935884D01*
X4167215Y7945120D01*
X4148744Y7963593D01*
X4087784Y8129846D02*
G01*
X4078546Y8120611D01*
X4069311Y8129846D01*
X4078546Y8139084D01*
X4087784Y8129846D01*
X4078546Y8065193D02*
G01*
X4078546Y7935884D01*
X4008351Y8065193D02*
G01*
X4008351Y7935884D01*
X4008351Y8028246D02*
G01*
X3980642Y8055955D01*
X3962168Y8065193D01*
X3934459Y8065193D01*
X3915986Y8055955D01*
X3906751Y8028246D01*
X3906751Y7935884D01*
X3703551Y8129846D02*
G01*
X3703551Y7935884D01*
X3703551Y8129846D02*
G01*
X3620424Y8129846D01*
X3592715Y8120611D01*
X3583477Y8111375D01*
X3574242Y8092902D01*
X3574242Y8074428D01*
X3583477Y8055955D01*
X3592715Y8046720D01*
X3620424Y8037484D01*
X3703551Y8037484D02*
G01*
X3620424Y8037484D01*
X3592715Y8028246D01*
X3583477Y8019011D01*
X3574242Y8000537D01*
X3574242Y7972828D01*
X3583477Y7954355D01*
X3592715Y7945120D01*
X3620424Y7935884D01*
X3703551Y7935884D01*
X3402444Y8065193D02*
G01*
X3402444Y7935884D01*
X3402444Y8037484D02*
G01*
X3420917Y8055955D01*
X3439391Y8065193D01*
X3467100Y8065193D01*
X3485573Y8055955D01*
X3504044Y8037484D01*
X3513282Y8009775D01*
X3513282Y7991302D01*
X3504044Y7963593D01*
X3485573Y7945120D01*
X3467100Y7935884D01*
X3439391Y7935884D01*
X3420917Y7945120D01*
X3402444Y7963593D01*
X3341484Y8065193D02*
G01*
X3341484Y7935884D01*
X3341484Y8009775D02*
G01*
X3332248Y8037484D01*
X3313775Y8055955D01*
X3295304Y8065193D01*
X3267595Y8065193D01*
X3206635Y8065193D02*
G01*
X3206635Y7935884D01*
X3206635Y8009775D02*
G01*
X3197397Y8037484D01*
X3178924Y8055955D01*
X3160453Y8065193D01*
X3132744Y8065193D01*
X3071784Y8129846D02*
G01*
X3062546Y8120611D01*
X3053311Y8129846D01*
X3062546Y8139084D01*
X3071784Y8129846D01*
X3062546Y8065193D02*
G01*
X3062546Y7935884D01*
X2992351Y8009775D02*
G01*
X2881515Y8009775D01*
X2881515Y8028246D01*
X2890751Y8046720D01*
X2899986Y8055955D01*
X2918459Y8065193D01*
X2946168Y8065193D01*
X2964642Y8055955D01*
X2983115Y8037484D01*
X2992351Y8009775D01*
X2992351Y7991302D01*
X2983115Y7963593D01*
X2964642Y7945120D01*
X2946168Y7935884D01*
X2918459Y7935884D01*
X2899986Y7945120D01*
X2881515Y7963593D01*
X2820555Y8065193D02*
G01*
X2820555Y7935884D01*
X2820555Y8009775D02*
G01*
X2811317Y8037484D01*
X2792844Y8055955D01*
X2774373Y8065193D01*
X2746664Y8065193D01*
X2404917Y8083664D02*
G01*
X2414155Y8102137D01*
X2432626Y8120611D01*
X2451100Y8129846D01*
X2488044Y8129846D01*
X2506517Y8120611D01*
X2524991Y8102137D01*
X2534226Y8083664D01*
X2543464Y8055955D01*
X2543464Y8009775D01*
X2534226Y7982064D01*
X2524991Y7963593D01*
X2506517Y7945120D01*
X2488044Y7935884D01*
X2451100Y7935884D01*
X2432626Y7945120D01*
X2414155Y7963593D01*
X2404917Y7982064D01*
X2297775Y8065193D02*
G01*
X2316248Y8055955D01*
X2334722Y8037484D01*
X2343957Y8009775D01*
X2343957Y7991302D01*
X2334722Y7963593D01*
X2316248Y7945120D01*
X2297775Y7935884D01*
X2270066Y7935884D01*
X2251595Y7945120D01*
X2233122Y7963593D01*
X2223884Y7991302D01*
X2223884Y8009775D01*
X2233122Y8037484D01*
X2251595Y8055955D01*
X2270066Y8065193D01*
X2297775Y8065193D01*
X2162924Y8065193D02*
G01*
X2162924Y7935884D01*
X2162924Y8028246D02*
G01*
X2135215Y8055955D01*
X2116744Y8065193D01*
X2089035Y8065193D01*
X2070562Y8055955D01*
X2061324Y8028246D01*
X2061324Y7935884D01*
X1972655Y8129846D02*
G01*
X1972655Y7972828D01*
X1963420Y7945120D01*
X1944946Y7935884D01*
X1926475Y7935884D01*
X2000364Y8065193D02*
G01*
X1935711Y8065193D01*
X1865515Y8065193D02*
G01*
X1865515Y7935884D01*
X1865515Y8009775D02*
G01*
X1856277Y8037484D01*
X1837804Y8055955D01*
X1819333Y8065193D01*
X1791624Y8065193D01*
X1684482Y8065193D02*
G01*
X1702955Y8055955D01*
X1721426Y8037484D01*
X1730664Y8009775D01*
X1730664Y7991302D01*
X1721426Y7963593D01*
X1702955Y7945120D01*
X1684482Y7935884D01*
X1656773Y7935884D01*
X1638300Y7945120D01*
X1619826Y7963593D01*
X1610591Y7991302D01*
X1610591Y8009775D01*
X1619826Y8037484D01*
X1638300Y8055955D01*
X1656773Y8065193D01*
X1684482Y8065193D01*
X1549631Y8129846D02*
G01*
X1549631Y7935884D01*
X1488671Y8009775D02*
G01*
X1377835Y8009775D01*
X1377835Y8028246D01*
X1387071Y8046720D01*
X1396306Y8055955D01*
X1414779Y8065193D01*
X1442488Y8065193D01*
X1460962Y8055955D01*
X1479435Y8037484D01*
X1488671Y8009775D01*
X1488671Y7991302D01*
X1479435Y7963593D01*
X1460962Y7945120D01*
X1442488Y7935884D01*
X1414779Y7935884D01*
X1396306Y7945120D01*
X1377835Y7963593D01*
X1316875Y8065193D02*
G01*
X1316875Y7935884D01*
X1316875Y8009775D02*
G01*
X1307637Y8037484D01*
X1289164Y8055955D01*
X1270693Y8065193D01*
X1242984Y8065193D01*
X4584700Y7760393D02*
G01*
X4483100Y7631084D01*
X4483100Y7760393D02*
G01*
X4584700Y7631084D01*
X4292831Y7825046D02*
G01*
X4385195Y7631084D01*
X4422140Y7825046D02*
G01*
X4292831Y7825046D01*
X4034213Y7825046D02*
G01*
X4052684Y7815811D01*
X4071157Y7797337D01*
X4080395Y7778864D01*
X4089631Y7751155D01*
X4089631Y7704975D01*
X4080395Y7677264D01*
X4071157Y7658793D01*
X4052684Y7640320D01*
X4034213Y7631084D01*
X3997266Y7631084D01*
X3978795Y7640320D01*
X3960322Y7658793D01*
X3951084Y7677264D01*
X3941848Y7704975D01*
X3941848Y7751155D01*
X3951084Y7778864D01*
X3960322Y7797337D01*
X3978795Y7815811D01*
X3997266Y7825046D01*
X4034213Y7825046D01*
X3880888Y7825046D02*
G01*
X3880888Y7631084D01*
X3880888Y7825046D02*
G01*
X3797762Y7825046D01*
X3770053Y7815811D01*
X3760815Y7806575D01*
X3751579Y7788102D01*
X3751579Y7760393D01*
X3760815Y7741920D01*
X3770053Y7732684D01*
X3797762Y7723446D01*
X3880888Y7723446D01*
X3625964Y7825046D02*
G01*
X3625964Y7631084D01*
X3690620Y7825046D02*
G01*
X3561311Y7825046D01*
X3444933Y7825046D02*
G01*
X3463404Y7815811D01*
X3481877Y7797337D01*
X3491115Y7778864D01*
X3500351Y7751155D01*
X3500351Y7704975D01*
X3491115Y7677264D01*
X3481877Y7658793D01*
X3463404Y7640320D01*
X3444933Y7631084D01*
X3407986Y7631084D01*
X3389515Y7640320D01*
X3371042Y7658793D01*
X3361804Y7677264D01*
X3352568Y7704975D01*
X3352568Y7751155D01*
X3361804Y7778864D01*
X3371042Y7797337D01*
X3389515Y7815811D01*
X3407986Y7825046D01*
X3444933Y7825046D01*
D11*
X1919478Y7662163D02*
G01*
X2012950Y7662163D01*
X1966213Y7708900D02*
G01*
X1966213Y7615428D01*
X1903984Y7518654D02*
G01*
X1903984Y7570723D01*
X1950720Y7575804D01*
X1945640Y7570723D01*
X1940306Y7555229D01*
X1940306Y7539481D01*
X1945640Y7523987D01*
X1955800Y7513573D01*
X1971547Y7508239D01*
X1981961Y7508239D01*
X1997456Y7513573D01*
X2007870Y7523987D01*
X2012950Y7539481D01*
X2012950Y7555229D01*
X2007870Y7570723D01*
X2002790Y7575804D01*
X1992375Y7581137D01*
X1903984Y7473950D02*
G01*
X2012950Y7432547D01*
X1903984Y7390892D02*
G01*
X2012950Y7432547D01*
X2958591Y7618221D02*
G01*
X2948177Y7623555D01*
X2937763Y7633970D01*
X2932684Y7644129D01*
X2932684Y7664958D01*
X2937763Y7675371D01*
X2948177Y7685786D01*
X2958591Y7691120D01*
X2974340Y7696200D01*
X3000247Y7696200D01*
X3015741Y7691120D01*
X3026156Y7685786D01*
X3036570Y7675371D01*
X3041650Y7664958D01*
X3041650Y7644129D01*
X3036570Y7633970D01*
X3026156Y7623555D01*
X3015741Y7618221D01*
X3000247Y7618221D01*
X3000247Y7644129D02*
G01*
X3000247Y7618221D01*
X2932684Y7583931D02*
G01*
X3041650Y7583931D01*
X2932684Y7583931D02*
G01*
X3041650Y7511287D01*
X2932684Y7511287D02*
G01*
X3041650Y7511287D01*
X2932684Y7476997D02*
G01*
X3041650Y7476997D01*
X2932684Y7476997D02*
G01*
X2932684Y7440676D01*
X2937763Y7424928D01*
X2948177Y7414513D01*
X2958591Y7409434D01*
X2974340Y7404100D01*
X3000247Y7404100D01*
X3015741Y7409434D01*
X3026156Y7414513D01*
X3036570Y7424928D01*
X3041650Y7440676D01*
X3041650Y7476997D01*
X3176777Y7687563D02*
G01*
X3270250Y7687563D01*
X3223513Y7734300D02*
G01*
X3223513Y7640828D01*
X3182111Y7606537D02*
G01*
X3176777Y7596123D01*
X3161284Y7580629D01*
X3270250Y7580629D01*
X3187191Y7541005D02*
G01*
X3182111Y7541005D01*
X3171697Y7535926D01*
X3166363Y7530592D01*
X3161284Y7520178D01*
X3161284Y7499350D01*
X3166363Y7489189D01*
X3171697Y7483855D01*
X3182111Y7478776D01*
X3192525Y7478776D01*
X3202940Y7483855D01*
X3218434Y7494270D01*
X3270250Y7546339D01*
X3270250Y7473442D01*
X3161284Y7439152D02*
G01*
X3270250Y7397750D01*
X3161284Y7356094D02*
G01*
X3270250Y7397750D01*
X4241291Y7618221D02*
G01*
X4230877Y7623555D01*
X4220463Y7633970D01*
X4215384Y7644129D01*
X4215384Y7664958D01*
X4220463Y7675371D01*
X4230877Y7685786D01*
X4241291Y7691120D01*
X4257040Y7696200D01*
X4282947Y7696200D01*
X4298441Y7691120D01*
X4308856Y7685786D01*
X4319270Y7675371D01*
X4324350Y7664958D01*
X4324350Y7644129D01*
X4319270Y7633970D01*
X4308856Y7623555D01*
X4298441Y7618221D01*
X4282947Y7618221D01*
X4282947Y7644129D02*
G01*
X4282947Y7618221D01*
X4215384Y7583931D02*
G01*
X4324350Y7583931D01*
X4215384Y7583931D02*
G01*
X4324350Y7511287D01*
X4215384Y7511287D02*
G01*
X4324350Y7511287D01*
X4215384Y7476997D02*
G01*
X4324350Y7476997D01*
X4215384Y7476997D02*
G01*
X4215384Y7440676D01*
X4220463Y7424928D01*
X4230877Y7414513D01*
X4241291Y7409434D01*
X4257040Y7404100D01*
X4282947Y7404100D01*
X4298441Y7409434D01*
X4308856Y7414513D01*
X4319270Y7424928D01*
X4324350Y7440676D01*
X4324350Y7476997D01*
X3341877Y8787892D02*
G01*
X3336543Y8777478D01*
X3326129Y8767063D01*
X3315970Y8761984D01*
X3295141Y8761984D01*
X3284727Y8767063D01*
X3274313Y8777478D01*
X3268979Y8787892D01*
X3263900Y8803639D01*
X3263900Y8829547D01*
X3268979Y8845042D01*
X3274313Y8855455D01*
X3284727Y8865870D01*
X3295141Y8870950D01*
X3315970Y8870950D01*
X3326129Y8865870D01*
X3336543Y8855455D01*
X3341877Y8845042D01*
X3341877Y8829547D01*
X3315970Y8829547D02*
G01*
X3341877Y8829547D01*
X3376168Y8761984D02*
G01*
X3376168Y8870950D01*
X3376168Y8761984D02*
G01*
X3448811Y8870950D01*
X3448811Y8761984D02*
G01*
X3448811Y8870950D01*
X3483102Y8761984D02*
G01*
X3483102Y8870950D01*
X3483102Y8761984D02*
G01*
X3519424Y8761984D01*
X3535172Y8767063D01*
X3545586Y8777478D01*
X3550665Y8787892D01*
X3556000Y8803639D01*
X3556000Y8829547D01*
X3550665Y8845042D01*
X3545586Y8855455D01*
X3535172Y8865870D01*
X3519424Y8870950D01*
X3483102Y8870950D01*
X2135377Y8749792D02*
G01*
X2130043Y8739378D01*
X2119629Y8728963D01*
X2109470Y8723884D01*
X2088641Y8723884D01*
X2078227Y8728963D01*
X2067813Y8739378D01*
X2062479Y8749792D01*
X2057400Y8765539D01*
X2057400Y8791447D01*
X2062479Y8806942D01*
X2067813Y8817355D01*
X2078227Y8827770D01*
X2088641Y8832850D01*
X2109470Y8832850D01*
X2119629Y8827770D01*
X2130043Y8817355D01*
X2135377Y8806942D01*
X2135377Y8791447D01*
X2109470Y8791447D02*
G01*
X2135377Y8791447D01*
X2169668Y8723884D02*
G01*
X2169668Y8832850D01*
X2169668Y8723884D02*
G01*
X2242311Y8832850D01*
X2242311Y8723884D02*
G01*
X2242311Y8832850D01*
X2276602Y8723884D02*
G01*
X2276602Y8832850D01*
X2276602Y8723884D02*
G01*
X2312924Y8723884D01*
X2328672Y8728963D01*
X2339086Y8739378D01*
X2344165Y8749792D01*
X2349500Y8765539D01*
X2349500Y8791447D01*
X2344165Y8806942D01*
X2339086Y8817355D01*
X2328672Y8827770D01*
X2312924Y8832850D01*
X2276602Y8832850D01*
X2899641Y8837353D02*
G01*
X2899641Y8743835D01*
X2946400Y8790594D02*
G01*
X2852882Y8790594D01*
X2756245Y8852938D02*
G01*
X2808201Y8852938D01*
X2813395Y8806179D01*
X2808201Y8811374D01*
X2792615Y8816571D01*
X2777027Y8816571D01*
X2761442Y8811374D01*
X2751051Y8800985D01*
X2745854Y8785397D01*
X2745854Y8775006D01*
X2751051Y8759421D01*
X2761442Y8749029D01*
X2777027Y8743835D01*
X2792615Y8743835D01*
X2808201Y8749029D01*
X2813395Y8754224D01*
X2818592Y8764615D01*
X2711564Y8852938D02*
G01*
X2670002Y8743835D01*
X2628437Y8852938D02*
G01*
X2670002Y8743835D01*
X4563341Y9027853D02*
G01*
X4563341Y8934335D01*
X4610100Y8981094D02*
G01*
X4516582Y8981094D01*
X4482292Y9022656D02*
G01*
X4471901Y9027853D01*
X4456315Y9043438D01*
X4456315Y8934335D01*
X4416828Y9017462D02*
G01*
X4416828Y9022656D01*
X4411634Y9033047D01*
X4406437Y9038244D01*
X4396046Y9043438D01*
X4375264Y9043438D01*
X4364875Y9038244D01*
X4359678Y9033047D01*
X4354484Y9022656D01*
X4354484Y9012265D01*
X4359678Y9001874D01*
X4370070Y8986288D01*
X4422025Y8934335D01*
X4349287Y8934335D01*
X4314997Y9043438D02*
G01*
X4273435Y8934335D01*
X4231871Y9043438D02*
G01*
X4273435Y8934335D01*
X7454900Y7036841D02*
G01*
X7454900Y6927738D01*
X7454900Y7036841D02*
G01*
X7382164Y6927738D01*
X7382164Y7036841D02*
G01*
X7382164Y6927738D01*
X7316701Y7036841D02*
G01*
X7327092Y7031647D01*
X7337483Y7021255D01*
X7342677Y7010864D01*
X7347874Y6995276D01*
X7347874Y6969300D01*
X7342677Y6953714D01*
X7337483Y6943323D01*
X7327092Y6932932D01*
X7316701Y6927738D01*
X7295918Y6927738D01*
X7285527Y6932932D01*
X7275136Y6943323D01*
X7269942Y6953714D01*
X7264745Y6969300D01*
X7264745Y6995276D01*
X7269942Y7010864D01*
X7275136Y7021255D01*
X7285527Y7031647D01*
X7295918Y7036841D01*
X7316701Y7036841D01*
X7429500Y5677943D02*
G01*
X7429500Y5568840D01*
X7429500Y5677943D02*
G01*
X7356764Y5568840D01*
X7356764Y5677943D02*
G01*
X7356764Y5568840D01*
X7291301Y5677943D02*
G01*
X7301692Y5672752D01*
X7312083Y5662355D01*
X7317277Y5651967D01*
X7322474Y5636376D01*
X7322474Y5610400D01*
X7317277Y5594817D01*
X7312083Y5584423D01*
X7301692Y5574037D01*
X7291301Y5568840D01*
X7270518Y5568840D01*
X7260127Y5574037D01*
X7249736Y5584423D01*
X7244542Y5594817D01*
X7239345Y5610400D01*
X7239345Y5636376D01*
X7244542Y5651967D01*
X7249736Y5662355D01*
X7260127Y5672752D01*
X7270518Y5677943D01*
X7291301Y5677943D01*
X7429500Y2972851D02*
G01*
X7429500Y2863748D01*
X7429500Y2972851D02*
G01*
X7356764Y2863748D01*
X7356764Y2972851D02*
G01*
X7356764Y2863748D01*
X7291301Y2972851D02*
G01*
X7301692Y2967657D01*
X7312083Y2957266D01*
X7317277Y2946874D01*
X7322474Y2931287D01*
X7322474Y2905310D01*
X7317277Y2889724D01*
X7312083Y2879333D01*
X7301692Y2868942D01*
X7291301Y2863748D01*
X7270518Y2863748D01*
X7260127Y2868942D01*
X7249736Y2879333D01*
X7244542Y2889724D01*
X7239345Y2905310D01*
X7239345Y2931287D01*
X7244542Y2946874D01*
X7249736Y2957266D01*
X7260127Y2967657D01*
X7270518Y2972851D01*
X7291301Y2972851D01*
X7454900Y1613954D02*
G01*
X7454900Y1504850D01*
X7454900Y1613954D02*
G01*
X7382164Y1504850D01*
X7382164Y1613954D02*
G01*
X7382164Y1504850D01*
X7316701Y1613954D02*
G01*
X7327092Y1608759D01*
X7337483Y1598368D01*
X7342677Y1587977D01*
X7347874Y1572389D01*
X7347874Y1546412D01*
X7342677Y1530827D01*
X7337483Y1520436D01*
X7327092Y1510045D01*
X7316701Y1504850D01*
X7295918Y1504850D01*
X7285527Y1510045D01*
X7275136Y1520436D01*
X7269942Y1530827D01*
X7264745Y1546412D01*
X7264745Y1572389D01*
X7269942Y1587977D01*
X7275136Y1598368D01*
X7285527Y1608759D01*
X7295918Y1613954D01*
X7316701Y1613954D01*
X7132449Y165267D02*
G01*
X7132449Y56164D01*
X7132449Y165267D02*
G01*
X7059714Y56164D01*
X7059714Y165267D02*
G01*
X7059714Y56164D01*
X6994250Y165267D02*
G01*
X7004641Y160073D01*
X7015032Y149682D01*
X7020227Y139291D01*
X7025424Y123703D01*
X7025424Y97726D01*
X7020227Y82141D01*
X7015032Y71749D01*
X7004641Y61358D01*
X6994250Y56164D01*
X6973468Y56164D01*
X6963077Y61358D01*
X6952686Y71749D01*
X6947491Y82141D01*
X6942294Y97726D01*
X6942294Y123703D01*
X6947491Y139291D01*
X6952686Y149682D01*
X6963077Y160073D01*
X6973468Y165267D01*
X6994250Y165267D01*
X7505700Y8383038D02*
G01*
X7505700Y8273935D01*
X7505700Y8383038D02*
G01*
X7432964Y8273935D01*
X7432964Y8383038D02*
G01*
X7432964Y8273935D01*
X7367501Y8383038D02*
G01*
X7377892Y8377844D01*
X7388283Y8367453D01*
X7393477Y8357062D01*
X7398674Y8341474D01*
X7398674Y8315497D01*
X7393477Y8299912D01*
X7388283Y8289521D01*
X7377892Y8279129D01*
X7367501Y8273935D01*
X7346718Y8273935D01*
X7336327Y8279129D01*
X7325936Y8289521D01*
X7320742Y8299912D01*
X7315545Y8315497D01*
X7315545Y8341474D01*
X7320742Y8357062D01*
X7325936Y8367453D01*
X7336327Y8377844D01*
X7346718Y8383038D01*
X7367501Y8383038D01*
D12*
X7287259Y6667500D02*
G01*
X7520940Y6667500D01*
X7520940Y6870700D01*
X7287259Y6870700D01*
X7287259Y6667500D01*
X7249159Y5321300D02*
G01*
X7482840Y5321300D01*
X7482840Y5524500D01*
X7249159Y5524500D01*
X7249159Y5321300D01*
X7261859Y3949700D02*
G01*
X7495540Y3949700D01*
X7495540Y4152900D01*
X7261859Y4152900D01*
X7261859Y3949700D01*
X7236459Y2628900D02*
G01*
X7470140Y2628900D01*
X7470140Y2832100D01*
X7236459Y2832100D01*
X7236459Y2628900D01*
X7236459Y1257300D02*
G01*
X7470140Y1257300D01*
X7470140Y1460500D01*
X7236459Y1460500D01*
X7236459Y1257300D01*
X7287259Y38100D02*
G01*
X7520940Y38100D01*
X7520940Y241300D01*
X7287259Y241300D01*
X7287259Y38100D01*
X7287259Y8026400D02*
G01*
X7520940Y8026400D01*
X7520940Y8229600D01*
X7287259Y8229600D01*
X7287259Y8026400D01*
M02*
