G04 Layer: BottomLayer*
G04 EasyEDA v6.5.20, 2025-08-31 18:04:55*
G04 4654ec591aaf40839b9ddd4dd84afded,10*
G04 Gerber Generator version 0.2*
G04 Scale: 100 percent, Rotated: No, Reflected: No *
G04 Dimensions in millimeters *
G04 leading zeros omitted , absolute positions ,4 integer and 5 decimal *
%FSLAX45Y45*%
%MOMM*%

%AMMACRO1*4,1,4,-0.3175,-0.635,0.3175,-0.635,0.3175,0.635,-0.3175,0.635,-0.3175,-0.635,0*%
%ADD10C,2.0000*%
%ADD11C,0.3000*%
%ADD12C,1.5000*%
%ADD13C,1.2000*%
%ADD14C,0.5000*%
%ADD15C,1.0000*%
%ADD16MACRO1*%
%ADD17C,1.8000*%
%ADD18C,2.2000*%
%ADD19R,1.8000X1.8000*%
%ADD20C,2.5000*%
%ADD21C,1.5748*%
%ADD22R,1.5748X1.5748*%
%ADD23O,4.1999916X1.5999968*%
%ADD24O,1.5999968X4.1999916*%
%ADD25C,1.5240*%
%ADD26C,0.7000*%
%ADD27C,0.0156*%

%LPD*%
D10*
X6731000Y138811D02*
G01*
X7238111Y138811D01*
X7251700Y152400D01*
X6731000Y1485011D02*
G01*
X6844411Y1371600D01*
X7213600Y1371600D01*
X6731000Y2843911D02*
G01*
X6857111Y2717800D01*
X7226300Y2717800D01*
X6743700Y5549011D02*
G01*
X6869811Y5422900D01*
X7226300Y5422900D01*
D11*
X5067300Y4398010D02*
G01*
X5067300Y4470400D01*
X4864100Y4673600D01*
X4864100Y4728210D01*
X4940300Y4804410D01*
X5067300Y5756910D02*
G01*
X5067300Y5803900D01*
X4864100Y6007100D01*
X4864100Y6096000D01*
X4940300Y6163310D01*
X5067300Y3060700D02*
G01*
X5067300Y3120389D01*
X4864100Y3323589D01*
X4864100Y3390900D01*
X4940300Y3467100D01*
X5041900Y342900D02*
G01*
X5041900Y389889D01*
X4851400Y580389D01*
X4851400Y685800D01*
X4914900Y749300D01*
D10*
X2213305Y779500D02*
G01*
X1562100Y1193800D01*
X1562100Y9283700D01*
D11*
X5054600Y1692910D02*
G01*
X5054600Y1727200D01*
X4851400Y1930400D01*
X4851400Y2023110D01*
X4927600Y2099310D01*
X5219700Y1689100D02*
G01*
X5219700Y1705607D01*
X4927600Y1997707D01*
X5219700Y342900D02*
G01*
X4927600Y635000D01*
X4927600Y647700D01*
X5219700Y3048000D02*
G01*
X4940300Y3327400D01*
X4940300Y3365500D01*
X5232400Y4394200D02*
G01*
X4953000Y4673600D01*
X4953000Y4699000D01*
X5232400Y5753100D02*
G01*
X4953000Y6032500D01*
X4953000Y6057900D01*
D12*
X4711700Y5245100D02*
G01*
X4724400Y6565900D01*
X5003800Y6819900D01*
D11*
X5067300Y7124700D02*
G01*
X5067300Y7184389D01*
X4876800Y7374889D01*
X4876800Y7467600D01*
X4940300Y7531100D01*
X5245100Y7112000D02*
G01*
X4953000Y7404100D01*
X4953000Y7429500D01*
X5257800Y8470900D02*
G01*
X5181600Y8394700D01*
X5016500Y8394700D01*
X5016500Y8712200D01*
X4965700Y8763000D01*
X4965700Y8788400D01*
X4965700Y8889997D02*
G01*
X4991100Y8889997D01*
X5067300Y8813797D01*
X5067300Y8483597D01*
X5092700Y8483597D01*
D10*
X7366000Y3631996D02*
G01*
X7670800Y3327196D01*
X7670800Y2908300D01*
X7493000Y2730500D01*
X7378700Y6337096D02*
G01*
X7670800Y6044996D01*
X7670800Y5575300D01*
X7543800Y5448300D01*
X7493000Y5448300D01*
X7366000Y2273096D02*
G01*
X7683500Y1955596D01*
X7683500Y1638300D01*
X7480300Y1435100D01*
X7480300Y1397000D01*
X7366000Y926845D02*
G01*
X7670800Y622045D01*
X7670800Y279400D01*
X7543800Y152400D01*
X6743700Y4190111D02*
G01*
X7112888Y4190111D01*
X7239000Y4064000D01*
X7378700Y4978196D02*
G01*
X7683500Y4673396D01*
X7683500Y4114800D01*
X7556500Y4114800D01*
X7518400Y4076700D01*
X7391400Y7695996D02*
G01*
X7670800Y7416596D01*
X7670800Y6896100D01*
X7658100Y6896100D01*
X7556500Y6794500D01*
X6756400Y6907911D02*
G01*
X7138288Y6907911D01*
X7277100Y6769100D01*
X6769100Y8275701D02*
G01*
X7099300Y8280400D01*
X7277100Y8128000D01*
X7404100Y9063736D02*
G01*
X7670800Y8797036D01*
X7670800Y8229600D01*
X7569200Y8128000D01*
X1547642Y4373689D02*
G01*
X1036513Y4373689D01*
X1016002Y4394200D01*
X1543585Y2995688D02*
G01*
X1034448Y2995688D01*
X1016002Y3014134D01*
D12*
X4724400Y6565900D02*
G01*
X4724400Y7959089D01*
X5003800Y8238489D01*
D10*
X5499100Y8775572D02*
G01*
X7192330Y8775572D01*
X7404100Y8563803D01*
X3691636Y723900D02*
G01*
X4106418Y1138681D01*
X5710936Y1138681D01*
D12*
X4927600Y2806700D02*
G01*
X4711700Y2590800D01*
X4724400Y1562100D01*
X4838700Y1447800D01*
X4978400Y1447800D01*
X2108200Y2374900D02*
G01*
X2463800Y2374900D01*
D13*
X2108200Y2120900D02*
G01*
X2387600Y2120900D01*
D14*
X2108200Y5676900D02*
G01*
X2463800Y5676900D01*
X2463800Y4914900D02*
G01*
X2108200Y4914900D01*
X2108200Y5168900D02*
G01*
X2463800Y5168900D01*
X2463800Y5422900D02*
G01*
X2108200Y5422900D01*
X2108200Y2628900D02*
G01*
X2463800Y2628900D01*
X2108200Y2882900D02*
G01*
X2463800Y2882900D01*
X2108200Y3136900D02*
G01*
X2463800Y3136900D01*
X2108200Y3390900D02*
G01*
X2463800Y3390900D01*
X2108200Y3644900D02*
G01*
X2463800Y3644900D01*
X2463800Y3898900D02*
G01*
X2108200Y3898900D01*
X2108200Y4152900D02*
G01*
X2463800Y4152900D01*
X2463800Y4406900D02*
G01*
X2108200Y4406900D01*
X2108200Y4660900D02*
G01*
X2463800Y4660900D01*
D12*
X4711700Y2836560D02*
G01*
X4389739Y2836560D01*
X4343400Y2882900D01*
D15*
X3987800Y2882900D02*
G01*
X4343400Y2882900D01*
D14*
X3987800Y2120900D02*
G01*
X4343400Y2120900D01*
X3987800Y2374900D02*
G01*
X4343400Y2374900D01*
X3987800Y2628900D02*
G01*
X4343400Y2628900D01*
X3987800Y3136900D02*
G01*
X4343400Y3136900D01*
X3987800Y3390900D02*
G01*
X4343400Y3390900D01*
X3987800Y3644900D02*
G01*
X4343400Y3644900D01*
X3987800Y3898900D02*
G01*
X4343400Y3898900D01*
X3987800Y4406900D02*
G01*
X4343400Y4406900D01*
X3987800Y4660900D02*
G01*
X4343400Y4660900D01*
X3987800Y4152900D02*
G01*
X4343400Y4152900D01*
X4343400Y4914900D02*
G01*
X3987800Y4914900D01*
X3987800Y5168900D02*
G01*
X4343400Y5168900D01*
X3987800Y5422900D02*
G01*
X4343400Y5422900D01*
X3987800Y5676900D02*
G01*
X4343400Y5676900D01*
D12*
X4711700Y3886200D02*
G01*
X4711700Y5245100D01*
X4978400Y5511800D01*
X4711700Y2514866D02*
G01*
X4711700Y3886200D01*
X4978400Y4152900D01*
D10*
X5461000Y1984882D02*
G01*
X7154214Y1984882D01*
X7366000Y1773097D01*
X5461000Y3343782D02*
G01*
X7154214Y3343782D01*
X7366000Y3131997D01*
X5473700Y6048882D02*
G01*
X7166914Y6048882D01*
X7378700Y5837097D01*
X7391400Y7196073D02*
G01*
X7208774Y7378700D01*
X5515609Y7378700D01*
X5486400Y7407910D01*
D15*
X3111500Y6223000D02*
G01*
X3111500Y6096000D01*
X3238500Y5969000D01*
X4127500Y5969000D02*
G01*
X4381500Y6223000D01*
X3111500Y7239000D02*
G01*
X3111500Y6223000D01*
D12*
X4381500Y6223000D02*
G01*
X4381500Y7239000D01*
X4724400Y6565900D02*
G01*
X4457700Y6553200D01*
X4381500Y6477000D01*
D15*
X3225800Y5969000D02*
G01*
X4114800Y5969000D01*
D10*
X1555755Y7128677D02*
G01*
X1041654Y7128677D01*
X1016002Y7154329D01*
X1551739Y5764590D02*
G01*
X1025677Y5764590D01*
X1016002Y5774265D01*
X1539519Y1614352D02*
G01*
X1035715Y1614352D01*
X1016002Y1634065D01*
D12*
X2108200Y2374900D02*
G01*
X1541724Y2374900D01*
D14*
X266700Y2425700D02*
G01*
X266700Y2095500D01*
X127000Y1955800D01*
X304800Y3848100D02*
G01*
X304800Y3454400D01*
X190500Y3340100D01*
X152400Y3340100D01*
X304800Y5219700D02*
G01*
X304800Y4916048D01*
X163718Y4774963D01*
X127000Y4775200D01*
X330200Y6616700D02*
G01*
X330200Y6273800D01*
X127000Y6070600D01*
X330200Y9283700D02*
G01*
X330200Y8991600D01*
X127000Y8788400D01*
X127000Y8788400D01*
X330200Y7950200D02*
G01*
X317500Y7950200D01*
X317500Y7658862D01*
X176784Y7518145D01*
X127000Y7518400D01*
X254000Y1155700D02*
G01*
X266700Y1155700D01*
X266700Y863600D01*
X127000Y723900D01*
D12*
X685800Y2019300D02*
G01*
X685800Y3378200D01*
X829818Y3522218D01*
X1016000Y3522218D01*
X685800Y3378200D02*
G01*
X685800Y4775200D01*
X812800Y4902200D01*
X1016002Y4902200D01*
X685800Y4775200D02*
G01*
X685800Y6146800D01*
X821265Y6282265D01*
X1016002Y6282265D01*
X685800Y6146800D02*
G01*
X685800Y7480300D01*
X876300Y7670800D01*
X884770Y7662329D01*
X1016002Y7662329D01*
X685800Y7480300D02*
G01*
X685800Y8851900D01*
X876300Y9042400D01*
X1016000Y9042400D01*
D10*
X1560068Y8559545D02*
G01*
X1560068Y8534400D01*
X1016000Y8534400D01*
D12*
X1028700Y876300D02*
G01*
X685800Y1219200D01*
X685800Y2019300D01*
X808565Y2142065D01*
X1016002Y2142065D01*
D10*
X3191763Y723900D02*
G01*
X3200400Y1308100D01*
X3406140Y1558036D01*
X4724400Y1558036D01*
X4724400Y1562100D01*
D12*
X1028700Y876300D02*
G01*
X1409700Y876300D01*
X1460500Y825500D01*
X1460500Y749300D01*
X1943100Y266700D01*
X2628900Y266700D01*
X2933700Y520700D01*
X2944113Y1573529D01*
X2463800Y2120900D01*
D10*
X5473700Y4689982D02*
G01*
X7166914Y4689982D01*
X7378700Y4478197D01*
D12*
X2264600Y9347200D02*
G01*
X1625600Y9347200D01*
X1562100Y9283700D01*
X2764599Y9347200D02*
G01*
X2764599Y8085899D01*
X2095500Y7416800D01*
X2095500Y7239000D01*
X3785615Y8255000D02*
G01*
X4000500Y8255000D01*
X4381500Y7874000D01*
X4381500Y7239000D01*
X3785603Y8255000D02*
G01*
X3445700Y8594902D01*
X3445700Y9334500D01*
D16*
G01*
X7363459Y6769100D03*
G01*
X7444740Y6769100D03*
G01*
X7325359Y5422900D03*
G01*
X7406640Y5422900D03*
G01*
X7338059Y4051300D03*
G01*
X7419340Y4051300D03*
G01*
X7312659Y2730500D03*
G01*
X7393940Y2730500D03*
G01*
X7312659Y1358900D03*
G01*
X7393940Y1358900D03*
G01*
X7363459Y139700D03*
G01*
X7444740Y139700D03*
G01*
X7363459Y8128000D03*
G01*
X7444740Y8128000D03*
D17*
G01*
X3785615Y8255000D03*
G01*
X4545609Y8255000D03*
D18*
G01*
X2764586Y9334500D03*
G01*
X2264613Y9334500D03*
G01*
X3945686Y9334500D03*
G01*
X3445713Y9334500D03*
D17*
G01*
X127000Y7518400D03*
G01*
X127000Y7772400D03*
G01*
X127000Y6070600D03*
G01*
X127000Y6324600D03*
G01*
X127000Y4775200D03*
G01*
X127000Y5029200D03*
G01*
X127000Y3340100D03*
G01*
X127000Y3594100D03*
G01*
X127000Y1955800D03*
G01*
X127000Y2209800D03*
G01*
X127000Y723900D03*
G01*
X127000Y977900D03*
G01*
X127000Y8788400D03*
G01*
X127000Y9042400D03*
D19*
G01*
X1016000Y7662341D03*
D17*
G01*
X1016000Y7408316D03*
G01*
X1016000Y7154316D03*
D19*
G01*
X1016000Y6282258D03*
D17*
G01*
X1016000Y6028258D03*
G01*
X1016000Y5774258D03*
D19*
G01*
X1016000Y4902200D03*
D17*
G01*
X1016000Y4648200D03*
G01*
X1016000Y4394200D03*
D19*
G01*
X1016000Y3522141D03*
D17*
G01*
X1016000Y3268141D03*
G01*
X1016000Y3014141D03*
D19*
G01*
X1016000Y2142058D03*
D17*
G01*
X1016000Y1888058D03*
G01*
X1016000Y1634058D03*
D19*
G01*
X1028700Y876300D03*
D17*
G01*
X1028700Y622300D03*
G01*
X1028700Y368300D03*
D19*
G01*
X1016000Y9042400D03*
D17*
G01*
X1016000Y8788400D03*
G01*
X1016000Y8534400D03*
D20*
G01*
X6769100Y8275701D03*
G01*
X6769100Y9275699D03*
G01*
X5749036Y9275699D03*
G01*
X5749036Y8275701D03*
G01*
X5499100Y8775572D03*
D18*
G01*
X7404100Y8563787D03*
G01*
X7404100Y9063786D03*
G01*
X3691686Y723900D03*
G01*
X3191713Y723900D03*
D21*
G01*
X4381500Y6985000D03*
G01*
X4127500Y6985000D03*
G01*
X3873500Y6985000D03*
G01*
X3619500Y6985000D03*
D22*
G01*
X3365500Y6985000D03*
D21*
G01*
X4381500Y6477000D03*
G01*
X4127500Y6477000D03*
G01*
X3873500Y6477000D03*
G01*
X3619500Y6477000D03*
D22*
G01*
X3365500Y6477000D03*
D21*
G01*
X4381500Y7239000D03*
G01*
X4127500Y7239000D03*
G01*
X3873500Y7239000D03*
G01*
X3619500Y7239000D03*
D22*
G01*
X3365500Y7239000D03*
D21*
G01*
X4381500Y6731000D03*
G01*
X4127500Y6731000D03*
G01*
X3873500Y6731000D03*
G01*
X3619500Y6731000D03*
D22*
G01*
X3365500Y6731000D03*
D21*
G01*
X4381500Y6223000D03*
G01*
X4127500Y6223000D03*
G01*
X3873500Y6223000D03*
G01*
X3619500Y6223000D03*
D22*
G01*
X3365500Y6223000D03*
D21*
G01*
X3111500Y6985000D03*
G01*
X2857500Y6985000D03*
G01*
X2603500Y6985000D03*
G01*
X2349500Y6985000D03*
D22*
G01*
X2095500Y6985000D03*
D21*
G01*
X3111500Y7239000D03*
G01*
X2857500Y7239000D03*
G01*
X2603500Y7239000D03*
G01*
X2349500Y7239000D03*
D22*
G01*
X2095500Y7239000D03*
D21*
G01*
X3111500Y6731000D03*
G01*
X2857500Y6731000D03*
G01*
X2603500Y6731000D03*
G01*
X2349500Y6731000D03*
D22*
G01*
X2095500Y6731000D03*
D21*
G01*
X3111500Y6223000D03*
G01*
X2857500Y6223000D03*
G01*
X2603500Y6223000D03*
G01*
X2349500Y6223000D03*
D22*
G01*
X2095500Y6223000D03*
D21*
G01*
X3111500Y6477000D03*
G01*
X2857500Y6477000D03*
G01*
X2603500Y6477000D03*
G01*
X2349500Y6477000D03*
D22*
G01*
X2095500Y6477000D03*
D20*
G01*
X6756400Y6907911D03*
G01*
X6756400Y7907909D03*
G01*
X5736336Y7907909D03*
G01*
X5736336Y6907911D03*
G01*
X5486400Y7407783D03*
D18*
G01*
X7391400Y7195997D03*
G01*
X7391400Y7695996D03*
D20*
G01*
X6743700Y5549011D03*
G01*
X6743700Y6549009D03*
G01*
X5723636Y6549009D03*
G01*
X5723636Y5549011D03*
G01*
X5473700Y6048882D03*
D18*
G01*
X7378700Y5837097D03*
G01*
X7378700Y6337096D03*
D20*
G01*
X6743700Y4190111D03*
G01*
X6743700Y5190109D03*
G01*
X5723636Y5190109D03*
G01*
X5723636Y4190111D03*
G01*
X5473700Y4689982D03*
D18*
G01*
X7378700Y4478197D03*
G01*
X7378700Y4978196D03*
D20*
G01*
X6731000Y2843911D03*
G01*
X6731000Y3843909D03*
G01*
X5710936Y3843909D03*
G01*
X5710936Y2843911D03*
G01*
X5461000Y3343782D03*
D18*
G01*
X7366000Y3131997D03*
G01*
X7366000Y3631996D03*
D20*
G01*
X6731000Y1485011D03*
G01*
X6731000Y2485009D03*
G01*
X5710936Y2485009D03*
G01*
X5710936Y1485011D03*
G01*
X5461000Y1984882D03*
D18*
G01*
X7366000Y1773097D03*
G01*
X7366000Y2273096D03*
D20*
G01*
X6731000Y138811D03*
G01*
X6731000Y1138809D03*
G01*
X5710936Y1138809D03*
G01*
X5710936Y138811D03*
G01*
X5461000Y638682D03*
D18*
G01*
X7366000Y426897D03*
G01*
X7366000Y926896D03*
D23*
G01*
X2213305Y1379499D03*
G01*
X2213305Y779500D03*
D24*
G01*
X2714294Y1074496D03*
D21*
G01*
X4343400Y5676900D03*
G01*
X4343400Y5422900D03*
G01*
X4343400Y5168900D03*
G01*
X4343400Y4914900D03*
G01*
X4343400Y4660900D03*
G01*
X4343400Y4406900D03*
G01*
X4343400Y4152900D03*
G01*
X4343400Y3898900D03*
G01*
X4343400Y3644900D03*
G01*
X4343400Y3390900D03*
G01*
X4343400Y3136900D03*
G01*
X4343400Y2882900D03*
G01*
X4343400Y2628900D03*
G01*
X4343400Y2374900D03*
D22*
G01*
X4343400Y2120900D03*
D21*
G01*
X2108200Y5676900D03*
G01*
X2108200Y5422900D03*
G01*
X2108200Y5168900D03*
G01*
X2108200Y4914900D03*
G01*
X2108200Y4660900D03*
G01*
X2108200Y4406900D03*
G01*
X2108200Y4152900D03*
G01*
X2108200Y3898900D03*
G01*
X2108200Y3644900D03*
G01*
X2108200Y3390900D03*
G01*
X2108200Y3136900D03*
G01*
X2108200Y2882900D03*
G01*
X2108200Y2628900D03*
G01*
X2108200Y2374900D03*
D22*
G01*
X2108200Y2120900D03*
D25*
G01*
X3987800Y2120900D03*
G01*
X3987800Y2374900D03*
G01*
X3987800Y2628900D03*
G01*
X3987800Y2882900D03*
G01*
X3987800Y3136900D03*
G01*
X3987800Y3390900D03*
G01*
X3987800Y3644900D03*
G01*
X3987800Y3898900D03*
G01*
X3987800Y4152900D03*
G01*
X3987800Y4406900D03*
G01*
X3987800Y4660900D03*
G01*
X3987800Y4914900D03*
G01*
X3987800Y5168900D03*
G01*
X3987800Y5422900D03*
G01*
X3987800Y5676900D03*
G01*
X2463800Y5676900D03*
G01*
X2463800Y5422900D03*
G01*
X2463800Y5168900D03*
G01*
X2463800Y4914900D03*
G01*
X2463800Y4660900D03*
G01*
X2463800Y4406900D03*
G01*
X2463800Y4152900D03*
G01*
X2463800Y3898900D03*
G01*
X2463800Y3644900D03*
G01*
X2463800Y3390900D03*
G01*
X2463800Y3136900D03*
G01*
X2463800Y2882900D03*
G01*
X2463800Y2628900D03*
G01*
X2463800Y2374900D03*
G01*
X2463800Y2120900D03*
D26*
G01*
X4953000Y7429500D03*
G01*
X5245100Y7112000D03*
G01*
X5080000Y7115810D03*
G01*
X4953000Y7522210D03*
G01*
X4991100Y6870700D03*
G01*
X4953000Y6057900D03*
G01*
X5232400Y5753100D03*
G01*
X5067300Y5756910D03*
G01*
X4940300Y6163310D03*
G01*
X4978400Y5511800D03*
G01*
X4953000Y4699000D03*
G01*
X5232400Y4394200D03*
G01*
X5067300Y4398010D03*
G01*
X4940300Y4804410D03*
G01*
X4978400Y4152900D03*
G01*
X4940300Y3365500D03*
G01*
X5219700Y3048000D03*
G01*
X5054600Y3051810D03*
G01*
X4927600Y3458210D03*
G01*
X4965700Y2806700D03*
G01*
X4927600Y1997710D03*
G01*
X5219700Y1689100D03*
G01*
X5054600Y1692910D03*
G01*
X4927600Y2099310D03*
G01*
X4978400Y1447800D03*
G01*
X4927600Y647700D03*
G01*
X5219700Y342900D03*
G01*
X5054600Y346710D03*
G01*
X4927600Y753110D03*
G01*
X4965700Y101600D03*
G01*
X4965700Y8788400D03*
G01*
X5257800Y8470900D03*
G01*
X5092700Y8483600D03*
G01*
X4965700Y8890000D03*
G01*
X5003800Y8238489D03*
G01*
X1562100Y1155700D03*
G01*
X1549400Y2425700D03*
G01*
X1549400Y3848100D03*
G01*
X1562100Y6604000D03*
G01*
X1549400Y7950200D03*
G01*
X1562100Y9283700D03*
G01*
X1549400Y5207000D03*
G01*
X254000Y1155700D03*
G01*
X266700Y2425700D03*
G01*
X304800Y3848100D03*
G01*
X304800Y5219700D03*
G01*
X330200Y6616700D03*
G01*
X330200Y7950200D03*
G01*
X330200Y9283700D03*
M02*
