G04 Layer: BottomSolderMaskLayer*
G04 EasyEDA v6.5.20, 2025-08-31 18:04:55*
G04 4654ec591aaf40839b9ddd4dd84afded,10*
G04 Gerber Generator version 0.2*
G04 Scale: 100 percent, Rotated: No, Reflected: No *
G04 Dimensions in millimeters *
G04 leading zeros omitted , absolute positions ,4 integer and 5 decimal *
%FSLAX45Y45*%
%MOMM*%

%AMMACRO1*1,1,$1,$2,$3*1,1,$1,$4,$5*1,1,$1,0-$2,0-$3*1,1,$1,0-$4,0-$5*20,1,$1,$2,$3,$4,$5,0*20,1,$1,$4,$5,0-$2,0-$3,0*20,1,$1,0-$2,0-$3,0-$4,0-$5,0*20,1,$1,0-$4,0-$5,$2,$3,0*4,1,4,$2,$3,$4,$5,0-$2,0-$3,0-$4,0-$5,$2,$3,0*%
%AMMACRO2*4,1,4,-0.3683,-0.6858,-0.3683,0.6858,0.3683,0.6858,0.3683,-0.6858,-0.3683,-0.6858,0*%
%ADD10C,1.9016*%
%ADD11C,2.3016*%
%ADD12MACRO1,0.1016X-0.9X-0.9X-0.9X0.9*%
%ADD13C,2.6016*%
%ADD14C,2.3000*%
%ADD15C,1.6764*%
%ADD16MACRO1,0.1016X-0.7874X0.7874X0.7874X0.7874*%
%ADD17O,4.3015916X1.7015968000000001*%
%ADD18O,1.7015968000000001X4.3015916*%
%ADD19R,1.6764X1.6764*%
%ADD20C,1.6256*%
%ADD21MACRO2*%
%ADD22C,0.0154*%

%LPD*%
D10*
G01*
X3785615Y8255000D03*
G01*
X4545609Y8255000D03*
D11*
G01*
X2764586Y9334500D03*
G01*
X2264613Y9334500D03*
G01*
X3945686Y9334500D03*
G01*
X3445713Y9334500D03*
D10*
G01*
X127000Y7518400D03*
G01*
X127000Y7772400D03*
G01*
X127000Y6070600D03*
G01*
X127000Y6324600D03*
G01*
X127000Y4775200D03*
G01*
X127000Y5029200D03*
G01*
X127000Y3340100D03*
G01*
X127000Y3594100D03*
G01*
X127000Y1955800D03*
G01*
X127000Y2209800D03*
G01*
X127000Y723900D03*
G01*
X127000Y977900D03*
G01*
X127000Y8788400D03*
G01*
X127000Y9042400D03*
D12*
G01*
X1016002Y7662329D03*
D10*
G01*
X1016000Y7408316D03*
G01*
X1016000Y7154316D03*
D12*
G01*
X1016002Y6282265D03*
D10*
G01*
X1016000Y6028258D03*
G01*
X1016000Y5774258D03*
D12*
G01*
X1016002Y4902200D03*
D10*
G01*
X1016000Y4648200D03*
G01*
X1016000Y4394200D03*
D12*
G01*
X1016002Y3522134D03*
D10*
G01*
X1016000Y3268141D03*
G01*
X1016000Y3014141D03*
D12*
G01*
X1016002Y2142065D03*
D10*
G01*
X1016000Y1888058D03*
G01*
X1016000Y1634058D03*
D12*
G01*
X1028700Y876300D03*
D10*
G01*
X1028700Y622300D03*
G01*
X1028700Y368300D03*
D12*
G01*
X1016000Y9042400D03*
D10*
G01*
X1016000Y8788400D03*
G01*
X1016000Y8534400D03*
D13*
G01*
X6769100Y8275701D03*
G01*
X6769100Y9275699D03*
G01*
X5749036Y9275699D03*
G01*
X5749036Y8275701D03*
G01*
X5499100Y8775572D03*
D11*
G01*
X7404100Y8563787D03*
G01*
X7404100Y9063786D03*
D14*
G01*
X3691686Y723900D03*
G01*
X3191713Y723900D03*
D15*
G01*
X4381500Y6985000D03*
G01*
X4127500Y6985000D03*
G01*
X3873500Y6985000D03*
G01*
X3619500Y6985000D03*
D16*
G01*
X3365500Y6985000D03*
D15*
G01*
X4381500Y6477000D03*
G01*
X4127500Y6477000D03*
G01*
X3873500Y6477000D03*
G01*
X3619500Y6477000D03*
D16*
G01*
X3365500Y6477000D03*
D15*
G01*
X4381500Y7239000D03*
G01*
X4127500Y7239000D03*
G01*
X3873500Y7239000D03*
G01*
X3619500Y7239000D03*
D16*
G01*
X3365500Y7239000D03*
D15*
G01*
X4381500Y6731000D03*
G01*
X4127500Y6731000D03*
G01*
X3873500Y6731000D03*
G01*
X3619500Y6731000D03*
D16*
G01*
X3365500Y6731000D03*
D15*
G01*
X4381500Y6223000D03*
G01*
X4127500Y6223000D03*
G01*
X3873500Y6223000D03*
G01*
X3619500Y6223000D03*
D16*
G01*
X3365500Y6223000D03*
D15*
G01*
X3111500Y6985000D03*
G01*
X2857500Y6985000D03*
G01*
X2603500Y6985000D03*
G01*
X2349500Y6985000D03*
D16*
G01*
X2095500Y6985000D03*
D15*
G01*
X3111500Y7239000D03*
G01*
X2857500Y7239000D03*
G01*
X2603500Y7239000D03*
G01*
X2349500Y7239000D03*
D16*
G01*
X2095500Y7239000D03*
D15*
G01*
X3111500Y6731000D03*
G01*
X2857500Y6731000D03*
G01*
X2603500Y6731000D03*
G01*
X2349500Y6731000D03*
D16*
G01*
X2095500Y6731000D03*
D15*
G01*
X3111500Y6223000D03*
G01*
X2857500Y6223000D03*
G01*
X2603500Y6223000D03*
G01*
X2349500Y6223000D03*
D16*
G01*
X2095500Y6223000D03*
D15*
G01*
X3111500Y6477000D03*
G01*
X2857500Y6477000D03*
G01*
X2603500Y6477000D03*
G01*
X2349500Y6477000D03*
D16*
G01*
X2095500Y6477000D03*
D13*
G01*
X6756400Y6907911D03*
G01*
X6756400Y7907909D03*
G01*
X5736336Y7907909D03*
G01*
X5736336Y6907911D03*
G01*
X5486400Y7407783D03*
D11*
G01*
X7391400Y7195997D03*
G01*
X7391400Y7695996D03*
D13*
G01*
X6743700Y5549011D03*
G01*
X6743700Y6549009D03*
G01*
X5723636Y6549009D03*
G01*
X5723636Y5549011D03*
G01*
X5473700Y6048882D03*
D11*
G01*
X7378700Y5837097D03*
G01*
X7378700Y6337096D03*
D13*
G01*
X6743700Y4190111D03*
G01*
X6743700Y5190109D03*
G01*
X5723636Y5190109D03*
G01*
X5723636Y4190111D03*
G01*
X5473700Y4689982D03*
D11*
G01*
X7378700Y4478197D03*
G01*
X7378700Y4978196D03*
D13*
G01*
X6731000Y2843911D03*
G01*
X6731000Y3843909D03*
G01*
X5710936Y3843909D03*
G01*
X5710936Y2843911D03*
G01*
X5461000Y3343782D03*
D11*
G01*
X7366000Y3131997D03*
G01*
X7366000Y3631996D03*
D13*
G01*
X6731000Y1485011D03*
G01*
X6731000Y2485009D03*
G01*
X5710936Y2485009D03*
G01*
X5710936Y1485011D03*
G01*
X5461000Y1984882D03*
D11*
G01*
X7366000Y1773097D03*
G01*
X7366000Y2273096D03*
D13*
G01*
X6731000Y138811D03*
G01*
X6731000Y1138809D03*
G01*
X5710936Y1138809D03*
G01*
X5710936Y138811D03*
G01*
X5461000Y638682D03*
D11*
G01*
X7366000Y426897D03*
G01*
X7366000Y926896D03*
D17*
G01*
X2213305Y1379499D03*
G01*
X2213305Y779500D03*
D18*
G01*
X2714294Y1074496D03*
D15*
G01*
X4343400Y5676900D03*
G01*
X4343400Y5422900D03*
G01*
X4343400Y5168900D03*
G01*
X4343400Y4914900D03*
G01*
X4343400Y4660900D03*
G01*
X4343400Y4406900D03*
G01*
X4343400Y4152900D03*
G01*
X4343400Y3898900D03*
G01*
X4343400Y3644900D03*
G01*
X4343400Y3390900D03*
G01*
X4343400Y3136900D03*
G01*
X4343400Y2882900D03*
G01*
X4343400Y2628900D03*
G01*
X4343400Y2374900D03*
D19*
G01*
X4343400Y2120900D03*
D15*
G01*
X2108200Y5676900D03*
G01*
X2108200Y5422900D03*
G01*
X2108200Y5168900D03*
G01*
X2108200Y4914900D03*
G01*
X2108200Y4660900D03*
G01*
X2108200Y4406900D03*
G01*
X2108200Y4152900D03*
G01*
X2108200Y3898900D03*
G01*
X2108200Y3644900D03*
G01*
X2108200Y3390900D03*
G01*
X2108200Y3136900D03*
G01*
X2108200Y2882900D03*
G01*
X2108200Y2628900D03*
G01*
X2108200Y2374900D03*
D19*
G01*
X2108200Y2120900D03*
D20*
G01*
X3987800Y2120900D03*
G01*
X3987800Y2374900D03*
G01*
X3987800Y2628900D03*
G01*
X3987800Y2882900D03*
G01*
X3987800Y3136900D03*
G01*
X3987800Y3390900D03*
G01*
X3987800Y3644900D03*
G01*
X3987800Y3898900D03*
G01*
X3987800Y4152900D03*
G01*
X3987800Y4406900D03*
G01*
X3987800Y4660900D03*
G01*
X3987800Y4914900D03*
G01*
X3987800Y5168900D03*
G01*
X3987800Y5422900D03*
G01*
X3987800Y5676900D03*
G01*
X2463800Y5676900D03*
G01*
X2463800Y5422900D03*
G01*
X2463800Y5168900D03*
G01*
X2463800Y4914900D03*
G01*
X2463800Y4660900D03*
G01*
X2463800Y4406900D03*
G01*
X2463800Y4152900D03*
G01*
X2463800Y3898900D03*
G01*
X2463800Y3644900D03*
G01*
X2463800Y3390900D03*
G01*
X2463800Y3136900D03*
G01*
X2463800Y2882900D03*
G01*
X2463800Y2628900D03*
G01*
X2463800Y2374900D03*
G01*
X2463800Y2120900D03*
D21*
G01*
X7363460Y6769100D03*
G01*
X7444739Y6769100D03*
G01*
X7325360Y5422900D03*
G01*
X7406639Y5422900D03*
G01*
X7338060Y4051300D03*
G01*
X7419339Y4051300D03*
G01*
X7312660Y2730500D03*
G01*
X7393939Y2730500D03*
G01*
X7312660Y1358900D03*
G01*
X7393939Y1358900D03*
G01*
X7363460Y139700D03*
G01*
X7444739Y139700D03*
G01*
X7363460Y8128000D03*
G01*
X7444739Y8128000D03*
M02*
