M48
METRIC,LZ,000.000
;FILE_FORMAT=3:3
;TYPE=NON_PLATED
;Layer: NPTH_Through
;EasyEDA v6.5.22, 2025-01-04 22:24:20
;4654ec591aaf40839b9ddd4dd84afded,10
;Gerber Generator version 0.2
;Holesize 1 = 0.551 mm
T01C0.551
;Holesize 2 = 3.200 mm
T02C3.200
%
G05
G90
T01
X022025Y-001508
X022875Y-001508
X023725Y-001508
X024575Y-001508
X025425Y-001508
X026275Y-001508
X027125Y-001508
X027975Y-001508
X022025Y-000092
X022875Y-000092
X023725Y-000092
X024575Y-000092
X025425Y-000092
X026275Y-000092
X027125Y-000092
X027975Y-000092
X073625Y-001508
X074475Y-001508
X075325Y-001508
X076175Y-001508
X077025Y-001508
X077875Y-001508
X078725Y-001508
X079575Y-001508
X073625Y-000092
X074475Y-000092
X075325Y-000092
X076175Y-000092
X077025Y-000092
X077875Y-000092
X078725Y-000092
X079575Y-000092
X051508Y032975
X051508Y032125
X051508Y031275
X051508Y030425
X051508Y029575
X051508Y028725
X051508Y027875
X051508Y027025
X050092Y032975
X050092Y032125
X050092Y031275
X050092Y030425
X050092Y029575
X050092Y028725
X050092Y027875
X050092Y027025
X051508Y-028625
X051508Y-029475
X051508Y-030325
X051508Y-031175
X051508Y-032025
X051508Y-032875
X051508Y-033725
X051508Y-034575
X050092Y-028625
X050092Y-029475
X050092Y-030325
X050092Y-031175
X050092Y-032025
X050092Y-032875
X050092Y-033725
X050092Y-034575
T02
X003000Y003000
X041656Y002286
X003000Y057000
X036000Y057000
M30
