G04 Layer: TopLayer*
G04 EasyEDA v6.5.22, 2025-01-04 22:24:20*
G04 4654ec591aaf40839b9ddd4dd84afded,10*
G04 Gerber Generator version 0.2*
G04 Scale: 100 percent, Rotated: No, Reflected: No *
G04 Dimensions in millimeters *
G04 leading zeros omitted , absolute positions ,4 integer and 5 decimal *
%FSLAX45Y45*%
%MOMM*%

%AMMACRO1*21,1,$1,$2,0,0,$3*%
%ADD10C,2.0000*%
%ADD11C,0.5000*%
%ADD12C,1.5000*%
%ADD13C,1.0000*%
%ADD14R,1.6000X1.7000*%
%ADD15R,1.2500X0.7000*%
%ADD16R,0.8000X0.8000*%
%ADD17R,0.7000X1.2500*%
%ADD18MACRO1,0.864X0.8065X0.0000*%
%ADD19R,0.8640X0.8065*%
%ADD20MACRO1,0.864X0.8065X-90.0000*%
%ADD21MACRO1,1.296X1.7575X-90.0000*%
%ADD22MACRO1,0.864X0.8065X90.0000*%
%ADD23O,1.9999959999999999X4.5999908*%
%ADD24O,4.5999908X1.9999959999999999*%
%ADD25C,1.8000*%
%ADD26C,1.8796*%
%ADD27C,1.5240*%
%ADD28R,1.8000X1.8000*%
%ADD29C,1.6000*%
%ADD30R,1.5240X1.5240*%
%ADD31C,1.1000*%
%ADD32C,0.0159*%

%LPD*%
G36*
X4686300Y876300D02*
G01*
X4686300Y406400D01*
X4851400Y406400D01*
X4851400Y876300D01*
G37*
G36*
X4641850Y2457450D02*
G01*
X4641850Y1987550D01*
X4806950Y1987550D01*
X4806950Y2457450D01*
G37*
G36*
X4330700Y4546600D02*
G01*
X4330700Y4381500D01*
X4800600Y4381500D01*
X4800600Y4546600D01*
G37*
G36*
X3816350Y4533900D02*
G01*
X3816350Y4368800D01*
X4286250Y4368800D01*
X4286250Y4533900D01*
G37*
D10*
X2095500Y4800600D02*
G01*
X2095500Y4435477D01*
X1730308Y4070286D01*
D11*
X1841500Y3530600D02*
G01*
X1866900Y3530600D01*
X2019300Y3378200D01*
X2641600Y3378200D01*
X3556000Y2463800D01*
D10*
X3619500Y4800600D02*
G01*
X3619500Y4470400D01*
X3219386Y4070286D01*
X1064099Y4070286D01*
X1622069Y5092700D02*
G01*
X1622069Y5020030D01*
X1841500Y4800600D01*
D11*
X1728061Y5308600D02*
G01*
X1540459Y5308600D01*
X1878736Y5308600D02*
G01*
X1959330Y5228005D01*
X1959330Y5092700D01*
D10*
X1959330Y5092700D02*
G01*
X2095500Y4956530D01*
X2095500Y4800600D01*
X1102105Y5372100D02*
G01*
X1364071Y5110134D01*
X1364071Y4540288D01*
X1841500Y4800600D02*
G01*
X1581188Y4540288D01*
X1364073Y4540288D01*
D12*
X744110Y4540313D02*
G01*
X1064099Y4220324D01*
X1064099Y4070286D01*
X752094Y5372100D02*
G01*
X744110Y5364116D01*
X744110Y4540310D01*
X1417193Y2467406D02*
G01*
X767206Y2467406D01*
D13*
X304800Y3361265D02*
G01*
X474759Y3191306D01*
X754506Y3191306D01*
X304800Y2489205D02*
G01*
X326598Y2467406D01*
X767206Y2467406D01*
X754509Y1578414D02*
G01*
X1404495Y1578414D01*
X304800Y1617139D02*
G01*
X343524Y1578414D01*
X754509Y1578414D01*
X767209Y1126703D02*
G01*
X817999Y1177493D01*
X1417193Y1177493D01*
X754509Y2028400D02*
G01*
X1404495Y2028400D01*
X754506Y3191306D02*
G01*
X1404493Y3191306D01*
X767206Y2917393D02*
G01*
X1417193Y2917393D01*
X754506Y3641293D02*
G01*
X1404493Y3641293D01*
X754506Y3641293D02*
G01*
X728479Y3615265D01*
X304800Y3615265D01*
X767206Y2917393D02*
G01*
X593018Y2743205D01*
X304800Y2743205D01*
X754509Y2028400D02*
G01*
X597247Y1871139D01*
X304800Y1871139D01*
X767206Y1177493D02*
G01*
X588784Y999070D01*
X304800Y999070D01*
X304800Y3869265D02*
G01*
X101600Y3666065D01*
X101600Y2794005D01*
X304800Y2997205D02*
G01*
X101600Y2794005D01*
X101600Y1921939D01*
X304800Y1253073D02*
G01*
X101600Y1456273D01*
X101600Y1921939D01*
X304800Y2125139D01*
D12*
X767206Y727506D02*
G01*
X749642Y745070D01*
X304800Y745070D01*
X1765300Y685800D02*
G01*
X1723593Y727506D01*
X1417193Y727506D01*
D11*
X1417193Y1177493D02*
G01*
X1687499Y1447800D01*
X1765300Y1447800D01*
X1404495Y2028400D02*
G01*
X1731096Y1701800D01*
X1765300Y1701800D01*
X1417193Y2917393D02*
G01*
X1549400Y2785186D01*
X1549400Y2120900D01*
X1714500Y1955800D01*
X1765300Y1955800D01*
X1404493Y3641293D02*
G01*
X1638300Y3407486D01*
X1638300Y2311400D01*
X1739900Y2209800D01*
X1765300Y2209800D01*
X2032000Y1955800D02*
G01*
X1765300Y1955800D01*
X2032000Y1701800D02*
G01*
X1765300Y1701800D01*
X2032000Y1447800D02*
G01*
X1765300Y1447800D01*
D13*
X2032000Y1193800D02*
G01*
X1765300Y1193800D01*
D11*
X2032000Y939800D02*
G01*
X1765300Y939800D01*
D12*
X2032000Y685800D02*
G01*
X1765300Y685800D01*
D11*
X2032000Y431800D02*
G01*
X1765300Y431800D01*
X2032000Y2209800D02*
G01*
X1765300Y2209800D01*
X2032000Y2463800D02*
G01*
X1765300Y2463800D01*
X2032000Y2717800D02*
G01*
X1765300Y2717800D01*
X2032000Y2971800D02*
G01*
X1765300Y2971800D01*
D12*
X3111500Y3530600D02*
G01*
X2857500Y3530600D01*
X3105531Y5054600D02*
G01*
X3111500Y5048630D01*
X3111500Y4800600D01*
X2855595Y5054600D02*
G01*
X2857500Y5052695D01*
X2857500Y4800600D01*
X2605659Y5054600D02*
G01*
X2603500Y5052440D01*
X2603500Y4800600D01*
X2355468Y5054600D02*
G01*
X2349500Y5048630D01*
X2349500Y4800600D01*
D11*
X3835400Y4013200D02*
G01*
X3898900Y4076700D01*
X3975861Y4076700D01*
X1765300Y3225800D02*
G01*
X2032000Y3225800D01*
X4406900Y3818889D02*
G01*
X3835400Y3247389D01*
X3835400Y3225800D01*
X3835400Y2717800D02*
G01*
X3860800Y2717800D01*
X4025900Y2552700D01*
X4025900Y1253489D01*
X4403090Y876300D01*
X3835400Y2971800D02*
G01*
X3835400Y2921000D01*
X4326890Y2429510D01*
X4326890Y2400300D01*
X3556000Y3225800D02*
G01*
X3835400Y3225800D01*
X3556000Y2971800D02*
G01*
X3835400Y2971800D01*
X3556000Y2717800D02*
G01*
X3835400Y2717800D01*
X3556000Y2463800D02*
G01*
X3835400Y2463800D01*
X3556000Y2209800D02*
G01*
X3835400Y2209800D01*
X3556000Y1955800D02*
G01*
X3835400Y1955800D01*
X3556000Y1701800D02*
G01*
X3835400Y1701800D01*
X3556000Y1447800D02*
G01*
X3835400Y1447800D01*
X3556000Y685800D02*
G01*
X3835400Y685800D01*
X3556000Y431800D02*
G01*
X3835400Y431800D01*
X3956304Y4230700D02*
G01*
X3975963Y4211040D01*
X3975963Y4076700D01*
X3975963Y4076700D02*
G01*
X3962400Y4063136D01*
X3962400Y3895089D01*
X4126636Y4076700D02*
G01*
X4152900Y4050436D01*
X4152900Y3910736D01*
X4152900Y3760063D02*
G01*
X4117746Y3724910D01*
X3962400Y3724910D01*
X4438904Y4167200D02*
G01*
X4471263Y4134840D01*
X4471263Y4025900D01*
X4471263Y4025900D02*
G01*
X4406900Y3961536D01*
X4406900Y3818889D01*
X4406900Y3648710D02*
G01*
X4549546Y3506063D01*
X4610100Y3506063D01*
X4572000Y3835400D02*
G01*
X4610100Y3797300D01*
X4610100Y3656736D01*
X4156709Y2400300D02*
G01*
X4178300Y2378710D01*
X4178300Y2196236D01*
X4326890Y2400300D02*
G01*
X4356100Y2371089D01*
X4356100Y2196236D01*
X4178300Y2045563D02*
G01*
X4356100Y2045563D01*
X4495800Y2019300D02*
G01*
X4469536Y2045563D01*
X4356100Y2045563D01*
D12*
X4704499Y2705100D02*
G01*
X4735499Y2674099D01*
X4735499Y2235200D01*
X4326890Y2400300D02*
G01*
X4396993Y2330195D01*
X4535500Y2330195D01*
X4267200Y4216400D02*
G01*
X4126738Y4076700D01*
X3855300Y4711700D02*
G01*
X4051300Y4515700D01*
X4051300Y4430699D01*
X4439500Y4711700D02*
G01*
X4533900Y4617300D01*
X4533900Y4367199D01*
X4495800Y3022600D02*
G01*
X4312500Y2839300D01*
X4312500Y2705100D01*
X4495800Y3276600D02*
G01*
X4635500Y3276600D01*
X4711700Y3200400D01*
X4704499Y3193199D01*
X4704499Y2705100D01*
X4495800Y2019300D02*
G01*
X4535500Y2059000D01*
X4535500Y2140204D01*
X4621936Y4025900D02*
G01*
X4628895Y4032859D01*
X4628895Y4167200D01*
X4572000Y3835400D02*
G01*
X4621936Y3885336D01*
X4621936Y4025900D01*
X4267200Y4216400D02*
G01*
X4191000Y4216400D01*
X4838700Y5143500D02*
G01*
X4831494Y5136294D01*
X4831494Y4711700D01*
X4584700Y5143500D02*
G01*
X4439505Y4998305D01*
X4439505Y4711700D01*
X4254500Y5181600D02*
G01*
X4247294Y5174394D01*
X4247294Y4711700D01*
X4504357Y483461D02*
G01*
X4504357Y423242D01*
X4533900Y393700D01*
D13*
X4508500Y1468549D02*
G01*
X4350600Y1310650D01*
X4350600Y1168400D01*
X4742599Y1168400D02*
G01*
X4742599Y1645500D01*
X4648200Y1739900D01*
X4525850Y1739900D01*
X4508500Y1722549D01*
X4742599Y1168400D02*
G01*
X4773599Y1137399D01*
X4773599Y647700D01*
D11*
X4573600Y742695D02*
G01*
X4439996Y876300D01*
X4403090Y876300D01*
X4403092Y876300D02*
G01*
X4394200Y867407D01*
X4394200Y672236D01*
X4232907Y876300D02*
G01*
X4241800Y867407D01*
X4241800Y672236D01*
X4394200Y521563D02*
G01*
X4542459Y521563D01*
X4573600Y552704D01*
X4241800Y521563D02*
G01*
X4356097Y521563D01*
X4394200Y483461D01*
D12*
X1417142Y727557D02*
G01*
X817948Y727557D01*
X761949Y711250D01*
D11*
X1380489Y5308600D02*
G01*
X1202181Y5308600D01*
D12*
X4000500Y5181600D02*
G01*
X3855211Y5036312D01*
X3855211Y4711700D01*
D14*
G01*
X4742611Y1168400D03*
G01*
X4350588Y1168400D03*
D15*
G01*
X4573600Y742695D03*
G01*
X4573600Y552704D03*
G01*
X4773599Y647700D03*
D16*
G01*
X4232909Y876300D03*
G01*
X4403090Y876300D03*
D14*
G01*
X4704511Y2705100D03*
G01*
X4312488Y2705100D03*
G01*
X4439513Y4711700D03*
G01*
X4831511Y4711700D03*
G01*
X3855288Y4711700D03*
G01*
X4247311Y4711700D03*
D15*
G01*
X4535500Y2330195D03*
G01*
X4535500Y2140204D03*
G01*
X4735499Y2235200D03*
D17*
G01*
X4438904Y4167200D03*
G01*
X4628895Y4167200D03*
G01*
X4533900Y4367199D03*
G01*
X3956304Y4230700D03*
G01*
X4146295Y4230700D03*
G01*
X4051300Y4430699D03*
D16*
G01*
X4156709Y2400300D03*
G01*
X4326890Y2400300D03*
G01*
X4406900Y3648710D03*
G01*
X4406900Y3818889D03*
G01*
X3962400Y3724910D03*
G01*
X3962400Y3895089D03*
D18*
G01*
X4394200Y672224D03*
D19*
G01*
X4394200Y521563D03*
D18*
G01*
X4356100Y2196224D03*
D19*
G01*
X4356100Y2045563D03*
D20*
G01*
X4471275Y4025900D03*
G01*
X4621924Y4025900D03*
G01*
X3975975Y4076700D03*
G01*
X4126624Y4076700D03*
D18*
G01*
X4241800Y672224D03*
D19*
G01*
X4241800Y521563D03*
D18*
G01*
X4178300Y2196224D03*
D19*
G01*
X4178300Y2045563D03*
D18*
G01*
X4610100Y3506075D03*
D19*
G01*
X4610100Y3656736D03*
D18*
G01*
X4152900Y3760075D03*
D19*
G01*
X4152900Y3910736D03*
D21*
G01*
X1622075Y5092700D03*
G01*
X1959324Y5092700D03*
D16*
G01*
X1380566Y5308600D03*
G01*
X1540459Y5308600D03*
D22*
G01*
X1878724Y5308600D03*
G01*
X1728075Y5308600D03*
D23*
G01*
X1364081Y4540275D03*
G01*
X744118Y4540300D03*
D24*
G01*
X1064107Y4070273D03*
D25*
G01*
X2355468Y5054600D03*
G01*
X2605659Y5054600D03*
G01*
X2855595Y5054600D03*
G01*
X3105531Y5054600D03*
D26*
G01*
X3556000Y431800D03*
G01*
X3556000Y685800D03*
G01*
X3556000Y939800D03*
G01*
X3556000Y1193800D03*
G01*
X3556000Y1447800D03*
G01*
X3556000Y1701800D03*
G01*
X3556000Y1955800D03*
G01*
X3556000Y2209800D03*
G01*
X3556000Y2463800D03*
G01*
X3556000Y2717800D03*
G01*
X3556000Y2971800D03*
G01*
X3556000Y3225800D03*
G01*
X2032000Y3225800D03*
G01*
X2032000Y2971800D03*
G01*
X2032000Y2717800D03*
G01*
X2032000Y2463800D03*
G01*
X2032000Y2209800D03*
G01*
X2032000Y1955800D03*
G01*
X2032000Y1701800D03*
G01*
X2032000Y1447800D03*
G01*
X2032000Y1193800D03*
G01*
X2032000Y939800D03*
G01*
X2032000Y685800D03*
G01*
X2032000Y431800D03*
D27*
G01*
X3619500Y3530600D03*
G01*
X3619500Y4800600D03*
G01*
X3365500Y3530600D03*
G01*
X3111500Y3530600D03*
G01*
X2857500Y3530600D03*
G01*
X2603500Y3530600D03*
G01*
X2349500Y3530600D03*
G01*
X2095500Y3530600D03*
G01*
X1841500Y3530600D03*
G01*
X3365500Y4800600D03*
G01*
X3111500Y4800600D03*
G01*
X2857500Y4800600D03*
G01*
X2603500Y4800600D03*
G01*
X2349500Y4800600D03*
G01*
X2095500Y4800600D03*
G01*
X1841500Y4800600D03*
D25*
G01*
X4508500Y1722551D03*
G01*
X4508500Y1468551D03*
G01*
X4495800Y3276600D03*
G01*
X4495800Y3022600D03*
G01*
X4584700Y5143500D03*
G01*
X4838700Y5143500D03*
G01*
X4000500Y5181600D03*
G01*
X4254500Y5181600D03*
D28*
G01*
X304800Y3869258D03*
D25*
G01*
X304800Y3615258D03*
G01*
X304800Y3361258D03*
G01*
X754506Y3641293D03*
G01*
X1404493Y3641293D03*
G01*
X754506Y3191306D03*
G01*
X1404493Y3191306D03*
G01*
X767206Y2917393D03*
G01*
X1417193Y2917393D03*
G01*
X767206Y2467406D03*
G01*
X1417193Y2467406D03*
D29*
G01*
X752094Y5372100D03*
G01*
X1102105Y5372100D03*
D27*
G01*
X3835400Y3225800D03*
G01*
X3835400Y2971800D03*
G01*
X3835400Y2717800D03*
G01*
X3835400Y2463800D03*
G01*
X3835400Y2209800D03*
G01*
X3835400Y1955800D03*
G01*
X3835400Y1701800D03*
G01*
X3835400Y1447800D03*
G01*
X3835400Y1193800D03*
G01*
X3835400Y939800D03*
G01*
X3835400Y685800D03*
D30*
G01*
X3835400Y431800D03*
D27*
G01*
X1765300Y3225800D03*
G01*
X1765300Y2971800D03*
G01*
X1765300Y2717800D03*
G01*
X1765300Y2463800D03*
G01*
X1765300Y2209800D03*
G01*
X1765300Y1955800D03*
G01*
X1765300Y1701800D03*
G01*
X1765300Y1447800D03*
G01*
X1765300Y1193800D03*
G01*
X1765300Y939800D03*
G01*
X1765300Y685800D03*
D30*
G01*
X1765300Y431800D03*
D28*
G01*
X304800Y1253058D03*
D25*
G01*
X304800Y999083D03*
G01*
X304800Y745083D03*
G01*
X767206Y1177493D03*
G01*
X1417193Y1177493D03*
G01*
X767206Y727506D03*
G01*
X1417193Y727506D03*
D28*
G01*
X304800Y2125141D03*
D25*
G01*
X304800Y1871141D03*
G01*
X304800Y1617141D03*
G01*
X754506Y2028393D03*
G01*
X1404493Y2028393D03*
G01*
X754506Y1578406D03*
G01*
X1404493Y1578406D03*
D28*
G01*
X304800Y2997200D03*
D25*
G01*
X304800Y2743200D03*
G01*
X304800Y2489200D03*
D31*
G01*
X4533900Y393700D03*
G01*
X4495800Y2019300D03*
G01*
X4267200Y4216400D03*
G01*
X4572000Y3835400D03*
D13*
G01*
X3835400Y4013200D03*
M02*
