G04 Layer: BoardOutlineLayer*
G04 EasyEDA v6.5.22, 2025-01-04 22:24:20*
G04 4654ec591aaf40839b9ddd4dd84afded,10*
G04 Gerber Generator version 0.2*
G04 Scale: 100 percent, Rotated: No, Reflected: No *
G04 Dimensions in millimeters *
G04 leading zeros omitted , absolute positions ,4 integer and 5 decimal *
%FSLAX45Y45*%
%MOMM*%

%ADD10C,0.2540*%
D10*
X0Y299999D02*
G01*
X0Y5699988D01*
X4699990Y0D02*
G01*
X299999Y0D01*
X4999990Y5699988D02*
G01*
X4999990Y299999D01*
X299999Y5999987D02*
G01*
X4699990Y5999987D01*
G75*
G01*
X4699991Y5999988D02*
G02*
X4999990Y5699989I0J-299999D01*
G75*
G01*
X4999990Y299999D02*
G02*
X4699991Y0I-299999J0D01*
G75*
G01*
X299999Y0D02*
G02*
X0Y299999I0J299999D01*
G75*
G01*
X0Y5699989D02*
G02*
X299999Y5999988I299999J0D01*
X5159989Y299999D02*
G01*
X5159989Y5699988D01*
X9859980Y0D02*
G01*
X5459989Y0D01*
X10159979Y5699988D02*
G01*
X10159979Y299999D01*
X5459989Y5999987D02*
G01*
X9859980Y5999987D01*
G75*
G01*
X9859980Y5999988D02*
G02*
X10159980Y5699989I0J-299999D01*
G75*
G01*
X10159980Y299999D02*
G02*
X9859980Y0I-300000J0D01*
G75*
G01*
X5459989Y0D02*
G02*
X5159990Y299999I0J299999D01*
G75*
G01*
X5159990Y5699989D02*
G02*
X5459989Y5999988I299999J0D01*
X0Y-5859988D02*
G01*
X0Y-459999D01*
X4699990Y-6159987D02*
G01*
X299999Y-6159987D01*
X4999990Y-459999D02*
G01*
X4999990Y-5859988D01*
X299999Y-159999D02*
G01*
X4699990Y-159999D01*
G75*
G01*
X4699991Y-160000D02*
G02*
X4999990Y-459999I0J-299999D01*
G75*
G01*
X4999990Y-5859988D02*
G02*
X4699991Y-6159988I-299999J0D01*
G75*
G01*
X299999Y-6159988D02*
G02*
X0Y-5859988I0J300000D01*
G75*
G01*
X0Y-459999D02*
G02*
X299999Y-160000I299999J0D01*
X5159989Y-5859988D02*
G01*
X5159989Y-459999D01*
X9859980Y-6159987D02*
G01*
X5459989Y-6159987D01*
X10159979Y-459999D02*
G01*
X10159979Y-5859988D01*
X5459989Y-159999D02*
G01*
X9859980Y-159999D01*
G75*
G01*
X9859980Y-160000D02*
G02*
X10159980Y-459999I0J-299999D01*
G75*
G01*
X10159980Y-5859988D02*
G02*
X9859980Y-6159988I-300000J0D01*
G75*
G01*
X5459989Y-6159988D02*
G02*
X5159990Y-5859988I0J300000D01*
G75*
G01*
X5159990Y-459999D02*
G02*
X5459989Y-160000I299999J0D01*
X-6Y5999993D02*
G01*
X10159990Y5999993D01*
X10159990Y-6159993D01*
X-6Y-6159993D01*
X-6Y5999993D01*
X2157989Y-150837D02*
G01*
X2157989Y-9166D01*
X2841998Y-150837D02*
G01*
X2841998Y-9166D01*
X7317987Y-150837D02*
G01*
X7317987Y-9166D01*
X8001996Y-150837D02*
G01*
X8001996Y-9166D01*
X5150830Y3342002D02*
G01*
X5009156Y3342002D01*
X5150830Y2657993D02*
G01*
X5009156Y2657993D01*
X5150830Y-2817990D02*
G01*
X5009156Y-2817990D01*
X5150830Y-3501999D02*
G01*
X5009156Y-3501999D01*

%LPD*%
M02*
